<?xml version="1.0" encoding="utf-8"?>
<!-- Generator: Adobe Illustrator 18.1.0, SVG Export Plug-In . SVG Version: 6.00 Build 0)  -->
<svg version="1.1" id="Layer_1" xmlns="http://www.w3.org/2000/svg" xmlns:xlink="http://www.w3.org/1999/xlink" x="0px" y="0px"
	 viewBox="0 0 220.3 253.2" enable-background="new 0 0 220.3 253.2" xml:space="preserve">
<g opacity="0.3">
	<path d="M48.6,184.8c-0.4-0.1-0.7-0.2-1-0.3c-0.8-0.3-1.7-0.6-2.3-1.3c-0.5-0.6-1.2-0.9-2-1c-2.1-0.3-4.1-1.1-6.1-2
		c-2.8-1.4-5.1-3.4-7.3-5.5c-1.1-1-1.8-2.4-2.6-3.7c-0.8-1.2-1.5-2.4-2.1-3.7c-0.6-1.3-1-2.6-1.5-3.9c-0.5-1.4-0.9-2.8-1.3-4.2
		c-0.9-3.1-1.6-6.3-2-9.5c0-0.2-0.1-0.3,0-0.4c0.3-3-0.5-6-0.6-9c-0.1-2.4-0.2-4.8-0.3-7.3c0-0.7,0-1.4-0.5-1.9
		c-0.2-0.2-0.3-0.5-0.2-0.7c0.3-1.2-0.3-2.1-0.8-3c-0.5-1-1.1-1.9-1.6-2.8c-0.6-1-1.2-1.9-1.9-2.8c-0.3-0.4-0.5-0.8-0.3-1.3
		c0.1-0.2,0-0.5,0-0.8c0-0.5-0.1-1,0.4-1.3c0.5-0.3,1.1-0.2,1.6,0.1c0.5,0.4,0.8,0.9,1.2,1.3c0.2,0.3,0.4,0.6,0.7,0.8
		c1.9,1.2,3.2,3,4.5,4.7c1.1,1.4,2.4,2.7,3.6,4c0.8,0.9,1.6,1.7,2.4,2.5c1,1,2,2,3.1,2.9c2.2,1.9,4.3,4,5.9,6.5
		c0.5,0.8,1.2,1.5,1.8,2.2c1.1,1,1.7,2.4,2.5,3.6c0.3,0.4,0.5,0.8,0.8,1.2c1.9,2.3,2.7,5.1,3.3,8c0.4,1.8,1.1,3.5,1.6,5.3
		c0.6,2.1,0.7,4.3,0.8,6.5c0,1.5,0.2,3.1,0.5,4.6c0.3,1.4,0.6,2.8,0.5,4.3c-0.1,1.4-0.2,2.8-0.3,4.4c0.1,0,0.3,0.1,0.6,0.1
		c1-0.1,2,0.1,3,0.6c0.7,0.4,1.4,0.3,2.2,0.2c2.1-0.4,4-1.5,5.9-2.3c1.7-0.7,3.4-1.4,5-2.3c1.6-0.9,3.2-1.6,4.6-2.8
		c1.2-1,2.5-1.7,3.8-2.6c0.4-0.2,0.6-0.6,1.1-1c-1.2-0.7-2.1-1.6-3.4-1.6c-0.3,0-0.7-0.3-1-0.6c-0.9-1.2-1.7-2.5-3-3.4
		c-0.5-0.4-0.9-1-1.3-1.6c-1.9-2.5-3.8-5-5.3-7.8c-1.5-2.8-3-5.5-4.5-8.3c-0.8-1.5-1.7-2.9-2.5-4.4c-0.6-1.2-1.1-2.5-1.5-3.8
		c-0.5-1.5-1-3.1-1.5-4.6c-0.3-0.9-0.5-1.8-0.6-2.8c-0.2-1.9-1.1-3.5-1.6-5.3c-0.5-2.1-1.2-4.1-1.1-6.4c0.1-1.4,0-2.8,0.2-4.2
		c0.2-1.5,0.5-3,1.3-4.4c0.4-0.7,0.7-1.4,1-2.1c0.6-1.3,1.6-2.3,2.6-3.2c0.5-0.4,0.9-0.8,1.3-1.2c1-1.2,2.3-1.7,3.6-2.2
		c0.9-0.4,1.8-0.8,2.7-1.2c0.4-0.2,0.8-0.4,1.3-0.5c2.1-0.4,4.3-0.7,6.6-1.1c-0.3-0.2-0.5-0.4-0.7-0.5c-1.9-0.8-3.8-1.6-5.7-2.4
		c-0.9-0.4-1.7-0.8-2.5-1.2c-2-1-4.1-1.9-6.1-2.9c-1.6-0.8-2.3-0.5-2.9,1.3c-0.2,0.5-0.4,1.1-0.6,1.6c-0.2,0.4-0.2,0.8,0.1,1.2
		c0.3,0.4,0.5,0.8,0.7,1.3c1.2,2.4-0.4,4.8-3.1,4.8c-3-0.1-4.3-3.3-3.3-5.4c0.4-0.7,1-0.9,1.5-1.3c0-0.4-0.1-0.9,0-1.3
		c0.2-0.4,0.6-0.6,0.9-1c-0.2-0.5-0.6-0.3-0.8-0.1c-1.5,0.8-3,1.7-4.6,2.5c0.2,0.5,0.3,1,0.5,1.5c0.2,0.4,0.1,0.8-0.1,1.2
		c-0.5,0.8-1.1,1.6-1.7,2.2c-0.2,0.3-0.7,0.5-1.1,0.5c-0.8,0-1.6-0.2-2.3-0.4c-0.6-0.1-1.1-0.5-1.4-1.1c-0.4-0.7-0.8-1.3-1.2-2
		c-0.2-0.4-0.3-0.8-0.3-1.2c0.1-1.6,0.5-3,2-4c0.7-0.5,1.5-0.6,2.2-0.1c0.5,0.4,1.1,0.5,1.7,0.3c0.5-0.2,1.1-0.4,1.7-0.6
		c0.8-0.3,1.5-0.7,2.4-1.1c-0.6-0.4-1-0.7-1.5-0.9c-0.4-0.2-0.7-0.1-1.1,0.1c-0.4,0.3-0.8,0.5-1.3,0.8c-0.9,0.6-1.9,0.4-2.6-0.3
		c-0.8-0.8-1.5-1.7-2.2-2.6c-0.4-0.6-0.4-1.4,0.2-2c0.2-0.2,0.3-0.5,0.5-0.8c0.8-1,1.8-1.6,3.1-1.6c0.2,0,0.4,0,0.6-0.1
		c-1-0.7-2.2-1.1-3.2-1.8c-1.1-0.6-2.2-1.3-3.4-1.8c-1.1-0.5-2.3-1-3.6-1.5c-0.7,0.9-1.4,1.9-2.2,2.9c-0.4,0.6-0.4,1.2-0.1,1.7
		c0.6,1.1,0.5,2.3,0.2,3.4c-0.2,0.9-1,1.4-1.7,1.9c-0.5,0.4-1.1,0.2-1.6,0c-0.5-0.1-1-0.2-1.5-0.5c-0.3-0.1-0.6-0.4-0.7-0.7
		c-0.5-1.2-0.9-2.5-1.2-3.8c-0.3-1.1,0.6-2.1,1.8-2.1c0.5,0,1-0.1,1.5-0.1c0-0.3,0.1-0.6,0.1-0.8c0-0.2,0-0.4-0.1-0.8
		c-1.4,0.1-2.8,0.3-4.2,0.4c-1.4,0.1-2.8,0.3-4.2,0.4c0,0.3,0,0.6-0.1,0.8c-0.1,0.5-0.2,1.1-0.5,1.4c-1.6,1.6-2.6,2.5-5,1.7
		c-1-0.4-1.7-1.1-2.2-2c-0.2-0.5-0.4-1-0.7-1.4C6.1,80,7,77.4,8.9,76.3c0.2-0.1,0.4-0.2,0.6-0.2c1.1,0.2,2.3,0.2,3.3,1.1
		c0.4,0.4,0.9,0.5,1.5,0.4c0.9-0.1,1.9-0.2,2.8-0.2c0.2,0,0.4,0.1,0.5,0.1c0.5,0.3,0.9,0.1,1.3-0.3c-0.5-0.5-1-1.1-1.6-1.6
		c-0.2-0.2-0.7-0.1-0.9,0c-1.3,0.5-2.3,0.2-3.3-0.8c-1.7-1.8-1.7-3.4-0.9-4.8c0.7-1.4,2.6-2.1,4.1-1.5c0.4,0.2,0.9,0.3,1.3,0.4
		c0.7,0.3,1.2,0.8,1.6,1.6c0.5,1.2,0.8,2.7,2.3,3.3c0.3,0.1,0.6,0.5,0.8,0.7c1.1,1.1,2.4,1.8,4,1.5c0.8-0.1,1.7-0.2,2.5-0.2
		c0.6,0,1.2,0.1,1.8,0.3c0.4,0.1,0.7,0.2,1-0.3c-1.8-0.3-3.1-1.4-4.2-2.7c-0.6-0.6-1.2-1.3-2.2-1.4c-0.1,0-0.3-0.1-0.4-0.2
		c-0.3-0.8-0.7-1.6-0.9-2.5c-0.1-0.4,0.1-0.9,0.3-1.3c0.5-1.1,2.3-2,3.5-1.6c1.4,0.5,2.4,1.5,2.7,3c0.2,1,0.4,1.9,1.3,2.5
		c0.6,0.4,1.2,0.8,1.9,1.2c0.1-1,0.1-1.8-0.2-2.6c-0.4-0.9-0.4-1.7,0.2-2.6c0.2-0.3,0.3-0.6,0.5-0.9c0.3-0.4,0.5-0.8,1.1-0.9
		c0.2,0,0.5-0.2,0.7-0.3c1.5-1,2.3-0.5,3.4,0.3c1.6,1.2,1.9,2.4,1.3,4.3c-0.2,0.5-0.7,1.1-1.2,1.3c-1,0.4-1.3,1.1-1.3,2.1
		c0.1,1.3,0.1,2.6,0.2,4c0.1,0.7,0.4,1.3,1.2,1.7c0.8,0.4,1.6,0.9,2.3,1.4c0.2,0.1,0.3,0.1,0.6,0.2c0.1-1.3-0.3-2.4-0.7-3.5
		c-0.3-1.2-0.6-2.4-0.4-3.6c0.1-0.8,0-1.6,0.1-2.5c0.2-1.9,1-2.7,3-2.9c0.5-0.1,1-0.2,1.4,0c0.7,0.3,1.3,0.8,1.8,1.5
		c0.4,0.7,0.7,1.5,0.9,2.3c0.3,1.4-0.3,2.5-1.2,3.5c-0.4,0.4-1.1,0.5-1.6,0.8c-0.1,0.1-0.3,0.1-0.5,0.2c0.1,1.4,0.3,2.8,0.9,4.1
		c0.1,0.3,0.3,0.6,0.4,0.9c0.5,1.8,1.7,2.9,3.3,3.7c0.6,0.3,1.2,0.8,1.8,1.2c1.2,0.7,2.5,1.3,3.6,2.2c2.2,1.6,4.7,2.6,7,4
		c1.5,0.9,3.1,1.8,5,2.1c1.4,0.2,2.8,0.6,4.2,0.9c1.2,0.3,2.3,0.6,3.5,1c1.1,0.4,2.3,0.4,3.5,0.7c0.4,0.1,0.8,0.1,1.3,0
		c-1-0.4-1.9-0.9-2.9-1.3c-1.5-0.7-2.9-1.5-4-2.8c-1-1.2-2-2.5-2.7-3.9c-0.3-0.5-0.6-1-0.9-1.5c-0.6-1.2-0.6-2.5-0.5-3.8
		c0.1-1.1,0-2.2,0.7-3.1c1-1.4,1.8-2.8,2.8-4.2c0.8-1.1,1.7-2.2,2.6-3.3c0.6-0.7,1.1-1.3,1.7-1.9c1.2-1.3,2.4-2.6,3.9-3.6
		c0.1-0.1,0.2-0.3,0.4-0.5c-0.2-0.1-0.3-0.2-0.4-0.2c-4-0.1-7.5-1.5-10.8-3.7c-1.3-0.8-2.6-1.4-3.8-2.4c-2.4-2.1-4.4-4.4-6.1-7.1
		c-1-1.6-1-1.6-2.6-2.2c0.4-1.5-0.8-2.3-1.6-3c-2.5-2.3-5.1-4.3-7.7-6.5c-2-1.7-4.2-3-6.6-4.1c-1.3-0.6-2.6-1.3-3.9-1.9
		c-0.8-0.4-1.6-0.9-2.4-1.2c-1.9-0.7-3.8-1.3-5.7-2c-0.7-0.2-1.4-0.5-2-0.7c-0.8-0.2-1.6-0.4-2.4-0.6c-0.5-0.1-1-0.1-1.5,0.2
		c-0.4,0.3-0.8,0.2-1-0.3c-0.1-0.4-0.4-0.5-0.8-0.5c-3.4-0.6-6.8-0.9-10.3-1.1c-0.8,0-1.6-0.2-2.3-0.3c-0.3-0.1-0.6-0.4-0.7-0.6
		c-0.1-0.1,0.1-0.5,0.2-0.7c0.8-0.7,1.6-1.4,2.3-2.2c1.1-1.2,2.6-2,3.9-2.9c0.9-0.6,1.7-1.3,2.6-2c0.3-0.2,0.7-0.4,1.1-0.6
		c0.5-0.3,1-0.5,1.4-0.8c1.6-1.1,3.3-1.9,4.8-3.1c0.5-0.4,1.2-0.5,1.7-0.8c0.8-0.3,1.6-0.6,2.4-1c1.2-0.6,2.4-1.2,3.6-1.7
		c1.7-0.7,3.3-1.4,5-2.1c0.2-0.1,0.3-0.3,0.5-0.4c0.2-0.1,0.5-0.4,0.7-0.3c1.4,0.4,2.6-0.4,3.8-0.6c1.4-0.2,2.7-0.8,4.1-1
		C49,8.7,51.6,8,54.3,7.6c1.7-0.3,3.5-0.4,5.3-0.6c0.6-0.1,1.2,0,1.7-0.5c0.1-0.1,0.6-0.2,0.7-0.1c0.7,0.4,1.5,0.2,2.2,0.2
		c1.5,0.1,2.9,0.1,4.4,0.1c0.8,0,1.6-0.1,2.4-0.1c0.8,0,1.5,0,2.3,0c0.4,0,0.9,0.2,1.3-0.2c0.1-0.1,0.5-0.1,0.6,0
		c0.6,0.5,1.2,0.3,1.8,0.4c1.8,0.2,3.6,0,5.4,0.5c0.1,0,0.3,0,0.4,0.1c1.1,0.5,2.3,0.9,3.4,1.5c0.8,0.4,1.3,1.1,2.1,1.5
		c1.4,0.8,2.5,1.8,3.6,2.8c0.9,0.8,1.6,1.8,2.4,2.7c0.8,1,1.5,2.1,2.3,3.1c0.8,0.9,1.6,1.8,2.5,2.7c0.9,0.9,1.6,2,2.1,3.1
		c0.9,1.9,1.8,3.8,2.3,5.9c0,0.1,0.1,0.3,0.1,0.4c1.2,2.1,1.4,4.3,1.5,6.6c0.1,1.1,0.2,2.2,0.2,3.3c0,0.6,0,1.2,0,1.8
		c0,0.9,0,1.8,0,2.7c0,1.1,0,2.1-0.1,3.2c0,0.8,0,1.6,0.7,2.3c0.7-0.3,1.4-0.6,2.2-0.8c1.8-0.7,3.8-1,5.7-0.6
		c0.8,0.1,1.8,0.5,2.4,1.3c0.7,0.9,1.6,1.6,2.7,2c0.3,0.1,0.7,0.3,0.9,0.6c1.2,1.3,2.3,2.7,3.4,4c0.3,0.4,0.5,0.8,0.8,1.2
		c0.1,0.2,0.3,0.5,0.5,1c0.4-1.2,0.7-2.1,1-3.1c0.2-0.7,0.5-1.4,0.6-2c0.2-1.1,0.2-2.2,0.5-3.2c0.6-2.5,0.7-5.1,1.5-7.5
		c0.4-1.4,0.6-3,0.9-4.4c0.4-2.1,0.7-4.3,1.1-6.4c0.2-1.2,0.7-2.4,1-3.6c0.3-0.8,0.2-1.5-0.5-2.1c-1-0.9-1.6-2.1-2.2-3.2
		c-0.4-0.8-0.4-0.9-1.3-0.6c-1.2,0.4-2.3,0.8-3.5,1.3c-0.3,0.1-0.4,0.5-0.6,0.8c-0.6,1.3-1.5,2.4-2.9,2.9c-1,0.4-1.9,0-2.9-0.1
		c-0.4-0.1-0.9-0.2-1.3-0.4c-0.2-0.1-0.5-0.3-0.6-0.5c-0.9-1.9-0.5-4,1.1-5.4c0.6-0.5,1.1-1,1.9-1.4c1.6-0.7,3.5-0.2,4.6,1.2
		c0.6-0.2,1.3-0.4,1.9-0.6c0.6-0.2,1.3-0.5,2-0.7c-0.1-0.4-0.1-1-0.3-1.2c-0.8-0.9-1.3-2.1-2.6-2.7c-0.6-0.3-1-0.8-1.5-1.2
		c-1.1-0.9-2.3-1.7-3.5-2.6c-0.6,0.3-1.2,0.6-1.7,0.9c-1,0.6-1.9,0.5-2.8-0.2c-0.7-0.5-1.3-1.2-2-1.9c-0.4-0.5-0.5-1.1-0.5-1.8
		c0-1.6,0.5-2.9,1.8-3.6c0.7-0.4,1.2-1.3,2.3-1.3c1.6,0,3.1,0.1,4.2,1.5c0.1,0.1,0.3,0.3,0.3,0.5c0.2,1.1,1,1.8,1.6,2.6
		c0.6,0.8,0.7,1,0.3,2c0.9,0.7,1.9,1.4,2.8,2.2c0.6,0.5,1.2,1.2,1.9,1.6c1,0.6,2.1,1.1,3.2,1.6c0.2-0.3,0.4-0.6,0.5-0.8
		c0.1-0.2,0.1-0.4,0.2-0.5c0.9-1.4,0.3-2.7-0.2-3.9c-0.4-1,0-1.9,0-2.8c0-0.1,0.1-0.2,0.2-0.3c0.4-0.2,0.7-0.6,0.9-1
		c0.7-1.3,3.3-1.6,4.5-0.7c1.1,0.9,1.5,2,1.8,3.3c0.3,1.6,0.1,3.1-0.5,4.5c-0.3,0.8-0.9,1.2-1.8,1.3c-1.9,0.2-1.4-0.2-2.4,1.6
		c-0.8,1.5-1.1,3.1-1.3,4.8c0,0.4,0.1,0.8,0.2,1.2c0.6,1.5,1.1,3,1.7,4.5c0,0,0.2,0,0.2,0c1-1,2-2.1,3.1-3.1c0.5-0.5,1-1.1,1.5-1.6
		c0.8-0.8,1.6-1.5,2.4-2.3c1.1-1.1,2.2-2.3,3.3-3.4c0.7-0.8,0.6-0.7,0.2-1.6c-0.2-0.4-0.4-1-0.4-1.5c0-1.3,0.2-2.5,0.3-3.8
		c0.1-0.9,0.4-1.7,0.6-2.6c-0.8-0.9-0.9-2.2-1.3-3.4c0-0.2,0-0.4-0.1-0.5c-0.5-0.8-0.1-1.5,0.4-2.1c1.2-1.4,2.7-2,4.5-1.8
		c0.2,0,0.5,0.1,0.6,0.2c0.6,0.8,1.4,1.6,1.7,2.5c0.3,1,0.3,2.1,0,3.2c-0.2,0.7-0.6,1.2-1.2,1.5c-0.3,0.1-0.7,0.2-0.9,0.4
		c-0.3,0.2-0.6,0.5-0.6,0.8c-0.3,1.2-0.5,2.4-0.7,3.7c-0.1,0.3,0,0.6,0,1.1c0.6-0.3,1.1-0.4,1.4-1c0.2-0.4,0.6-0.7,1-0.9
		c1.3-0.6,2.2-1.8,3.2-2.8c0.6-0.6,0.6-0.8,0.2-1.7c-0.3-0.7-0.4-1.3-0.1-2.1c0.5-1.1,1.3-2,2-3c0.6-0.8,1.6-1.3,2.6-1.2
		c1.1,0.1,2,0.6,2.6,1.6c0.3,0.4,0.6,0.9,0.9,1.3c0.4,0.6,0.7,1.2,0.7,2c0,0.6,0.1,1.3,0.1,1.9c0.1,1.9-1.5,3.5-3.6,3.7
		c-0.5,0.1-1.1-0.2-1.6-0.5c-0.6-0.2-1.1-0.2-1.6,0.2c-1.2,0.9-2.4,1.9-3.7,2.9c-1,0.8-1.9,1.7-2.6,2.8c-0.2,0.4-0.4,0.7-0.1,1.2
		c0.6,0.1,1.2,0.3,1.9,0.4c0.5,0.1,0.8-0.1,0.8-0.6c0-0.6,0-1.3,0.6-1.5c0.9-0.3,1.6-0.9,2.7-0.6c2.4,0.5,3.7,3.2,3,5.5
		c-0.2,0.6-0.8,1.2-1.4,1.4c-0.8,0.4-1.8,0.5-2.7,0.6c-0.7,0.1-1.2-0.2-1.6-0.9c-0.4-0.8-1.1-1-2-1.2c-1.5-0.3-2.6,0.4-3.7,1.2
		c-0.3,0.2-0.6,0.4-0.9,0.6c-1.2,0.6-2.2,1.4-3.1,2.3c-0.5,0.5-1,0.8-1.6,1.3c-0.3,0.2-0.6,0.4-0.9,0.7c-1.1,1-2.2,2-3.2,3
		c-0.2,0.2-0.3,0.3-0.4,0.5c0.6,0.4,1.1,0.4,1.7,0.3c0.8-0.1,1.7-0.1,2.6-0.2c0.6,0,1.2-0.1,1.8-0.1c2.1-0.1,4.2-0.3,6.3-0.8
		c0.7-0.2,1.5-0.2,2.2-0.3c0.4,0,0.7-0.1,1.1-0.5c0.4-0.4,0.9-0.7,1.4-1c0.5-0.3,1-0.5,1.4-0.9c0.7-0.6,1.4-1.2,2.2-1.5
		c0.7-0.3,1-0.7,0.9-1.5c-0.1-1.1,0.7-1.9,1.5-2.4c1.9-1.3,4.9-0.7,5.8,1.6c0.4,1.1,0.5,2.1,0.5,3.2c-0.1,1.3-1,2-1.8,2.7
		c-0.3,0.3-1,0.2-1.4,0.1c-0.6-0.2-1.1-0.5-1.7-0.8c-0.3-0.2-0.6-0.4-1-0.2c-1.1,0.6-2.2,1.1-3.4,1.6c-0.1,0.1-0.3,0.1-0.5,0.2
		c0.2,0.3,0.3,0.5,0.4,0.7c1.3,0.1,2.5,0.2,3.7,0.3c0.4,0,0.8-0.1,1.2-0.2c0.8-0.2,1.6-0.2,2.4,0.2c1.3,0.7,1.8,1.9,2,3.2
		c0.1,0.8-0.2,1.7-0.4,2.6c-0.2,0.9-0.9,1.4-1.9,1.5c-1.2,0.1-2.5,0.3-3.6-0.8c-0.2,1.2-0.4,2.2-0.6,3.2c-0.3,1.3-1.5,2.3-2.9,2.5
		c-1.4,0.2-2.7,0-3.9-0.7c-0.6-0.4-1-0.8-1.1-1.5c-0.2-1.8-0.1-3.7,1.5-4.9c0.5-0.4,0.5-0.8,0.3-1.3c-0.1-0.1-0.1-0.3-0.2-0.4
		c-0.3-0.8-0.7-1.1-1.6-1.2c-2.3-0.2-4.6,0.1-6.9,0.1c-1.4,0-2.9,0.4-4.3,0.4c-1.9-0.1-3.8,0.2-5.8,0.3c-0.6,0-1,0.3-1.1,0.9
		c-0.3,1.1-0.5,2.2-0.8,3.3c-0.5,1.9-1.1,3.7-1.5,5.6c-0.8,3.4-1.5,6.8-2.2,10.2c-0.7,3.3-1.3,6.6-2,9.9c0,0.2-0.1,0.5-0.2,0.6
		c-1.1,0.8-0.6,1.9-0.4,2.9c0,0.2,0.1,0.5,0.1,0.7c-0.4,1.4-0.3,2.8-0.1,4.1c0.2,1.6,0.6,3.3,0.9,4.9c0.1,0.6,0.1,1.3,0.2,1.9
		c0.2,1.4,0.7,2.7,1.3,3.9c0.3,0.6,0.4,1.4,0.6,2.1c0.2,0.8,0.4,1.5,0.6,2.4c0.7-1,0.9-2,1.2-3c0.5-1.7,0.8-3.5,1.2-5.3
		c0.2-0.9,0.4-1.8,0.7-2.6c0.4-1.5,0.7-3.1,1.2-4.6c0.4-1.3,0.6-2.6,1.4-3.8c1.3-1.8,2.4-3.8,3.6-5.6c0.2-0.3,0.4-0.5,0.7-0.7
		c1.7-1.2,3.5-2.3,5.7-2.5c0.8-0.1,1.6-0.1,2.5,0.1c1.6,0.5,3.1,0.8,4.7,1.4c0.8,0.3,1.4,0.8,2.1,1.3c1.9,1.2,4,2.4,5.8,3.7
		c1.7,1.2,2.8,3,4,4.7c1.2,1.7,2.4,3.3,3.6,4.9c0.7,0.9,1.3,1.9,2,2.7c0.5,0.6,1.1,1.2,1.6,1.8c1,1.1,1.9,2.3,2.9,3.5
		c1.4-0.2,2.3-1.2,3.1-2.2c0.2-0.3,0.4-0.7,0.7-0.9c1.2-0.7,0.8-1.8,0.5-2.7c-0.6-2-1.3-3.9-1.9-5.9c-0.3-0.9-0.6-1.8-0.5-2.7
		c0-0.3-0.2-0.6-0.3-1c-0.1-0.3-0.3-0.7-0.2-1c0.2-1.2-0.6-1.9-1.5-2.4c-2.3-1.3-3.8-3.3-5-5.5c-0.2-0.3-0.4-0.6-0.6-0.9
		c-1.6-2.6-2.5-5.4-2.8-8.4c-0.1-0.9-0.4-1.8-0.5-2.8c-0.3-2.8,0.2-5.4,1.6-7.8c1.3-2.1,2.7-4.2,4-6.3c0.1-0.2,0.3-0.5,0.4-0.7
		c0.3-1.5,1.3-2.7,1.8-4c0.4-1.1,0.7-2.3,1-3.5c0.1-0.5,0.2-1,0.3-1.6c0-0.6,0-1.1,0-1.7c0-0.4-0.1-0.8-0.1-1.2
		c0-0.9,0.1-1.8,0.1-2.7c0-0.4,0-0.8,0.5-1c0.4-0.2,0.7,0.1,1,0.3c1,0.9,1.7,2,2.3,3.1c1.1,1.9,1.4,4,2.4,5.8c0.9,1.7,1,3.6,1.4,5.4
		c0.1,0.5,0,1.1,0,1.6c0,1.2-0.1,2.5-0.1,3.7c0,1.8,0.1,3.5,0.2,5.3c0,1,0.2,1.9,0.5,2.9c0.5,1.6,0.6,3.3,0.9,5c0.1,0.4,0,0.8,0,1.1
		c-0.2,2.4-0.4,4.7-0.6,7.1c-0.1,1.3-0.9,2.5-1.6,3.6c-0.5,0.8-1,1.6-1.3,2.5c-0.2,0.6-0.4,1.2-0.4,1.9c0,1.8,0.4,3.5,0.8,5.2
		c0.3,1,0.4,2.1,0.6,3.1c0.2,1.3,1,2.2,1.7,3.3c0.1,0.1,0.3,0.2,0.5,0.3c0.7-0.7,0.9-1.6,1.2-2.6c0.2-0.7,0.4-1.5,0.8-2.1
		c1.1-1.6,1-3.2,0.4-4.9c-0.4-1.2-0.9-2.4-1-3.7c-0.2-1.8-0.1-3.5-0.1-5.3c0-1,0.1-2.1,0.4-3c0.7-2.5,1.7-5,2.9-7.3
		c0.5-1,1.2-2,1.8-3c0.1-0.2,0.3-0.4,0.5-0.6c0.5-0.6,1.1-1.2,1.6-1.7c0.3-0.3,0.7-0.8,1.1-1c0.9-0.4,1.5-0.9,1.8-1.8
		c0-0.1,0.3-0.3,0.4-0.3c1.3-0.2,2.3-1,3.5-1.6c0.4-0.2,0.7-0.4,1.1-0.6c0.8-0.4,1.5-0.7,1.4-1.9c0.5,0.1,0.8,0.2,1.1,0.3
		c0.5-0.4,1-0.8,1.6-1.1c1.7-1.1,3.1-2.5,4.3-4c0.9-1.1,1.6-2.2,2.3-3.3c1.2-1.7,2-3.6,2.8-5.5c0.8-1.8,1.7-3.6,2.6-5.4
		c0.3-0.6,0.4-1.3,0.7-1.9c0.3-0.7,0.9-0.7,1.3-0.1c0.4,0.9,0.8,1.8,0.9,2.8c0.1,1.6,0,3.2,0,4.8c0,0.6,0,1.3-0.1,1.9
		c-0.1,2-0.9,3.8-1.6,5.6c-0.3,0.9-0.8,1.8-1.2,2.7c-0.7,1.8-1.3,3.6-2,5.4c-0.6,1.6-1.3,3.1-1.8,4.8c-0.4,1.4-0.6,2.8-0.7,4.2
		c-0.2,1.8-0.1,3.5-0.2,5.3c-0.1,1.4-0.5,2.8-0.6,4.1c-0.2,2.2-1.2,3.9-2.4,5.7c-0.1,0.1-0.1,0.2-0.2,0.3c-0.6,1-1.3,1.9-2.1,2.8
		c-2.2,2.4-4.8,4.4-7.4,6.3c-1.8,1.3-3.8,2.3-6,2.9c-1,0.3-2.1,0.7-3.1,1.1c-0.5,0.2-0.8,0.6-0.8,1.1c0,0.6-0.3,1.1-0.7,1.7
		c-0.5,0.8-0.9,1.6-1.4,2.6c0.8,0.2,1.4,0.4,2.1,0.5c1.9,0.3,3.7,0.6,5.6,0.9c1.3,0.2,2.5,0.6,3.8,0.9c0.2,0,0.4,0.1,0.5,0.2
		c2.9,0.5,5.3,2,7.9,3.2c2.7,1.2,4.6,3.3,6.2,5.8c0.9,1.5,2.1,2.8,3.1,4.2c0.8,1.1,1.7,2.2,2.2,3.4c0.5,1,0.9,2.1,1.5,3
		c0.1,0.2,0,0.4,0,0.6c-0.6,0.4-0.9,0-1.3-0.2c-2.4-1.4-4.8-3-7.4-4c-0.9-0.4-1.9-0.5-2.8-0.9c-1.2-0.6-2.6-0.9-3.9-1.1
		c-1.1-0.2-2.1-0.6-3.3-0.8c-0.8-0.1-1.5-0.6-2.3-0.9c-1.6-0.7-2.8-2.1-4.2-3.2c-2.6-2-4.7-4.5-6.7-7.1c-0.4-0.5-0.8-0.8-1.4-1
		c-1.2-0.4-2.3-0.9-3.5-1.4c-0.5-0.2-0.8-0.2-1.3,0.1c-0.6,0.4-1.2,0.6-1.8,0.9c-0.8,0.4-1.6,0.9-2.4,1.3c-0.3,0.2-0.6,0.3-1,0.5
		c0.4,0.5,0.7,0.9,1,1.3c0.7,1,1.3,1.9,1.9,2.9c1.3,2,2.8,3.9,4,5.9c0.8,1.4,1.4,2.9,2,4.4c0.8,2.1,1.6,4.2,2.3,6.3
		c0.7,2.1,1.7,4.2,2.2,6.4c0.4,1.6,0.8,3.3,1,5c0.3,2.6,0.4,5.2-0.7,7.7c-0.4,0.9-1,1.9-1.5,2.8c-0.2,0.4-0.4,0.8-0.6,1.2
		c-0.2,0.6-0.5,1.2-0.7,1.8c-0.3,0.8-0.6,1.6-1,2.4c-0.6,1.1-1.3,2.2-1.9,3.2c-0.3,0.5-0.7,1-0.9,1.6c-1.6,3-4,4.8-7.1,6
		c-2.2,0.9-4.5,1.3-6.9,1.1c-2.5-0.2-5-0.7-7.1-2.2c-1-0.7-2.1-1.2-3.1-1.9c-1-0.6-2-1.4-3.1-1.9c0.2,0.2,0.4,0.5,0.6,0.7
		c1.3,1.2,2.5,2.4,3.8,3.5c0.5,0.4,1.1,0.6,1.6,1c0.6,0.4,1.2,0.9,1.8,1.4c0.1,0.1,0.3,0.1,0.4,0.2c2,0.8,3.5,2.2,4.6,4
		c0.3,0.6,0.4,1.3,1,1.7c1.2-0.6,2.3-1.3,3.5-1.8c0.5-0.2,1.1-0.3,1.6-0.4c0.8-0.1,1.6-0.4,2.3-0.3c1.7,0.2,3.1-0.3,4.3-1.5
		c0,0,0.1,0,0.1-0.1c1.8-0.7,3.5-1.8,5.5-1.8c0.8,0,1.5-0.1,2-0.8c0.3-0.4,0.8-0.3,0.9,0.1c0.2,0.6,0.6,0.6,1.1,0.7
		c0.4,0,0.8,0.2,1.2,0.3c0.7,0.1,1.3,0.3,1.9-0.2c0.6-0.6,0.9-0.4,1.1,0.5c0,0.1,0.1,0.2,0.1,0.2c1.5,0.8,3,1.6,4.5,2.3
		c0.2,0.1,0.4,0.1,0.5,0.1c0.6,0,0.8,0.3,0.8,0.9c0,0.7,0.3,1.3,0.8,1.8c0.4,0.5,0.7,1.2,1.1,1.8c0.3,0,0.6,0.1,1,0.1
		c0,0.3,0.1,0.6,0,0.7c-0.7,0.9-0.2,1.9-0.3,2.8c0,0.1,0.1,0.3,0.1,0.4c-0.3,1.8-0.6,3.6-1,5.4c-0.2,0.7-0.5,1.4-0.9,2.3
		c-0.4-0.2-0.8-0.2-1.1-0.5c-0.5-0.5-0.8-1-1.2-1.6c-1.5-2-3.1-3.8-5.4-4.9c-0.8-0.4-1.7-0.9-2.6-1c-0.7,0-1.3-0.3-2-0.5
		c-0.5-0.1-1-0.2-1.4-0.1c-1.7,0.1-3.5,0.3-5.2,0.2c-1.9,0-3.6-0.6-4.7-2.2c-0.4-0.5-0.8-1-1.2-1.5c-0.2-0.2-0.5-0.3-0.8-0.3
		c-1.1,0.1-2.3,0.2-3.3,0.5c-0.6,0.2-1.1,0.6-1.5,1.1c-0.2,0.2-0.2,0.8-0.1,1.2c0.3,1.2,0.6,2.5,1,3.7c0.2,0.5,0.4,1.1,0.7,1.6
		c0.4,0.7,1,0.8,1.7,0.4c0.9-0.4,1.7-0.9,2.6-1.4c1.4-0.9,3.1-1.1,4.7-1.4c1-0.3,2.2,0.5,2.7,1.4c0.5,1,0.6,2,0.7,3.2
		c0.1,1.8,0.1,3.7,1,5.5c0.2-0.2,0.3-0.3,0.3-0.4c0.8-1.3,1.9-2.3,3.1-3.3c0.7-0.6,1.6-0.7,2.5-0.5c0.5,0.1,1,0.2,1.6,0.2
		c1,0,1.9,0.4,2.6,1.2c0.9,1.2,1.8,2.3,2.7,3.5c0.5,0.7,1,1.4,1.4,2.3c0.9,2.3,2.7,4,4,6c0.9,1.4,1.9,2.7,2.5,4.3
		c0.6,1.6,1.2,3.3,0.6,5.1c-0.3,0.9-0.4,1.9-0.6,2.9c-0.1,0.6-0.5,0.8-1,1c-0.8,0.2-1.5,0.4-2.3,0.3c-0.6-0.1-1.3,0-2,0.2
		c0.4,0.2,0.9,0.5,1.3,0.7c1.1,0.5,1.9,1.1,2.5,2.2c0.3,0.5,0.8,0.8,1.3,1.2c1.6,1.3,1.8,2.7,0.7,4.4c-0.4,0.7-0.8,1.5-1.1,2.2
		c-0.4,1-1,1.9-1.6,2.7c-1.3,1.7-3.1,2.7-4.9,3.6c-1.2,0.6-2.3,1.5-3.6,2.2c-1.2,0.7-2.2,1.5-2.9,2.8c-0.5,0.9-1.4,1.4-2.5,1.7
		c-1,0.2-2,0.5-3,0.6c-1.3,0.1-2.6,0.2-3.8-0.5c-0.7-0.4-1.4-0.7-2.1-1c-0.6-0.2-0.9-0.7-1-1.3c-0.7-2.5-1.3-5.1-0.9-7.7
		c0.1-0.5,0-0.9-0.2-1.4c-0.6,1.4-1.2,2.8-1.8,4.2c-0.1,0.3-0.3,0.6-0.4,0.9c-0.4,0.9-0.9,1.7-1.3,2.6c-0.9,2-3.7,2.3-5.4,1.4
		c-1.8-1-3.2-2.5-4.4-4.2c-1.4-1.8-2.6-3.8-3.3-6c-0.4-1.1-1-2.2-1.5-3.3c-0.3-0.7-0.5-1.4-0.7-2.2c-0.9-2.9-1.8-5.8-2.3-8.9
		c-0.1-0.8-0.1-1.7-0.2-2.5c0-0.5,0-1,0-1.5c0-0.2,0-0.4,0-0.6c0.6-1.4,0.8-3.1,2.1-4.2c0.9-0.7,2-1.1,2.9-1.6
		c0.3-0.1,0.6-0.2,1.1-0.4c-0.5-0.8-1-1.5-1.4-2.2c-0.7-1.1-1.2-2.2-1.1-3.5c0.1-1.4,0.5-2.9,1.4-4c0.6-0.8,1.7-1.2,2.6-1.7
		c1.1-0.6,2.2-1,3.3-1.5c0.4-0.2,0.7-0.6,1.1-0.9c-0.2-0.3-0.3-0.5-0.5-0.7c-0.4-0.4-0.8-0.8-1.2-1.2c-0.7-0.6-1-1.4-1.1-2.4
		c0-1-0.1-2-0.3-3c-0.3-1.1-0.6-2.2-1.1-3.2c-0.8-1.4-1.6-2.8-3.2-3.5c-0.5-0.3-0.9-0.8-1.4-1.1c-0.3-0.2-0.6-0.4-1-0.6
		c0.3,0.5,0.5,0.9,0.8,1.4c0.4,1,0.9,1.9,1.3,2.9c0.5,1.4,0,2.6-0.7,3.7c-0.1,0.2-0.3,0.4-0.4,0.6c-0.4,1.3-1.6,1.9-2.5,2.8
		c-1.3,1.3-2.8,2.4-4.2,3.6c-0.9,0.8-1.6,1.7-2.5,2.4c-1.2,0.9-2.6,1.7-3.8,2.6c-0.5,0.3-0.9,0.7-1.4,0.9c-2.4,1-4.8,2.1-7.2,2.9
		c-2.4,0.8-4.8,1.3-7.2,1.9c-1.2,0.3-2.5,0.7-3.7,1c0,0.3-0.1,0.5,0,0.7c0.4,1,0.3,2,0.2,3c-0.2,1.3-0.2,2.6-0.4,3.8
		c-0.3,1.8-0.8,3.6-1.1,5.4c-0.2,1-0.3,2.1-0.4,3.1c-0.1,0.8-0.2,1.6-0.3,2.3c-0.1,0.9,0,1.8,0,2.9c0.4-0.3,0.7-0.4,0.8-0.6
		c0.3-0.5,0.6-0.8,1.2-1c0.2-0.1,0.3-0.3,0.4-0.5c0.5-1.2,1.2-2.3,2.3-3c0.4-0.2,0.2-0.6,0.1-0.9c-0.2-0.7-0.3-1.3-0.3-2
		c0-0.3,0.1-0.7,0.3-0.8c0.8-0.4,1.7-0.9,2.6-1.2c1.3-0.4,3.3,0.6,4,2.1c0.3,0.7,0.7,1.3,0.6,2.1c0,0.5-0.1,1-0.6,1.3
		c-0.8,0.6-1.6,1.3-2.7,1c-0.7-0.2-1.3,0.1-1.7,0.8c-0.3,0.6-0.9,1-1.3,1.5c1.2,0.1,2.5,0.3,3.7,0.4c0.6,0,1.1-0.2,1.5-0.7
		c0.4-0.5,0.8-1.1,1.4-1.5c0.7-0.4,1.5-0.8,2.3-0.7c0.9,0.1,1.7,0.6,2.2,1.5c0.4,0.8,0.7,1.6,1,2.4c0.2,0.6,0.1,1.2-0.5,1.6
		c-0.6,0.5-1,1.1-1.6,1.6c-1.8,1.6-3.3,1.2-4.7-0.3c-0.4-0.5-0.8-0.7-1.4-0.7c-1.4,0.1-2.9,0-4.3,0.1c-0.5,0-1.1,0-1.4,0.6
		c0.8,0.4,1.5,0.8,2.2,1.1c0.2,0.1,0.6,0,0.9-0.1c1.8-0.5,2.1-0.4,3.3,1c0.3,0.4,0.7,0.9,0.9,1.4c0.5,0.9,0.1,1.7-0.5,2.3
		c-1.1,1.1-2.4,1.7-4,1.5c-0.8-0.1-1.5-0.5-1.9-1.3c-0.2-0.4-0.5-0.9-0.6-1.3c-0.2-0.8-0.8-0.9-1.5-1c-0.6,0-1.1-0.1-1.8-0.1
		c-0.1,0.5-0.1,1-0.2,1.5c-0.2,1.2-0.4,2.3-0.5,3.5c-0.1,1.1,0.1,2.2,0.1,3.3c0,0.5,0.2,1,0.1,1.5c-0.2,1.5,0.4,2.6,1.2,3.7
		c0.7,1,1.4,2.1,2.1,3.1c0.2,0.3,0.5,0.8,1,0.6c0.5-0.2,1.1-0.4,1.2-1c0.3-1.9,1.8-2.9,3.2-3.7c1.3-0.8,3.8,0,4.5,2
		c0.4,1,0.6,2,0.8,3.1c0.1,0.8-0.2,1.5-0.9,2c-0.8,0.6-1.8,1-2.8,1.1c-0.4,0.1-0.9-0.2-1.2-0.5c-1.3-0.9-2.6-0.7-4-0.2
		c-0.3,0.1-0.6,0.3-1,0.4c0.1,0.2,0.1,0.5,0.3,0.6c0.6,0.7,1.3,1.3,1.9,1.9c0.1,0.1,0.2,0.2,0.4,0.2c0.4,0.1,1,0,1.2,0.3
		c0.9,1.1,1.9,2.2,2.6,3.4c0.7,1.4-0.3,3.1-2,3.7c-0.7,0.2-1.4,0.3-2.1,0.4c-1.2,0.1-2.2-0.3-2.8-1.5c-0.2-0.4-0.4-0.8-0.6-1.2
		c-0.3-0.8-0.5-1.7,0-2.5c0.2-0.4,0.3-0.8,0-1.2c-0.5-0.8-0.9-1.7-1.4-2.5c-0.5-0.8-0.9-0.8-1.5-0.1c-0.5,0.5-0.7,1.1-0.8,1.8
		c-0.1,1.7-1.3,2.5-3,2.1c-1.7-0.4-2.4-1.6-2.9-3.1c-0.3-0.8,0-1.5,0.5-2.1c0.5-0.5,1-1,1.9-0.8c0.8,0.2,1.7,0.1,2.3-0.8
		c0.2-0.2,0.5-0.4,0.8-0.6c-0.5-1.5-1.3-2.9-2.3-4.4c-1.2,2.4-2.8,4.4-4.2,6.6c-1.3,2.2-3,4-4.4,6c0.6,1.6,1.1,2,2.7,2
		c1.9-0.1,3.3,1.9,3.1,3.8c0,0.2-0.1,0.4-0.2,0.5c-0.9,1.4-3.1,2.3-4.8,1.9c-0.4-0.1-0.7-0.2-1.1-0.3c-0.8-0.3-1.3-1.4-1-2.3
		c0.4-1.1,0.2-1.6-0.7-2.3c-0.4-0.3-0.7-0.2-0.9,0.1c-0.5,0.7-0.9,1.4-1.4,2.1c-0.3,0.4-0.2,0.8,0,1.2c0.3,0.7,0.7,1.3,1,2
		c0.4,1,0.3,1.8-0.5,2.6c-0.3,0.3-0.6,0.6-0.8,0.9c-0.6,0.7-1.3,0.8-2.2,0.5c-1.7-0.6-2.2-1-3.3-2.7c-0.4-0.5-0.8-0.9-0.9-1.6
		c-0.1-0.8,0.1-1.5,0.6-2.1c0.7-0.8,1.5-1.4,2.3-2.1c0.3-0.2,0.6-0.4,0.9-0.5c0.7-0.3,0.7-0.3,0.9-1.2c-0.8-0.2-1.5,0-2.1,0.6
		c-1,1.1-3.2,1.5-4.3,0.7c-0.7-0.5-1-1.4-1.1-2.3c-0.1-0.6,0.1-1.2,0.3-1.8c0.3-1,1.1-1.7,2.1-2.1c0.5-0.2,1-0.1,1.3,0.3
		c0.6,0.8,1.4,0.9,2.2,0.8c1-0.1,2-0.4,3-0.4c0.6,0,0.9-0.3,1.2-0.7c0.8-1.4,2-2.5,2.8-4c0.7-1.2,1.6-2.3,2.6-3.3
		c0.4-0.4,0.7-0.8,1.2-1.2c0.6-0.5,0.9-1.3,1.2-2c0.4-0.9,1.1-1.7,1.6-2.6c1.1-2,1.7-4.2,2-6.5c0.2-1.9,0.5-3.8,0.7-5.7
		c0.1-1.1-0.1-2.1-0.4-3.1c-0.2-0.8-0.2-1.7-0.3-2.6c-0.1-1.7-0.3-3.4-0.4-5.2c-0.9,0.1-1.2,0.9-1.7,1.3c-0.6,0.5-0.8,1.1-0.6,1.9
		c0.5,2-0.4,3.7-1.5,5.3c-0.9,1.3-3.1,1.2-4.2,0c-1.2-1.4-1.4-3.3-0.6-5c0.2-0.3,0.3-0.7,0.5-1.2c0.8-0.1,1.6-0.3,2.7-0.5
		c0.2-0.6,0.4-1.4,0.7-2.4c-0.6,0.1-1.1,0-1.5,0.2c-1.4,0.7-2.8,1.4-4.3,2.1c-0.5,0.3-0.7,0.6-0.7,1.2c0.1,3-2.3,5.3-5.5,4.9
		c-0.8-0.1-1.5-0.6-1.8-1.4c-0.8-1.8-0.9-3.7,0.1-5.4c0.3-0.6,0.9-1.2,1.4-1.7c0.5-0.4,1.1-0.8,1.7-0.3c0.1,0,0.1,0,0.2,0.1
		c1.3,0.3,1.8,0.3,2.5-1.3c-0.4-0.1-0.9-0.1-1.3-0.2c-0.6-0.1-1.2-0.3-1.8-0.5c-0.9-0.2-1.4-1.5-0.9-2.4c0.6-1,1.2-2,1.9-3
		c0.1-0.1,0.2-0.2,0.3-0.2c1-0.1,1.9-0.3,2.9,0.3c0.2,0.1,0.5,0.4,0.7,0.3c1.7-0.3,3.4,0.2,5.1-0.2c0.8-0.2,1.7-0.1,2.5-0.4
		c0.3-0.1,0.8,0,1.2,0.2c0.8,0.3,1.5,0.6,2.3,1c0.3-2.8,0.8-5.4,2.1-8c-0.4,0-0.8-0.1-1.1,0c-3.4,0.7-6.7,0.1-10-0.5
		c-1.6-0.3-3-1.2-4.6-1.7c-3-0.9-4.6-3.1-5.3-6.1c0,0,0-0.1,0-0.1c0-2.4-0.5-4.8-0.1-7.2c0.1-0.7,0.3-1.5,0.5-2.2
		c0.3-1.5,0.7-3.1,1-4.6c0.2-1.1,0.3-2.3,0.6-3.5c0.2-1.4,0.5-2.8,0.8-4.4c-0.9,0.7-1.4,1.5-1.9,2.3c-1.3,2.1-2.6,4.3-3.8,6.4
		c-0.4,0.8-0.7,1.6-1.2,2.4c-0.8,1.5-1.5,3-2.5,4.3c-1.6,2.1-3.3,4.2-5.4,5.9c-0.9,0.7-2,1.3-3.1,1.9c-1.1,0.7-2.3,1.2-3.5,1.9
		c-1.1,0.6-2.3,1.1-3.6,1c-0.6,0-1.2,0.2-1.8,0.1c-1.5-0.1-2.9-0.5-4.2-1.2c-0.2-0.1-0.3-0.1-0.3-0.1c-1.1,0.9-2,1.7-3.1,2.7
		c1.7-0.4,2.5-2,4.1-2c0.2,0.7,0,1-0.5,1.5c-1.4,1.2-3.1,1.7-4.6,2.7c-1.5,1-3,2-4.4,3c-1.8,1.2-3.7,2.5-5.5,3.7
		c-0.2,0.1-0.4,0.3-0.7,0.5c0.6,1,1.1,1.7,1.6,2.5c0.1,0.2,0.3,0.3,0.3,0.5c0.3,1.6,1.6,2.6,2.5,3.8c0.5,0.7,1.3,1.1,2.1,1.2
		c0.4,0.1,0.8,0.3,1.1,0.5c1.2,0.9,2.1,2,3,3.1c1.8,2.2,2.7,4.9,3.7,7.5c0.4,0.9,0.6,1.9,0.8,2.8c0.3,1.4,0.7,2.8,0.6,4.2
		c-0.1,2.2,0.2,4.4,0.2,6.7c0,1.1-0.1,2.2-0.3,3.3c-0.3,2.1-0.1,4.1,0.2,6.1c0.3,2,0.5,4,0.4,6c-0.1,1.4,0.6,2.6,1,3.9
		c0.5,1.8,1.6,3.4,1.6,5.4c0,0.5,0.3,0.9,0.4,1.4c0.3,1.3,0.1,2.7,0,4c-0.1,0.9-0.3,1.8-0.7,2.7c-0.4,0.9-0.3,1.9-0.5,2.9
		c0,0.2,0,0.5-0.1,0.7c-0.1,0.2-0.4,0.4-0.6,0.4c-0.4,0-1.3-0.9-1.4-1.3c0-2.1-1.2-3.8-1.9-5.6c-0.2-0.6-0.5-1.2-0.9-1.8
		c-0.6-1.2-1.3-2.4-2-3.5c-0.5-0.9-1-1.7-1.5-2.5c-1.2-2-2.4-4-3.7-5.8c-0.7-1-0.9-2.1-1.6-3.1c-0.6-0.9-0.8-2.1-1.3-3.1
		c-0.3-0.7-0.7-1.4-1-2c0-0.1-0.1-0.1-0.1-0.2c-0.7-1.8-1.7-3.5-1.9-5.5c-0.1-0.6-0.2-1-0.8-1.3c0.3-0.9-0.1-1.7-0.3-2.6
		c-0.4-1.4-0.8-2.8-1-4.3c-0.3-2.8-0.4-5.6,0.1-8.5c0.2-1.4,0.3-2.8,0.6-4.1c0.1-0.8,0.6-1.5,0.7-2.2c0.2-1.1,0.2-2.3,0.2-3.4
		c0-0.8-0.4-1.4-0.8-2.1c-0.7-1.2-1.3-2.6-1.9-3.8c-0.4-0.8-0.7-1-1.6-0.7c-1.5,0.5-2.9,1-4.4,1.5c-0.1,0-0.2,0.1-0.3,0.1
		c-1.4-0.2-2,0.9-2.9,1.6c-1.3,1.2-2.4,2.6-3.9,3.6c-1.5,1-2.8,2.3-4.1,3.6c-0.2,0.2-0.2,0.5-0.2,0.8c0.4,3.6-1,6.7-2.9,9.7
		c-0.8,1.2-1.6,2.3-2.5,3.5c-0.1,0.1-0.2,0.3-0.3,0.4c-1.5,1.3-2.7,2.9-4,4.3c-0.9,1-1.7,2-2.7,2.8c-1.2,1.1-2.4,2.2-3.5,3.4
		c-1.4,1.5-2.8,3.1-4.2,4.8c-1.2,1.5-2.4,3-3.5,4.6c-0.7,1-1.4,2.1-2.1,3.1c-1.2,1.5-2.4,3-4,4.1c-0.1,0-0.1,0.1-0.2,0.1
		c-2.3,2.1-5.1,2.5-8,2.5c-0.6,0-1.1,0-1.6,0.4c-0.3,0.3-0.8,0.4-1.2,0.5c-0.7,0.1-1.2-0.3-1.1-1.1c0.4-2.3,0.9-4.6,1.3-6.9
		c0.2-1,0.6-1.9,0.9-2.9c0.1-0.3,0.1-0.7,0.2-1c0.1-0.5,0.3-1.1,0.4-1.6c0-0.1,0.1-0.3,0.1-0.4c0.2-2.5,1.3-4.8,2-7.2
		c0.6-2.1,1.5-4,2.8-5.8c1.2-1.8,2.3-3.6,3.5-5.4c0.4-0.7,1.1-1.2,1.6-1.8c0.9-1,1.8-2.1,2.8-3.1c0.9-1,1.9-1.8,3.2-2.3
		c0.8-0.4,1.4-1.1,2.2-1.6c3.4-2.2,6.9-4.3,10.9-5.5c1.6-0.5,3.2-1.1,4.9-1.2c2.3,0,4-1.3,5.7-2.7c0.2-0.1,0.3-0.4,0.5-0.4
		c1.1-0.4,1.9-1.2,2.8-1.9c0.9-0.8,1.8-1.7,2.6-2.6C48.5,185.2,48.5,185.1,48.6,184.8z M21,79.1c-1.6-0.3-5.3-0.2-6.3,0.3
		c0.1,0.1,0.2,0.2,0.2,0.2c0.7,0,1.4,0,2.1,0C18.4,79.5,19.7,79.3,21,79.1c0.4,0,0.8,0,1.1,0c0.9-0.1,1.8-0.4,2.7-0.5
		c1.6-0.2,1.8,0,1.1,1.6c-0.3,0.7-0.3,1.5-0.1,2.2c0.6-0.9,1-1.8,1.6-2.4c0.8-0.7,1-1.6,1.4-2.6c-0.4,0-0.7-0.2-0.9,0
		c-0.8,0.5-1.6,0.3-2.4,0.2c-1.5-0.2-2.8-0.6-3.9-1.8c-0.8-0.9-1.9-1.4-2.9-2c-0.3,0.7-0.3,0.9,0.1,1.2c0.7,0.6,1.4,1.2,2.2,1.8
		C22,77.6,22,78,21,79C21,79,21,79.1,21,79.1z M115.2,128.9c-0.4-0.2-0.6-0.4-0.9-0.6c-2.6-1.2-4-3.3-4.5-6.1
		c-0.1-0.6-0.3-1.2-0.4-1.8c-0.1-0.9-0.3-1.7-0.3-2.6c0-0.8-0.1-1.5-0.6-2.2c-1-1.4-2-2.8-2.7-4.5c-0.4-0.8-0.7-1.7-0.7-2.6
		c0-0.3,0-0.5,0-0.7c-0.2-0.1-0.3-0.2-0.5-0.2c-2.8-0.7-5.2-2.4-7.9-3.4c-1-0.4-2-0.8-3-1c-2.5-0.5-5-0.8-7.5-1.2
		c-2.3-0.4-4.6-0.7-7-0.8c-0.9,0-1.7-0.2-2.6,0.3c-0.1,0.1-0.4,0.1-0.5,0c-0.8-0.3-1.6-0.1-2.3,0.3c-0.4,0.2-0.8,0.5-1.3,0.7
		c-1.8,0.6-3.6,1.3-5.5,1.8c-1.4,0.4-2.9,0.6-4.3,1.1c-1.3,0.4-2.6,0.9-3.7,1.6c-1,0.7-2,1.6-2.6,2.6c-0.9,1.7-1.6,3.6-1.2,5.6
		c0.1,0.4,0,0.8-0.1,1.1c-0.3,1.1-0.7,2.2-1,3.3c-0.2,0.7-0.6,1.4-0.6,2.3c-0.1,1.7,0.4,3.4,1,4.9c0.5,1.4,1.2,2.8,1.7,4.2
		c0.4,1,0.5,1.9,0.5,3c0,1.2,0.2,2.3,0.4,3.5c0.2,1.3,0.7,2.6,1.8,3.5c0.8,0.7,1.6,1.3,2.2,2.1c1,1.4,2,2.8,2.9,4.3
		c0.4,0.6,0.7,1.2,0.9,1.9c0.3,1.5,0.6,2.9,2,3.7c0.1,0.1,0.2,0.3,0.3,0.4c0.4,0.4,0.7,0.7,1.1,1.1c0.3,0.3,0.6,0.6,0.9,0.8
		c0.2,0.2,0.4,0.4,0.7,0.6c1.6,0.7,3.1,1.5,4.7,2.2c2.3,1,3.8,2.5,4.4,5c0.5,1.9,1.4,3.5,3.7,3.8c0.8,0.1,1.6,0.3,2.3,0.3
		c2.3,0.2,4.4-0.5,6.3-1.8c1.5-1.1,2.9-2.3,4.5-3.4c1.5-1.1,2.6-2.5,3.4-4.2c1.2-2.4,2.5-4.7,3.8-7c0.3-0.5,0.6-1,0.9-1.4
		c0.9-1.4,1.8-2.7,2.7-4c0.6-1,1.3-2,1.7-3c0.7-1.6,1.2-3.2,1.8-4.8c0.4-0.9,0.8-1.9,1.3-2.8c0.6-1.1,1.2-2.2,1.5-3.4
		c0.1-0.5,0.4-0.9,0.7-1.3C114.3,130.1,114.7,129.5,115.2,128.9z M137.1,124.3c0.7,0.5,1.4,1,2.1,1.5c0.4,0.3,0.7,0.5,1.1,0.8
		c1.5,1.1,2.9,2.1,4.4,3.2c0.9,0.7,1.8,1.4,2.7,2c2.2,1.5,4.5,3,6.7,4.6c1.5,1.1,3,2.2,4.5,3.3c0.4,0.3,0.9,0.7,1.5,0.4
		c0.2-0.1,0.7,0.1,1,0.2c1.6,0.6,3.2,1.3,4.8,1.8c1.6,0.5,3.3,0.7,5,0.3c0.9-0.2,1.9-0.6,2.8-1c0.9-0.4,1.8-0.8,2.6-1.3
		c1-0.6,1.9-1.4,2.4-2.6c0.3-0.7,1-1.3,1.1-2.1c0.1-0.9,0.5-1.7,0.7-2.6c0.3-1.5,1-2.7,1.9-3.8c0.8-1.2,1.7-2.3,2.5-3.4
		c1.1-1.6,1.8-3.4,2-5.3c0.2-1.8,0-3.4-1.5-4.7c-1-0.9-1.9-2-2.9-3c-0.7-0.7-1-1.7-1.2-2.6c-0.6-2.1-1.3-4.1-1.4-6.3
		c0-0.9-0.2-1.8-0.5-2.6c-0.3-1-0.8-2-1.2-2.9c-0.5-1.2-1.1-2.3-2.1-3.1c-1.8-1.5-3.8-2.9-5.6-4.4c-1.2-1-2.1-2.3-2.6-3.8
		c-0.5-1.4-0.6-2.9-0.9-4.3c-0.3-1.5-0.8-2.8-1.7-4c-0.8-1-1.6-1.9-2.3-2.9c-0.9-1.3-2-2.3-3.4-3.1c-2.2-1.2-4.4-2.5-6-4.5
		c-0.5-0.6-1.2-1.1-1.9-1.6c-1.5-1-3.3-1.6-5.1-2c-1.8-0.3-3.2,0.2-4.3,1.6c-0.7,0.8-1.3,1.6-2.1,2.2c-2.1,1.6-3,3.8-3.7,6.2
		c-0.5,1.4-0.5,3.1-1.9,4.1c-0.1,0.1-0.1,0.3-0.2,0.5c-0.1,0.5-0.3,1-0.4,1.5c-0.6,2.1-1.1,4.2-1.7,6.3c-0.3,1.4-0.5,2.8-0.8,4.2
		c-0.2,1-0.4,2-0.7,3c-0.3,1-0.6,2-0.9,3c-0.2,0.6,0,1.2,0.6,1.6c0.9,0.6,1.8,1.2,2.7,1.8c1.4,0.9,2.8,1.7,4.3,2.5
		c0.8,0.4,1.3,1,1.8,1.7c0.9,1.4,1.6,2.8,1.9,4.4c0.3,1.3,0.4,2.5-0.3,3.7c-0.9,1.5-1.6,3.1-2.6,4.6c-0.4,0.7-0.5,1.2-0.3,1.9
		c0.1,0.7,0.2,1.5,0,2.2C137.8,122.4,137.4,123.2,137.1,124.3z M125.6,70.3c0-0.5,0-0.9,0-1.4c-0.2-2,0.2-4-0.8-5.9
		c-0.4-0.8-0.8-1.6-1.1-2.4c-0.3-0.9-0.8-1.6-1.5-2.2c-0.2-0.2-0.3-0.4-0.5-0.6c-0.7-0.8-1.2-1.6-2.1-2.2c-1.2-0.9-2.5-1.6-4-1.9
		c-1.7-0.3-3.5-0.5-5.2,0.1c-1.5,0.5-2.6,1.6-3.7,2.7c-1.4,1.5-2.6,3.3-4.7,3.9c-0.2,0.1-0.5,0.2-0.7,0.3c-1,0.6-2.1,1-2.9,1.9
		c-0.6,0.7-1.1,1.5-1.6,2.2c-0.8,1.1-1.4,2.3-2.4,3.2c-1.2,1-2.7,1.7-4.1,2.4c-1.3,0.6-2.6,1.3-3.7,2.1c-0.4,0.3-0.8,0.6-1,1
		c-0.9,1.5-1.9,3-2.3,4.8c-0.1,0.3-0.3,0.5-0.5,0.8c-0.7,0.8-1.5,1.2-2.5,1.4c-1.3,0.2-2.6,0.4-3.8,0.8c-1.9,0.6-3.4,2.2-3.2,4.4
		c0.1,0.9,0.1,1.7,0.3,2.6c0.2,0.9,0.4,1.9,1.1,2.7c1.7,1.9,3.7,3.4,6,4.6c0.9,0.5,2.2,0.8,2.4,2.1c0,0.2,0.4,0.4,0.6,0.5
		c1.2,0.6,2.5,1.1,3.7,1.6c1.3,0.5,2.6,1,3.9,1.5c0.8,0.3,1.5,0.6,2.3,0.8c3.1,0.8,6.2,1.8,9,3.4c0.8,0.5,1.7,0.7,2.6,1
		c0.6,0.2,1.3,0,1.6-0.5c0.8-1,1.6-2,2.7-2.7c0.2-0.1,0.4-0.4,0.5-0.6c1.5-1.7,3.1-3.4,5.1-4.6c1-0.6,1.9-1.4,2.5-2.5
		c0.1-0.2,0.3-0.4,0.5-0.6c1.1-0.8,2.2-1.4,3.6-1.6c1.1-0.1,2.2-0.4,3.3,0c0.4,0.2,0.8,0.4,1.2,0.6c0.4,0.2,0.7,0.1,1-0.2
		c0.6-0.7,1.3-1.4,1.9-2.1c0.5-0.6,0.8-1.2,0.4-1.9c-0.2-0.4-0.2-0.9-0.3-1.3c-0.3-1.6-0.5-3.2-1-4.7c-0.7-2.1-1.6-4.1-1.7-6.4
		c0-1.2-0.2-2.3-0.6-3.5C125.7,72.6,125.7,71.5,125.6,70.3z M116.6,129.7c-1.3,1.1-2.4,2.3-2.9,4c-0.1,0.4-0.3,0.8-0.5,1.1
		c-0.5,1-1,2-1.4,3c-0.5,1.3-0.9,2.6-1.4,3.9c-0.2,0.7-0.5,1.4-0.6,2.1c-0.4,1.8-0.6,3.6-1,5.5c-0.4,2.4-1,4.8-0.9,7.3
		c0,0.9,0,1.9,0.1,2.8c0.3,1.3,0.7,2.5,1.1,3.8c0.7,2.4,2.2,4.3,4.4,5.5c0.6,0.3,1.1,0.8,1.6,1.2c1.4,1.2,3,2,4.9,1.9
		c2.5-0.1,4.9-0.8,7.3-1.6c1.5-0.5,3.1-1,4.6-1.5c0.8-0.3,1.7-0.6,2.5-0.6c3.2-0.3,6.2-1.1,9.1-2.7c0.9-0.5,1.6-1,1.9-2
		c0-0.1,0.1-0.3,0.2-0.4c0.9-0.9,1.6-2,2.8-2.6c1.8-1,3.5-2.1,5.5-2.7c1.4-0.4,2.8-1,4.1-1.6c1.1-0.5,1.7-1.4,1.9-2.5
		c0-0.3,0.1-0.6,0.2-0.9c0.2-0.8,0-1.5-0.5-2.2c-1.1-1.4-2.1-2.9-3.1-4.3c-1.8-2.6-4.1-4.8-6.2-7.2c-0.9-1.1-1.8-2.2-2.7-3.4
		c-0.2-0.2-0.2-0.5-0.3-0.7c-0.1-0.2-0.2-0.4-0.3-0.6c-1.1-1.9-2.9-3.2-4.4-4.6c-0.6-0.5-1.2-1-1.9-1.5c-1.3-0.9-2.6-1.8-3.9-2.7
		c-0.4-0.3-0.8-0.3-1.3-0.1c-1.5,0.4-3.1,0.6-4.6,1c-2.1,0.5-4,1.2-4.6,3.6c-0.2,0.8-0.7,1.4-1.5,1.7c-1,0.3-1.9,0.8-2.9,0.8
		c-1.9,0-3.7-0.3-4.6-2.4C116.9,130,116.8,129.9,116.6,129.7z M76.6,8.3c0.2,0.5,0.4,1,0.6,1.5c0.7,1.5,1.5,3,2.2,4.5
		c0.8,1.6,1.6,3.2,2.5,4.8c0.5,0.9,1.1,1.6,1.5,2.5c0.6,1.2,1.2,2.5,1.8,3.8c1.2,2.4,2.3,4.9,3,7.4c0.8,2.9,1.4,5.9,1.8,9
		c0.1,1.4,0.1,2.9,0.2,4.3c0.1,1.1,0.2,2.3,0.6,3.3c0.6,1.2,1.5,2.2,2.3,3.2c0.9,1,1.9,1.9,2.9,2.9c0.4-0.1,0.8-0.3,1.3-0.4
		c0.5-0.1,0.8-0.3,0.9-0.7c0.3-0.7,0.5-1.3,0.7-2c0.3-1.3,0.7-2.7,0.9-4.1c0.2-1.6,0.3-3.2,0.3-4.9c0-1.3-0.2-2.7-0.4-4
		c-0.4-2.2-1-4.3-1.2-6.4c-0.4-2.9-1.6-5.4-2.8-8c-0.6-1.2-1.4-2.3-2.1-3.5c-0.3-0.4-0.7-0.7-0.9-1.2c-1.3-2.6-2.8-5-3.7-7.7
		c-0.1-0.2-0.3-0.4-0.5-0.6c-0.9-0.7-1.8-1.3-2.7-1.9c-0.2-0.1-0.5-0.2-0.9-0.3c0.1,0.3,0.1,0.5,0.1,0.6c0.7,1.2,1.3,2.4,2,3.7
		c0.4,0.7,0.7,1.3,1,2c0.4,1.1,0.7,2.1,1.1,3.2c1.4,3.8,2.9,7.6,4.3,11.4c0.5,1.3,1.1,2.7,1.2,4.1c0.4,3,0.6,6,0.8,9
		c0.1,2.1-0.1,4.2-0.1,6.4c0,0.8-0.4,1.5-0.9,2c-0.1,0.2-0.5,0.2-0.8,0.3c0-0.3-0.2-0.7-0.1-0.9c0.4-0.4,0.5-0.9,0.6-1.5
		c0.1-0.9,0-1.7,0-2.6c0.3-3.4-0.1-6.8-0.4-10.2c-0.3-2.8-1.2-5.5-2.2-8.2c-1.3-3.4-2.7-6.9-4-10.3c-1.2-3.2-2.7-6.2-4.4-9
		c-0.7-1.1-1.7-1.5-2.8-1.7c-1-0.1-2-0.1-3-0.1C77.2,8.2,76.9,8.3,76.6,8.3z M163.5,142.5c0,0.1,0,0.1,0,0.2
		c0.1,0.1,0.2,0.2,0.3,0.2c2.2,1.5,4.7,2,7.3,2c2.2,0,4.3-0.5,6.3-1.4c1.3-0.6,2.6-1.3,3.6-2.4c0.8-0.9,1.5-1.9,2.1-2.9
		c1.1-1.8,2.4-3.5,3.2-5.5c0.8-2.2,1.9-4.2,2.9-6.3c0.9-1.7,1.1-3.6,1.1-5.5c0-1.4-0.2-2.9-0.4-4.3c-0.2-1.4-0.7-2.8-1.1-4.2
		c-0.5-1.8-1.3-3.5-2-5.3c-0.7-1.8-1.3-3.6-2-5.4c-0.6-1.4-1-2.9-1.8-4.3c-0.9-1.6-2.1-3.1-3.2-4.7c-1.5-2.1-2.9-4.3-4.4-6.3
		c-1.4-1.9-2.7-3.9-4.4-5.6c-0.6-0.6-1.2-1.3-1.8-2.1c-1.1-1.5-2.2-3-3.3-4.4c-0.7-1-1.5-1.9-2.1-2.9c-1.2-1.9-2.7-3.6-4.5-4.9
		c-2.1-1.4-4.3-2.8-6.6-3.8c-2.3-1.1-4.8-2-7.5-1.4c-1.1,0.2-2,0.7-3,1.2c-1,0.4-1.6,1.1-2.1,2c-0.6,0.9-1.2,1.7-1.8,2.6
		c-0.5,0.6-0.9,1.3-1,2.2c0.7-0.6,1.3-1,1.8-1.5c1-1,1.9-2.1,2.9-3.2c0.6-0.6,1.3-1,2.1-1.2c1.9-0.6,3.8,0.1,5.5,0.7
		c2.2,0.7,4.1,2.1,5.7,4c1.1,1.3,2.5,2.1,4,2.9c1.7,0.9,3.4,1.9,4.5,3.6c0.8,1.3,1.8,2.5,2.7,3.6c0.9,1.1,1.6,2.4,1.7,3.8
		c0.1,1.6,0.6,3.1,1,4.6c0.2,0.6,0.4,1.2,0.8,1.6c1.8,1.9,3.7,3.5,5.8,5c1.8,1.3,3.1,3,3.8,5.1c0.2,0.5,0.3,1,0.5,1.5
		c0.6,1.1,0.9,2.4,1,3.6c0.1,2.6,0.8,5,1.8,7.4c0.1,0.3,0.3,0.7,0.6,1c0.9,1,1.9,1.9,2.7,2.9c1.1,1.3,2.3,2.7,1.7,4.6
		c0,0.1,0,0.3,0,0.5c-0.1,2.2-0.6,4.2-1.9,6.1c-0.5,0.7-1.1,1.4-1.6,2.2c-0.8,1.3-1.6,2.6-2.4,3.8c-0.1,0.1-0.1,0.3-0.2,0.4
		c-0.6,1.7-1,3.5-1.8,5.1c-0.8,1.8-2,3.3-3.8,4.2c-1.3,0.6-2.5,1.2-3.8,1.7c-1.6,0.6-3.2,0.7-4.9,0.5
		C166.4,143.3,165,142.9,163.5,142.5z M64,8.1c0.1,0.4,0.2,0.6,0.3,0.7c0.6,1.2,1.2,2.4,1.9,3.6c0.5,1,1,2,1.5,3
		c0.5,0.9,0.7,1.9,0.9,2.9c0.1,0.6,0.3,1.2,0.5,1.7c0.2,0.6,0.4,1.2,0.7,1.8c0.7,1.8,1.4,3.6,2.1,5.4c0.2,0.5,0.5,1.1,0.8,1.6
		c0.6,1.3,0.7,2.8,1.3,4c0.5,1,1,2.1,1.5,3.2c0.1,0.2,0.3,0.4,0.5,0.6c1.7,1.2,3.4,2.4,5.1,3.5c0.1,0,0.1,0,0.3,0
		c0.2-0.1,0.4-0.3,0.6-0.5c-0.5-1.7-1.1-3.3-1.5-4.9C80.1,34,80,33,79.7,32.2c-1-2.8-2.1-5.7-3.1-8.5c-0.9-2.6-1.8-5.1-2.7-7.7
		c-0.5-1.3-1-2.5-1.6-3.7c-0.5-1-1.1-1.8-1.8-2.7c-0.4-0.5-0.5-0.9-0.2-1.2c0.4-0.3,0.9-0.3,1.3,0.1c0.3,0.4,0.6,0.8,0.9,1.3
		c0.5,0.9,0.9,1.7,1.3,2.6c0.6,1.1,1.2,2.3,1.6,3.5c0.9,2.5,1.7,4.9,2.5,7.4c1.1,3.2,2.3,6.5,3.4,9.7c0.6,1.8,1.1,3.7,1.6,5.5
		c0.3,1,0.7,2,0.4,2.9c1.9,2.1,3.6,4.1,5.5,6.1c0-0.2,0.1-0.4,0-0.5c-0.1-1.9-0.2-3.8-0.3-5.8c0-0.5,0-1-0.1-1.5
		c-0.3-1.8-0.6-3.6-1.1-5.3c-0.5-2.2-1.2-4.4-2.2-6.5c-0.6-1.2-1-2.4-1.6-3.5c-0.6-1.2-1.1-2.4-1.9-3.5c-1.2-1.6-2.1-3.4-3-5.2
		c-0.6-1.3-1.1-2.5-1.8-3.8C76.4,11,75.6,9.9,75,8.7c-0.2-0.4-0.5-0.5-0.9-0.6c-2.7-0.1-5.4-0.2-8-0.2C65.5,7.9,64.8,8.1,64,8.1z
		 M185.3,199c-1.5,0-1.5,0-1.8,1.5c-0.2,0.7-0.3,1.5-0.5,2.2c-0.6,1.4-0.5,3-0.5,4.5c0,0.4,0.4,0.7,0.5,1.1c0.1,0.4-0.2,0.9-0.1,1.3
		c0.3,1.4,1.3,2.3,2.6,2.9c0.9,0.4,1.9,0.1,2.8,0c2.2-0.1,3.8-1.4,5.3-2.8c0.8-0.7,1.4-1.6,2.1-2.3c1.1-1.1,2.2-2.1,3.2-3.3
		c0.9-1.1,1.7-2.2,2.8-3.1c0.5-0.4,1-0.8,1.5-1.2c0.6-0.5,1.2-1.1,1.9-1.6c0.8-0.5,1-1.4,0.5-2.1c-0.1-0.2-0.3-0.4-0.4-0.7
		c-0.3-0.7-0.8-1.1-1.4-1.3c-0.8-0.4-1.6-0.8-2.5-1.1c-0.6-0.3-1.3-0.5-1.9-0.7c-2-0.6-3.9-1.1-5.9-1.6c-0.8-0.2-1.2-0.1-1.4,0.6
		c-0.5,1.3-1.5,2.1-2.6,2.9c-0.7,0.5-1.3,1-1.3,2c0,0.4-0.2,0.9-0.3,1.3c0,0.9-0.6,1.2-1.3,1.5C186.1,199,185.7,199,185.3,199z
		 M71.5,101.6c0-0.1,0-0.2,0-0.3c-1.2,0.1-2.3,0.1-3.5,0.3c-1.7,0.2-3.3,0.6-5,0.9c-0.4,0.1-0.7,0.2-1.1,0.4c-0.7,0.3-1.3,0.6-2,0.8
		c-1.7,0.7-3.5,1.4-4.8,2.9c-0.4,0.5-0.9,0.8-1.3,1.2c-1,0.8-1.8,1.8-2.4,3c-0.5,1.2-1.2,2.4-1.5,3.7c-0.3,1.3-0.5,2.6-0.4,3.9
		c0.1,2.2-0.1,4.5,0.8,6.6c0.1,0.1,0,0.3,0.1,0.4c0.2,0.8,0.4,1.6,0.7,2.4c0.7,1.4,0.9,2.9,1.3,4.4c0.2,0.7,0.3,1.5,0.6,2.2
		c0.3,1.2,0.7,2.3,1.1,3.5c0.5,1.7,1,3.4,1.9,4.9c2,3.2,3.7,6.6,5.4,10c0.9,1.8,1.9,3.5,2.9,5.2c2,3.1,4.5,5.9,6.9,8.7
		c0.6,0.7,1.2,1.4,2.1,1.8c0.7,0.3,1.3,0.7,2,1.1c2.3,1.2,4.7,2.2,7.5,2c0.9-0.1,1.8-0.1,2.6-0.6c1.3-0.7,2.5-1.3,3.8-2
		c0.5-0.3,1-0.6,1.5-0.9c-0.2-0.1-0.3-0.1-0.4-0.1c-3.1,1.2-6.2,1.3-9.4,0c-0.7-0.3-1.5-0.7-1.8-1.4c-0.5-0.9-0.7-2-1-3
		c-0.5-1.5-1.4-2.8-2.9-3.5c-1.3-0.6-2.6-1.1-3.9-1.8c-1-0.5-2-1.1-2.9-1.8c-0.8-0.6-1.5-1.4-2.3-2c-1-0.8-1.6-1.8-2-3.1
		c-0.3-0.9-0.5-1.8-0.9-2.7c-0.4-0.8-1-1.4-1.4-2.2c-0.7-1.5-1.7-2.6-2.9-3.7c-0.7-0.6-1.4-1.3-2-2.1c-1.3-1.9-1.1-4.2-1.3-6.3
		c-0.1-0.8-0.1-1.7-0.4-2.4c-0.6-1.7-1.4-3.2-2-4.9c-0.4-1.2-0.8-2.4-0.9-3.6c-0.1-1.6,0.1-3.2,0.9-4.6c0.8-1.4,1.2-2.9,0.8-4.6
		c-0.1-0.3,0-0.7,0-1c0.3-1,0.6-2,0.8-3c0.3-1.7,1.7-2.6,2.8-3.7c0.6-0.7,1.5-1.1,2.4-1.4c1.2-0.5,2.4-1,3.6-1.3
		C66.3,103.4,69,102.6,71.5,101.6z M163.3,188.2c-0.1,0.9,0.5,1.5,0.6,2.2c0.3,1.6,1,3.1,1.8,4.5c0.8,1.4,1.7,2.6,2.5,4
		c0.3,0.4,0.5,0.9,0.6,1.4c0.2,1,0.3,2.1,0.4,3.1c0.1,0.6,0.3,1,0.7,1.4c1.3,1.5,3,2.2,4.9,2.7c0.7,0.2,1.4,0,2-0.6
		c0.5-0.6,1.1-1.1,1.7-1.6c0.7-0.6,1.3-1.4,1.5-2.4c0.2-0.9,0.4-1.8,0.7-2.7c0.3-0.9,0.4-1.6-0.5-2.2c-0.1-0.1-0.3-0.3-0.4-0.4
		c-0.7-1.3-1.8-2.3-2.9-3.3c-0.5-0.5-0.9-1.2-1.1-1.9c-0.3-0.8-0.2-1.7-0.4-2.6c-0.2-1.2-0.1-2.4-0.7-3.5c-0.3-0.6-0.2-1.4-0.2-2.1
		c0-0.3,0.1-0.6,0-0.8c-0.5-0.7-1-1.4-1.7-1.9c-1.8-1.3-3.9-1.6-6-1.2c-1,0.2-1.5,0.7-1.8,1.6c-0.2,0.6-0.5,1.3-0.7,1.9
		C163.9,185.4,163.6,186.8,163.3,188.2z M131.8,174.1c1.6-0.4,3.2-0.8,4.8-1.3c2.1-0.6,4.2-1.2,6.3-1.8c0.5-0.1,0.9-0.3,1.4-0.5
		c1.1-0.5,2.2-0.9,3.3-1.4c0.5-0.2,1.1-0.5,1.6-0.8c1.1-0.8,2.3-1.6,3.4-2.5c0.3-0.2,0.8-0.4,1-0.7c0.5-1.1,1.6-1.7,2.4-2.5
		c0.7-0.7,1.6-1.3,2.3-1.9c0.4-0.3,0.7-0.6,1.1-0.9c0.2-0.2,0.4-0.5,0.6-0.6c1.3-0.9,2.1-2.3,2.8-3.7c0.2-0.5,0.4-1.1,0.2-1.5
		c-0.5-1.3-1.1-2.6-1.8-3.8c-0.6-1-1.3-1.8-2-2.7c-0.3-0.3-0.6-0.7-0.9-1c-0.1,0-0.1,0.1-0.2,0.1c0,0.1,0.1,0.2,0.1,0.3
		c0.9,1.3,1.8,2.5,2.7,3.8c0.4,0.6,0.5,1.2,0.3,1.8c-0.1,0.3-0.1,0.5-0.1,0.8c-0.3,2.4-1.7,4-3.9,4.6c-1.2,0.3-2.4,0.7-3.5,1.2
		c-1,0.4-2,1-3,1.5c-0.8,0.4-1.7,0.9-2.4,1.5c-0.7,0.7-1.4,1.5-1.9,2.3c-0.3,0.5-0.6,1-1,1.4c-0.6,0.6-1.4,0.9-2.2,1.3
		c-1.9,0.8-3.8,1.6-5.8,1.8c-0.8,0.1-1.6,0.2-2.5,0.4c-1,0.2-1.9,0.5-2.8,0.8c-1.4,0.4-2.9,0.9-4.3,1.4c-0.4,0.1-0.8,0.5-1.3,0.5
		c-2,0.2-3.8,0.9-5.8,1.1c-1.9,0.1-3.6-0.4-5.2-1.3c-1.3-0.7-2.4-1.7-3.5-2.6c-1.9-1.6-3.2-3.7-4.1-6c-0.3-0.8-0.6-1.6-0.9-2.5
		c-0.2,0.3-0.3,0.6-0.3,0.9c-0.2,2.2,0,4.4,0.1,6.6c0.1,2.3,2.1,5.1,4.5,5.7c0.5,0.1,0.9,0.3,1.4,0.5c1.3,0.4,2.6,0.9,3.9,1.2
		c1.2,0.3,2.4,0.4,3.6,0.5c1.9,0.1,3.8,0.4,5.6-0.3 M116.5,52.7c-0.9-0.9-1.7-1.7-2.8-1.9c-1.5-0.2-2.9,0-4.4,0.5
		c-2.5,0.9-4.8,2.2-7.1,3.5c-1.1,0.7-2.3,1.3-3.5,1.9c-1.2,0.6-2.2,1.5-3.4,2.2c-1.3,0.7-2.5,1.6-3.7,2.4c-1.5,1-3,2.1-4.4,3.2
		c-2.1,1.6-4.1,3.1-6.2,4.8c-1,0.8-2,1.6-2.9,2.5c-1.5,1.6-2.9,3.3-4.3,5.1c-1,1.3-2,2.7-2.9,4c-0.7,1.1-1,2.3-1.1,3.6
		c-0.1,1.6,0.2,3,1.1,4.3c0.1,0.2,0.2,0.4,0.3,0.6c1.1,2,2.5,3.8,4.8,5.1c-0.2-0.3-0.3-0.5-0.4-0.6c-0.8-0.8-1.7-1.6-2.4-2.5
		c-0.4-0.4-0.6-1-0.8-1.6c-0.2-0.9-0.2-1.8-0.4-2.7c-0.5-2.4,0.3-4.5,2.1-6c0.6-0.5,1.3-0.9,2.1-1c1-0.2,1.9-0.3,2.9-0.5
		c0.5-0.1,1-0.2,1.5-0.4c0.8-0.3,1.2-0.8,1.5-1.6c0.3-0.9,0.6-1.8,1.1-2.6c0.7-1.2,1.4-2.4,2.3-3.3c0.9-0.9,2.1-1.5,3.2-2.1
		c0.9-0.5,1.9-0.9,2.9-1.3c1.5-0.6,2.4-1.7,3.3-3c0.8-1.2,1.6-2.4,2.4-3.7c0.1-0.2,0.2-0.3,0.4-0.4c1.3-0.8,2.7-1.5,4-2.2
		c1.2-0.6,2.1-1.3,3-2.4c0.6-0.8,1.3-1.6,2.1-2.2c0.9-0.7,2-1.3,3-1.9c0.2-0.1,0.4-0.2,0.6-0.2c1,0,2-0.1,2.9,0
		C114.5,52.3,115.5,52.5,116.5,52.7z M186.9,179.2c0.4,0.4,0.9,0.8,1.4,1.1c0.9,0.4,1.2,1.2,1.4,2c0.3,1.1,0.7,2.2,1.4,3.2
		c0.6,0.8,1.2,1.5,1.2,2.6c0,0.3,0.3,0.6,0.6,0.8c0.8,0.4,1.6,0.8,2.5,0.9c1,0.1,1.9,0,2.9,0.3c0.3,0.1,0.7,0.1,1,0
		c1.3-0.4,2.7-0.7,3.9-1.5c0.9-0.6,1.7-1.3,1.3-2.5c0,0,0-0.1,0-0.1c-0.1-1.3-0.4-2.5-1.5-3.4c-1.5-1.3-2.5-2.9-3.5-4.5
		c-0.6-0.9-0.6-2-1.3-2.8c-0.4-0.4-0.5-1-0.8-1.5c-0.3-0.6-0.6-1.3-1.1-1.7c-1-0.7-2-1.2-3.3-1.4c-1.7-0.2-3.2,0.4-4.7,0.8
		c-0.2,0.1-0.4,0.3-0.4,0.5c-0.2,1.1-0.5,2.1-0.6,3.2C187.1,176.4,187,177.8,186.9,179.2z M64.9,30.7c-0.1-0.7-0.2-1.2-0.3-1.7
		c-0.4-2.3-1.1-4.4-2.5-6.2c-0.2-0.2-0.2-0.5-0.4-0.7c-0.6-1-1.2-2.1-1.9-3c-0.9-1.3-1.9-2.4-2.8-3.7c-0.8-1.1-1.7-2.2-3-2.7
		c-1.3-0.6-2.5-1.4-3.6-2.3c-0.4-0.3-0.8-0.5-1.4-0.4c-1,0.2-2.1,0.3-3.1,0.6c-2.1,0.5-4.2,1.1-6.2,1.7c-0.1,0-0.2,0.1-0.4,0.3
		c0.5,0.7,1,1.4,1.6,2c0.5,0.5,1,0.9,1.5,1.4c1.6,1.6,3.4,3,5.3,4.3c2.5,1.7,4.9,3.6,7.4,5.4c0.6,0.5,1.3,0.8,2,1.2
		c0.8,0.5,1.7,0.8,2.2,1.7c0.1,0.1,0.2,0.2,0.3,0.3C61.3,29.5,62.9,30.3,64.9,30.7z M59.5,51.8c1.3,1.8,2.5,3.4,3.7,5
		c0.2,0.3,0.6,0.5,0.9,0.5c1.2,0,2.4-0.1,3.6-0.3c1-0.1,2-0.5,3-0.7c1.3-0.3,2.7-0.4,4-0.8c1.9-0.5,3.8-1,5.7-1.5
		c2.8-0.7,5.3-1.9,7.9-3.1c1-0.5,1-0.9,0.3-1.7c-1.3-1.4-2.5-2.9-3.8-4.3c-0.8-0.8-1.7-1.5-2.6-2.3c-0.5,0.4-0.9,0.7-1.3,1
		c-1.5,1.1-2.9,2.1-4.7,2.7c-0.9,0.3-1.7,0.6-2.5,1.1c-1,0.6-2,0.9-3,1.2c-1.2,0.3-2.5,0.7-3.7,1.1c-0.6,0.2-1.2,0.4-1.8,0.5
		C63.2,50.6,61.5,51.2,59.5,51.8z M133.9,222.3c0-0.1,0-0.2-0.1-0.2c-0.1,0-0.3,0-0.4,0.1c-1.3,0.4-1.3,0.4-2.1-0.7
		c-1.1-1.6-2.1-3.3-3.3-4.8c-0.6-0.8-0.7-1.7-0.6-2.7c0.1-0.8,0-1.6,0-2.4c0-1.2-0.3-2.5,0.1-3.7c0.2-0.7,0.1-1.5,0.1-2.3
		c0.1-1,0.1-2,0.2-3c0.1-0.6,0.4-0.8,0.9-0.5c0.4,0.3,0.7,0.3,1.1,0.4c0.8,0.1,1.6,0.2,2.3,0.3c0.5,0.1,0.6-0.2,0.6-0.8
		c-0.5-0.1-1.1-0.3-1.7-0.4c-0.3-0.1-0.6,0-0.9-0.1c-0.5-0.1-0.8-0.3-0.9-0.9c-0.1-0.5,0.3-0.7,0.7-0.9c0.6-0.3,1.1-0.6,1.7-0.9
		c0.3-0.2,0.7-0.4,1-0.4c1.4-0.1,2.8-0.1,4.2-0.1c0.6,0,1.2,0,1.8,0c0.2,0,0.3-0.3,0.5-0.4c-0.7-0.2-1.3-0.2-1.8-0.2
		c-1.2,0-2.5,0.1-3.7,0.2c-1,0.1-2,0.2-2.4-1c-0.7,0.5-1.5,0.9-2.1,1.4c-0.5,0.6-0.8,1.4-1.2,2.2c-0.6-0.3-0.8-0.7-0.8-1.2
		c-0.1-1.5-0.3-2.9-0.3-4.4c0-0.9,0.2-1.9,0.3-2.8c0.1-1.6,0.3-3.2,0.9-4.8c0.1-0.2,0.1-0.5,0.1-0.6c-0.2-0.6,0-1.2,0.2-1.8
		c0.9-2.4,0.9-5,0.8-7.5c0-0.5-0.1-0.9-0.7-1.1c-0.1,0.1-0.3,0.1-0.5,0.3c-0.1,0.1-0.2,0.2-0.3,0.3c-0.7,1.7-1.3,3.4-1.9,5.2
		c0,0.1,0,0.2,0,0.2c-0.1,1-0.2,1.9-0.3,2.9c-0.1,0.5-0.3,1-0.4,1.6c-0.3-0.1-0.7-0.2-0.8-0.3c-0.6-0.8-1.6-0.9-2.3-1.4
		c-0.2-0.1-0.6-0.2-0.9-0.2c-0.6,0-1.3,0.2-1.9,0.2c-1.5,0.1-3.1,0.2-4.6,0.2c-0.2,0-0.3,0-0.4,0c-0.1,0.1-0.3,0.3-0.3,0.4
		c0,0.1,0.2,0.3,0.3,0.4c0.1,0.1,0.3,0,0.4,0c1.8-0.6,3.7-0.2,5.5-0.4c0.4,0,0.7,0.1,1.1,0.2c0.5,0.1,0.8,0.4,0.8,1
		c0,0.5-0.5,0.6-0.9,0.7c-1.7,0.5-3.5,0.7-4.9,1.8c-0.1,0.1-0.4,0.1-0.5,0.2c-1.3,0.6-2.6,1-3.6,2c0.4,1.1,0.8,1.2,1.6,0.5
		c0.5-0.5,1.2-0.9,1.8-1.1c1.2-0.2,2.2-1.2,3.5-1.1c0.1,0,0.3-0.2,0.5-0.3c0.7-0.4,1.3-0.8,2-1c0.2-0.1,0.7,0,0.8,0.2
		c0.2,0.2,0.2,0.6,0.1,0.9c0,0.2-0.3,0.4-0.4,0.6c-0.3,0.4-0.7,0.9-1.1,1.3c-0.2,0.3-0.4,0.7-0.2,1.1c1.1-1.1,2.1-2.1,3.1-3.1
		c0.3-0.3,0.7-0.5,1.1-0.1c0.2,0.2,0.3,0.4,0.3,0.7c0.1,0.8,0,1.6,0.1,2.3c0.1,0.9,0.2,1.9,0.3,2.8c0.1,1.9-0.1,3.8,0.7,5.6
		c0.1,0.2,0,0.4,0.1,0.6c0.1,0.7,0.2,1.5,0.3,2.2c0,0.2,0,0.5,0,0.7c-0.1,0.4-0.2,0.8-0.3,1.2c-0.1,0.4,0,0.9-0.1,1.2
		c-0.4,1-0.6,2.1-0.6,3.2c0,0.4-0.1,0.8-0.2,1.2c-0.6,2.4-1.8,4.5-3,6.6c-0.6,1-1.3,1.9-2.1,2.8c-0.7,0.9-1.6,1.7-2.3,2.6
		c-0.7,0.8-1.3,1.7-2,2.6c-0.3,0.4-0.5,0.7-0.8,1.1c-0.7,0.9-1.2,2-2,2.7c-0.6,0.5-1.7,0.5-2.6,0.6c-0.2,0-0.4,0-0.6,0
		c-0.5,0.1-1,0.1-1.4,0.2c-0.2,0.1-0.4,0.4-0.4,0.6c0,0.1,0.2,0.4,0.4,0.5c0.3,0.1,0.7,0,1,0c0.7-0.1,1.4-0.2,2.1-0.2
		c0.6,0,0.9,0.4,0.7,1c-0.1,0.3-0.3,0.5-0.4,0.8c-0.3,0.6-0.7,1.2-1.2,2c0.3-0.1,0.5,0,0.6-0.1c0.5-0.7,1.1-1.3,1.4-2.2
		c0.5-1.3,1.6-1.5,2.6-0.5c0.3,0.3,0.6,0.6,0.9,0.9c0.2,0.2,0.6,0.3,0.8,0.4c0.4-0.5,0.2-0.7-0.1-1c-0.4-0.3-0.8-0.6-1.1-1
		c-0.8-0.9-0.9-1.7-0.2-2.5c0.7-0.9,1.5-1.8,2.2-2.7c0.6-0.8,1.3-1.6,1.7-2.5c0.5-0.9,1-1.7,1.7-2.5c0.8-0.9,1.4-1.9,1.9-3
		c0.4-0.8,0.9-1.6,1.5-2.4c0.6-0.8,0.9-0.7,1.4,0.2c0.8,1.8,1.6,3.6,2.8,5.2c0.1,0.1,0,0.5-0.1,0.6c-0.4,0.5-0.8,0.9-1.2,1.3
		c-0.5,0.5-1,1-1.1,2c0.4-0.2,0.6-0.3,0.8-0.4c0.6-0.6,1.3-1.2,1.9-1.8c0.4-0.4,0.7-0.4,1,0.1c0.6,1.3,1.9,2.2,2.4,3.6
		c0.1,0.4,0.5,0.3,0.9,0c-0.4-0.4-0.7-0.8-1-1.2c-0.7-0.9-1.4-1.9-0.9-3C132.5,222.8,133.2,222.6,133.9,222.3z M135.7,123.4
		c1.1-1.1,1.4-2.8,1-4.3c-0.2-1,0-1.8,0.5-2.6c0.6-0.9,1.1-1.9,1.7-2.8c1.5-2.2,1.2-4.5,0.3-6.8c-0.6-1.3-1.5-2.5-2.9-3.3
		c-1.3-0.8-2.6-1.6-4-2.4c-0.7-0.4-1.5-0.8-2.3-1.3c-0.6-0.4-1.1-0.9-1.6-1.4c-0.3-0.4-0.5-1-0.8-1.4c-0.8-1.1-1.8-2.1-3.1-2.5
		c-2.2-0.6-4.2-0.2-5.9,1.4c-1.2,1.2-2.3,2.4-3.7,3.4c-1.6,1.1-3.1,2.3-4.1,4c-0.2,0.3-0.4,0.5-0.6,0.7c-1.3,0.7-2.1,1.9-3.2,2.9
		c-1,0.9-1.4,2.1-0.8,3.4c0.7,1.5,1.6,2.9,2.4,4.3c0.6,1,1.2,1.9,1.1,3.1c-0.1,0.5,0,1.1,0.2,1.6c0.3,1.2,0.4,2.4,0.7,3.6
		c0.3,1,0.8,1.8,1.4,2.6c0.8,1.1,2,1.6,3.1,2.1c1.5,0.6,2.5,1.6,3.2,3c0.1,0.3,0.5,0.5,0.8,0.6c1.3,0.4,2.6,0.2,3.9-0.3
		c1-0.3,1.6-0.9,1.8-2c0.1-0.5,0.4-1.1,0.7-1.5c1.1-1.4,2.8-1.9,4.5-2.2c1-0.2,2-0.4,2.9-0.6c0.8-0.1,1.2-0.5,1.1-1.2
		c0-0.1,0.2-0.2,0.3-0.4C135.1,123.2,135.4,123.3,135.7,123.4z M184.9,178.5c-0.3-1.8,0.2-3.4,0.6-5c0.4-1.5,0.2-2.9-0.2-4.4
		c-0.3-1-0.9-2-1.3-3c-0.5-1.1-1-1.3-2.1-0.8c-2.5,1.2-5.1,2.4-7.6,3.7c-1.2,0.6-2.5,1.3-3.6,2c-1.5,1-2.8,2.9-1.3,5
		c0.7,1,1.5,2,2.5,2.7c0.9,0.7,1.9,1.4,2.8,2.1c0.4,0.3,0.7,0.8,1,0.8c0.4,0,0.8-0.4,1.3-0.7c0.4-0.2,0.8-0.4,1.2-0.5
		c1.6-0.5,3.2-0.8,4.6-1.7c0.2-0.1,0.5-0.2,0.8-0.2C184,178.5,184.4,178.5,184.9,178.5z M47.8,179.8c0.1,0,0.2,0,0.3-0.1
		c0-0.1,0.1-0.2,0.1-0.3c0.1-2.1,0.3-4.2-0.3-6.2c-0.2-0.5-0.2-1.1-0.3-1.7c-0.1-1.6-0.2-3.2-0.4-4.7c-0.1-1.1,0-2.1-0.3-3.2
		c-0.3-1.5-0.8-3.1-1.2-4.6c-0.3-1.1-0.6-2.3-0.9-3.4c-0.5-1.7-0.8-3.4-1.7-4.9c-0.3-0.5-0.5-1-0.8-1.5c-0.4-0.6-0.8-1.1-1.2-1.7
		c-1-1.6-1.9-3.1-3.2-4.5c-1-1.1-1.9-2.4-2.9-3.6c-0.7-0.8-1.3-1.7-2.1-2.3c-1.9-1.5-3.6-3.2-5.3-4.9c-1.5-1.5-2.8-3.3-4.5-4.6
		c-0.1-0.1-0.2-0.2-0.3-0.3c-1.1-1.8-2.5-3.4-4-4.8c-0.8-0.7-1.7-1.4-2.7-2.2c0,0.3-0.1,0.5-0.1,0.6c0.8,1.4,1.5,2.7,2.3,4
		c1,1.5,1.8,3.2,2.1,5c0.1,0.5,0.3,0.9,0.7,1.1c1,0.4,1.7,1.2,2.5,1.9c1.4,1.2,2.9,2.4,4.2,3.6c1.5,1.4,3,2.8,4.3,4.5
		c0.6,0.7,1.4,1.3,2,2c1,1.1,2,2.2,2.9,3.4c0.7,0.9,1.5,1.9,1.9,3c0.7,1.8,1.7,3.5,2.5,5.2c0.7,0.1,1.2-0.8,1.9-0.1
		c-0.3,0.3-0.5,0.5-0.7,0.7c-0.6,0.7-0.6,0.7-0.3,1.6c0.8,2,1.7,4,2.3,6c0.6,2.1,1.1,4.3,1.5,6.5c0.5,2.8,0.7,5.7,1.1,8.5
		C47.5,178.4,47.7,179.1,47.8,179.8z M72.9,34.8c-0.5-1.8-0.9-3.4-1.5-4.9c-0.5-1.5-1.2-2.9-1.9-4.3c-1.2-2.3-1.7-4.7-2.4-7.2
		c-0.5-1.8-1.4-3.3-2.1-5c-0.6-1.3-1.4-2.4-2.1-3.6c-0.9-1.5-1.4-1.8-3.1-1.6c-1.5,0.2-2.9,0.3-4.4,0.5c-1.1,0.2-2.1,0.5-3.1,0.7
		c0,0.1,0,0.2-0.1,0.3c0.7,0.5,1.4,1,2.2,1.4c1.2,0.6,2.2,1.3,3,2.3c1.4,1.8,2.8,3.6,4.1,5.4c0.6,0.8,1,1.8,1.5,2.6
		c1.6,2.4,2.6,5.1,3,8c0.2,1.2,0.5,2.3,2,2.8c1,0.3,1.8,0.9,2.7,1.4C71.4,34,72,34.4,72.9,34.8z M64.9,58.7c0.6,0.6,1,1,1.5,1.4
		c1.8,1.5,3.9,2.5,5.8,3.7c0.3,0.2,0.7,0.3,1.1,0.2c1.6-0.5,3.1-1.1,4.7-1.7c0.7-0.3,1.3-0.7,1.9-0.9c1.9-0.7,3.8-1.3,5.7-1.9
		c1.7-0.6,3.4-1.1,5-1.7c1.3-0.5,2.6-1,4-1.6c-0.8-0.9-1.5-1.6-2.2-2.3c-0.7-0.7-1.4-1.5-2-2.2c-0.6,0.3-1.1,0.5-1.6,0.7
		c-2.3,0.9-4.5,2.2-7,2.8c-3.1,0.7-6.1,1.8-9.2,2.1c-0.2,0-0.4,0.1-0.7,0.2c-1.3,0.3-2.6,0.6-4,0.9C67,58.4,66.1,58.5,64.9,58.7z
		 M46.8,39.9c0.2,0.3,0.3,0.5,0.5,0.7c1.1,0.9,2.3,1.8,3.4,2.6c0.3,0.2,0.6,0.2,0.9,0c1.7-0.9,3.3-1.8,5-2.6
		c1.4-0.7,2.6-1.7,3.9-2.7c0.8-0.6,1.6-1.4,2.3-2.1c0.7-0.7,1.3-1.5,2-2.3c0.2-0.2,0.3-0.5,0.5-0.8c-0.3-0.2-0.6-0.4-0.9-0.5
		c-1.4-0.6-2.9-1.1-4.3-1.7c-0.6-0.2-1.2-0.5-1.8-0.6c-0.2-0.1-0.6,0-0.8,0.2c-1.2,1-2.5,2-3.7,3c-0.6,0.5-1.1,1-1.7,1.5
		c-0.6,0.5-1.3,1-1.9,1.6c-0.4,0.4-0.8,0.9-1.2,1.3C48.4,38.3,47.6,39.1,46.8,39.9z M35.1,71.8c0.1,0.4,0.1,0.7,0.2,1
		c0.2,0.5,0.5,1,0.7,1.5c0.2,0.5,0.2,0.9-0.2,1.2c-0.4,0.3-0.7,0-1-0.3c-0.6-0.6-1.3-0.9-2-1.3c-0.5-0.2-1-0.5-1.4-0.9
		c-0.8-0.6-1.6-1.3-2.5-2c-0.4,1.1-0.4,1.5,0.6,2.1c1.2,0.7,2.4,1.2,3.7,1.6c1.1,0.4,1.9,1.3,1.7,2.4c0,0.2-0.3,0.5-0.5,0.6
		c-0.6,0.1-1.1,0-1.7,0c-0.7,0-1.5-0.3-2.3,0.2c1.5,0,2.5,1,3.8,1.6c0.7,0.3,1.3,0.9,2,1.2c1.3,0.6,2.6,1.1,3.9,1.7
		c0.2,0.1,0.3,0.2,0.5,0.3c1.1,0.7,2.2,1.5,3.3,2.2c0.8,0.5,1.6,0.8,2.4,1.3c1.2,0.7,2.4,1.5,3.5,2.2c0.3,0.2,0.7,0.4,1,0.6
		c0.3,0.2,0.4,0.6,0.1,0.9c-0.3,0.3-0.6,0.5-1,0.6c-0.4,0.1-0.9,0.1-1.3,0.2c-0.6,0.1-1.3,0.2-1.9-0.1c-0.3-0.1-0.7-0.1-1.1-0.1
		c0,0.9,0,1.6,0,2.3c1-0.3,1.9-0.5,2.8-0.7c0.7-0.1,1,0.1,0.8,0.8c-0.2,0.6-0.2,1.3-0.8,1.8c-0.4,0.4-0.4,0.9-0.1,1.5
		c0.8-0.5,1.3-1.1,1.3-2c0-0.3,0.2-0.6,0.3-0.9c0.1-0.4,0.3-0.7,0.5-1.1c0.3-0.8,0.8-1.2,1.6-1c0.6,0.1,1.3,0.2,1.8,0.5
		c1.2,0.6,2.3,1.2,3.5,1.8c1.8,0.9,3.7,1.7,5.5,2.6c0.6,0.3,1.2,0.5,1.7,0.8c1.3,0.5,2.7,1.1,4,1.6c0.4,0.2,0.8,0.4,1.2,0.6
		c1.2,0.5,2.5,0.9,3.8,0.9c0.8,0,1.6-0.1,2.4-0.1c1.5,0.1,3.1,0.3,4.6,0.5c1.5,0.2,3,0.4,4.5,0.6c0.3,0,0.6,0,0.9,0
		c-0.3-0.3-0.6-0.4-0.8-0.4c-0.5-0.2-1-0.3-1.5-0.4c-1.7-0.4-3.3-0.9-5-1.3c-1.4-0.3-2.7-0.5-4.1-0.7c-1.5-0.3-2.8-1-4.4-1
		c-1.6,0-3.2-0.5-4.7-1.2c-1.8-0.8-3.5-1.5-5.1-2.5c-1.5-1-3.1-1.7-4.7-2.4c-1.4-0.6-2.6-1.6-3.9-2.4c-0.8-0.5-1.5-1.1-2.4-1.5
		c-1.8-1-3.5-2.1-4-4.4c-0.1-0.3-0.2-0.5-0.3-0.7C44,79.9,43.8,78,43.7,76c0-0.6-0.2-0.7-1-0.5c0.1,0.2,0.1,0.5,0.2,0.7
		c0.2,0.9,0.6,1.7,0.7,2.6c0.2,1.1,0.4,2.2,1.1,3.1c0.2,0.3,0.1,0.9-0.1,1.2c-0.3,0.4-0.7,0.1-1.1-0.1c-0.8-0.5-1.6-1-2.5-1.5
		c-0.7-0.4-1.4-0.7-2-1.1c-1.2-0.8-2.5-1.6-2.2-3.4c0-0.1,0-0.3-0.1-0.4c0-0.5-0.1-1-0.1-1.4c0-1,0-2,0-2.9
		C36.1,72.2,35.7,72.1,35.1,71.8z M75.7,38c-0.5,0.6-0.9,1.2-1.3,1.4c-1,0.5-2,1-3,1.3c-2.8,0.9-5.5,2.1-8,3.7c-2,1.2-4,2.3-5.9,3.5
		c-0.2,0.1-0.4,0.3-0.7,0.5c0.7,0.9,1.2,1.9,2.2,2.4c1-0.4,2-0.8,3-1.1c0.4-0.1,0.8-0.2,1.2-0.3c1.8-0.5,3.6-1,5.4-1.6
		c1-0.3,2.1-0.6,3.1-1c1.9-0.8,3.8-1.7,5.6-2.6c1.2-0.6,2.3-1.5,3.6-2.4C79.1,40.3,77.3,39.3,75.7,38z M126.4,62.7
		c0.1,0,0.2,0,0.3,0c0.2-0.9,0.5-1.8,0.7-2.7c0.2-0.9,0.4-1.8,0.6-2.7c0.2-1,0.2-2.1,0.4-3.1c0.5-2.5,1.1-5.1,1.7-7.6
		c0.2-0.8,0.3-1.6,0.4-2.3c0.3-1.2,0.6-2.3,0.9-3.5c0.3-1.1,0.5-2.2,0.7-3.3c0-0.2,0.2-0.4,0.2-0.6c0.2-0.8,0.5-1.6,0.6-2.5
		c0.1-1,0.2-1.2,1.3-1.3c1.1-0.1,2.1-0.2,3.2-0.3c0.9-0.1,1.8-0.3,2.7-0.2c1.2,0.1,2.4,0,3.5-0.2c1.8-0.3,3.5-0.2,5.3-0.3
		c0.5,0,1,0,1.5-0.1c1,0,2-0.1,2.9-0.2c0.5,0,0.8,0,1.1,0.4c0.1,0.2,0.2,0.4,0.3,0.5c0.2-0.6,0.3-1.1,0.6-1.8
		c-0.6-1.2-0.2-1.4,0.9-1.9c1.1-0.5,2.1-1,3.2-1.5c0.5-0.2,1-0.5,1-1.4c-0.3,0-0.7,0-1,0.1c-0.9,0.6-1.8,1.2-2.7,1.8
		c-0.5,0.3-1,0.7-1.5,1c-0.4,0.2-0.7,0.5-0.8,1c0,0.6-0.5,0.7-1,0.7c-0.6,0-1.1-0.1-1.7-0.1c-1.6,0.2-3.1,0.4-4.7,0.6
		c-1.5,0.2-3.1,0.4-4.6,0.5c-1.7,0.1-3.5,0.1-5.2,0.2c-0.8,0-1.5,0.1-2.3,0c-0.2,0-0.5-0.1-0.6-0.3c-0.1-0.2,0-0.5,0.1-0.7
		c0.1-0.2,0.3-0.3,0.5-0.5c0.6-0.5,1.3-1,1.9-1.5c1.4-1.3,2.8-2.6,4.3-3.9c0.6-0.6,1.3-1.2,1.9-1.7c0.3-0.2,0.5-0.4,0.8-0.6
		c0.9-0.6,1.8-1.3,2.7-1.8c1.1-0.7,2.2-1.3,3.2-1.9c-1.3-0.6-1.5-0.9-1.2-2.5c0.1-0.5,0.2-0.9,0.3-1.5c-0.8,0.5-1.4,1-1.5,1.9
		c0,0.3-0.3,0.7-0.6,0.9c-1.2,1.2-2.3,2.4-3.5,3.5c-1.2,1.2-2.5,2.2-3.6,3.4c-1,1-1.9,2.2-2.9,3.2c-0.2,0.3-0.5,0.5-0.8,0.7
		c-0.4,0.3-0.7,0.6-1.1,1c-0.3,0.3-0.5,0.5-0.9,0.4c-0.4-0.2-0.3-0.5-0.3-0.9c-0.1-0.9,0-1.9-0.3-2.6c-0.7-1.6-1.4-3.3-1.6-5.1
		c0-0.3-0.3-0.7-0.4-1c-0.2-0.4-0.4-0.8-0.5-1.2c-0.2-0.8-0.3-1.6-1.3-1.7c-0.2,0-0.3-0.3-0.5-0.5c-0.4-0.3-0.7-0.6-1.1-0.9
		c-0.4-0.3-0.7-0.5-1.1-0.8c-0.9-0.7-1.8-1.4-2.8-2.1c-0.3-0.2-0.7-0.3-1.1-0.5c0.9,1,1.9,1.9,2.9,2.5c1.2,0.7,1.7,1.8,2.6,2.8
		c0.6,0.7,0.5,1.3-0.1,2c-0.3,0.4-0.4,0.6,0.1,0.9c0.7,0.4,1.3,1,1.6,1.8c0.6,1.4,1.3,2.8,2.6,3.8c0.6,0.5,0.6,1.2,0.4,1.9
		c-0.3,1-0.6,2-0.9,3c-0.5,1.8-1.1,3.6-1.3,5.4c-0.2,1.7-0.6,3.4-0.8,5.1c-0.1,0.6-0.3,1.2-0.4,1.8c-0.3,1.2-0.6,2.3-0.8,3.5
		c-0.5,3.2-0.8,6.4-1.8,9.4c-0.3,0.9-0.4,1.9-0.7,2.7C125.9,60.9,126,61.8,126.4,62.7z M92,15.6c0,0.2,0.1,0.4,0.1,0.5
		c0.6,1.1,1.1,2.3,1.8,3.4c0.8,1.4,1.8,2.7,2.6,4.1c0.9,1.6,1.7,3.2,2.3,4.9c0.6,1.6,1,3.3,1.2,5.1c0.2,1.7,0.6,3.4,1,5.1
		c0.5,2.4,0.5,4.8,0.6,7.2c0,0.6-0.2,1.3-0.2,1.9c0,2.1-0.5,4.2-1.3,6.2c-0.1,0.2-0.1,0.4-0.1,0.7c1.5-0.9,2.9-1.7,4.4-2.5
		c0-0.6,0-1.3,0-1.9c0-0.4,0-0.7,0-1.1c0-0.5,0.2-1,0.2-1.6c0-1.6-0.1-3.2-0.1-4.9c-0.1-1.3-0.3-2.6-0.2-3.9c0.2-2.3-0.6-4.3-1-6.4
		c-0.2-1.2-0.8-2.3-1.3-3.4c-1.2-3.1-2.7-5.9-5.2-8.3c-0.6-0.5-1-1.2-1.5-1.9C94.3,17.6,93.3,16.5,92,15.6z M55.2,47.1
		c0.7-0.2,1.4-0.3,1.9-0.6c1.8-1,3.6-2,5.4-3.1c2-1.3,4.2-2.2,6.3-3.2c1.3-0.6,2.7-1.1,4.1-1.6c0.2-0.1,0.5-0.3,0.7-0.4
		c0.4-0.4,0.4-0.8,0-1.2c-0.4-0.4-0.8-0.7-1.3-0.9c-1.8-1-3.7-1.9-5.6-2.9c-0.2,0.4-0.3,0.8-0.5,1c-0.4,0.5-0.9,0.9-1.3,1.4
		c-0.5,0.6-1,1.3-1.6,1.9c-0.7,0.7-1.4,1.2-2.2,1.8c-0.8,0.6-1.6,1.4-2.5,1.9c-2.1,1.1-4.2,2.2-6.4,3.3
		C53.2,45.4,54.2,46.3,55.2,47.1z M178.5,207.2c-0.1-0.1-0.2-0.1-0.3-0.2c-0.3,0.3-0.7,0.6-1,0.9c-0.7,0.7-1.5,1.2-2.6,0.8
		c-1.7-0.6-3.3-1.3-4.8-2.4c-1-0.7-1.5-1.6-1.8-2.6c-0.1-0.6,0-1.2-0.1-1.8c-0.2-1-0.3-2-0.7-2.8c-0.4-0.9-1.1-1.6-1.7-2.4
		c-0.3-0.4-0.5-0.8-0.7-1.3c-0.5-1.2-1.5-2.3-1.5-3.7c0,0,0-0.1,0-0.1c-0.8-1.1-0.9-2.3-0.8-3.7c0.2-1.9,0.5-3.7,1.2-5.4
		c0.2-0.5,0.3-1,0.4-1.6c-0.4,0-0.7,0.2-0.9,0.3c-1.5,1.2-1.9,2.8-2,4.6c-0.1,1.4,0.1,2.8,0.3,4.1c0.3,1.3,0.5,2.6,0.8,4
		c0.2,0.7,0.4,1.4,0.6,2.1c0.3,1.1,0.6,2.2,1,3.2c0.4,1.1,0.9,2.2,1.6,3.1c0.3,0.4,0.4,1,0.6,1.6c0.1,0.2,0.1,0.4,0.2,0.6
		c1,1.9,2.1,3.7,3.6,5.3c1.1,1.2,2.3,2.4,4,2.9c0.4,0.1,1,0.1,1.3-0.1c0.9-0.6,1.9-1.3,2.1-2.5c0.1-0.4,0.4-0.8,0.6-1.2
		C178,208.4,178.3,207.8,178.5,207.2z M195.8,43c-1.6,1.1-2.7,2.4-3.8,3.7c-0.5,0.6-0.8,1.5-0.5,2.3c0.7,2,1.5,4.1,2.4,6.1
		c0.5,1.2,0.9,2.4,1,3.7c0.1,0.7,0.7,2.6,1.2,3.3c0.3-0.4,0.7-0.7,1-1.1c0.7-1.2,1.4-2.5,2-3.8c0.5-1,0.3-1.9,0.1-2.8
		c-0.2-0.8-0.4-1.6-0.6-2.4c-0.1-0.3-0.1-0.5-0.2-0.8c-0.2-0.8-0.4-1.6-0.6-2.4c-0.3-1-0.2-2.1-0.7-3.1c-0.4-0.7-0.8-1.3-0.9-2.2
		C196.2,43.5,196,43.3,195.8,43z M37.9,12.8c-1.4,0.5-2.8,0.9-4.1,1.8c0.4,0.5,0.7,0.9,1.1,1.3c0.5,0.6,1.2,1.1,1.6,1.8
		c0.9,1.5,2.1,2.8,3.4,3.9c0.9,0.7,1.8,1.5,2.8,2.1c0.9,0.6,2,1.1,2.9,1.7c0.1,0.1,0.3,0.1,0.4,0.1c1.2,0.2,2.5,0.4,3.7,0.6
		c1.3,0.2,2.7,0.5,4,0.7c0.1,0,0.3,0,0.5,0c-0.8-0.9-1.7-1.5-2.5-2.1c-1.3-1-2.5-2.1-3.9-3c-2-1.2-3.9-2.6-5.6-4.2
		C40.7,16,39.2,14.7,37.9,12.8z M183.1,181.9c-1.6,0.1-2.7,0.7-3.7,1.4c-0.9,0.6-1.5,1.4-2.2,2.4c-0.8,1.2-0.8,2.3-0.1,3.4
		c0.9,1.4,1.9,2.7,2.9,4c0.7,0.9,1.6,1.6,2.7,1.6c0.5,0,1.1,0,1.6-0.2c0.3-0.1,0.4-0.6,0.6-0.9c0.7-1.4,1.3-2.8,2.7-3.8
		c1.2-0.9,1.4-3.1,0.5-4.3c-0.5-0.7-1.1-1.4-1.6-2.1c-0.1-0.1-0.2-0.3-0.4-0.4c-0.6-0.3-1.2-0.5-1.9-0.7
		C183.8,182.1,183.3,182,183.1,181.9z M194.8,64c-0.2-1.1-0.4-2.1-0.6-3c-0.2-1-0.5-2-0.8-2.9c-0.3-0.9-0.6-1.9-1-2.8
		c-0.4-1-0.7-1.9-1.1-2.8c-0.4-0.9-0.7-1.8-1.3-2.7c-0.2,0.2-0.3,0.3-0.4,0.5c-0.8,1.9-1.6,3.7-2.3,5.6c-0.4,1.1-0.6,2.2-0.2,3.3
		c0.2,0.6,0.3,1.2,0.5,1.7c0.4,1.6,1,3.2,2.1,4.5c0.7,0.8,1.4,1.7,2.5,2C193.2,66.1,194,65,194.8,64z M32,32.6
		c3.4,1.2,6.3,3.2,9.6,4.3c0.3-0.6,0.6-1,0.8-1.5c0.4-0.8,0.6-1.6,1-2.4c0.9-1.6,1.7-3.4,3-4.7c0.1-0.1,0.1-0.4,0.2-0.6
		C46,27.2,45.2,27,44.5,27c-0.5,0-1.1-0.1-1.6-0.1c-1.4-0.2-2.7,0.1-4,1c-1.2,0.9-2.5,1.6-3.9,2.3C33.9,30.7,33.1,31.6,32,32.6z
		 M52.5,186.1c1.9-0.8,3.6-1.8,5.7-2.1c0.8-0.1,1.8,0.3,2,0.9c0.3,0.8,0.7,1.6,0.9,2.4c0.2,0.6,0.6,0.9,1.1,1.3
		c0.9,0.6,1.8,1.3,1.9,2.5c0.1,0.5,0.3,1.1,0.6,1.6c0.2,0.3,0.7,0.4,1,0.5c0.2,0,0.5-0.2,0.6-0.4c0.2-0.4,0-0.7-0.3-1
		c-1.5-1.3-2.5-3-3.4-4.8c-0.3-0.5-0.6-0.9-0.9-1.4c-0.5-0.7-0.9-1.4-1.3-2.1c2.7-1.9,5.4-3.7,8.1-5.6c0-0.1-0.1-0.1-0.1-0.2
		c-0.4,0.1-0.7,0.2-1.1,0.4c-1.3,0.6-2.6,1.3-4,1.9c-1.3,0.6-2.7,1.2-4,1.9c-1.4,0.8-3,1.2-4.6,1.5c-0.6,0.1-1.4,0-2-0.2
		c-0.9-0.4-1.9-0.6-2.8-0.7c-2.1-0.1-3.3-1.1-3.6-3.1c-0.2-1.5-0.4-3-0.6-4.5c-0.1-0.4-0.2-0.8-0.3-1.5c-0.4,0.7-0.7,1-0.9,1.5
		c-0.7,1.2-1,2.4,0,3.7c0.3,0.3,0.5,0.7,0.8,1.1c0.1,0.2,0.2,0.5,0.3,0.7c-0.3,0.2-0.5,0.3-0.7,0.5c0.5,0.5,1,1,1.5,1.4
		c0.6,0.4,1.2,0.8,1.9,1c0.7,0.2,1.4,0.3,2.1,0.3c0.9,0.1,1.1,0.4,0.7,1.2c-0.1,0.2-0.2,0.5-0.4,0.6c-0.9,0.5-1.4,1.2-2.1,1.9
		c-2,2-4.4,3.5-6.7,5.1c-0.6,0.5-1.3,0.9-2,1.3c0.5,0.4,0.9,0.7,1.3,1.1c0.9-0.8,1.9-1.6,2.8-2.4c1.3-1.1,2.7-2.2,3.9-3.4
		c1.1-1,2.1-2.2,3.1-3.3c0.4-0.4,0.7-0.5,1.1,0C52.3,185.9,52.4,186,52.5,186.1z M168.9,178.1c-0.5-1-0.9-1.9-1.3-2.8
		c-0.2-0.5-0.5-1.1-0.4-1.5c0.4-1.5,1.1-2.9,2.5-3.8c0.8-0.6,1.7-1.1,2.6-1.5c1.5-0.6,2.9-1.5,4.3-2.3c0.7-0.3,1.4-0.5,2.1-0.9
		c1.4-0.8,2.8-1.4,4.4-1.7c0.7-0.1,1.1,0.1,1.4,0.6c0.3,0.5,0.6,1.1,1,1.6c0-1.1,0-2.2-0.1-3.4c-0.1-1.2-1.1-2-2.3-1.9
		c-1.3,0.1-2.6,0.4-3.8,1.1c-1,0.6-2,1.2-3,1.7c0.1,0.2,0.2,0.3,0.2,0.5c0.1,0.6-0.3,0.9-0.8,0.6c-0.9-0.5-1.5-0.1-2.2,0.4
		c-0.9,0.6-1.8,1.3-2.7,1.8c-1.3,0.7-2.6,1.4-4,1.9c-0.9,0.4-1.5,1-1.8,1.9c-0.4,1.4-0.9,2.9,0,4.4c0.3,0.6,0.8,1.1,1.1,1.7
		C166.8,178,167.7,178.1,168.9,178.1z M42.5,37.6c0.9,0.5,1.7,1,2.5,1.4c0.2,0.1,0.5,0,0.7-0.2c1-1,2.1-2,3.1-3
		c0.6-0.6,1.2-1.1,1.9-1.6c0.7-0.6,1.4-1.1,2-1.7c0.6-0.5,1.1-1.1,1.7-1.6c0.6-0.6,1.2-1.1,1.9-1.7c-2.7-1-5.2-1.4-7.7-1.7
		c-0.6,0.8-1,1.6-1.6,2.2c-1.2,1.1-1.9,2.6-2.6,4.1C43.6,34.9,43.1,36.2,42.5,37.6z M25.8,208.9c-2.4,0-4.7,0.1-7.1,0.1
		c-1.8,0-3.7,0-5.5-0.1c-0.5,0-0.8,0.1-1,0.5c-0.5,0.8-1.1,1.6-1.6,2.4c-0.5,0.9-1,1.8-1.5,2.8c0.7-0.1,1.2-0.1,1.7-0.2
		c1,0,1.9,0,2.9-0.1c2.8-0.3,5.7-0.6,8.5-0.8c0.5,0,1-0.2,1.3-0.6c0.8-1.2,1.6-2.4,2.4-3.7C25.9,209.2,25.8,209.1,25.8,208.9z
		 M189,169.7c0.4-0.1,0.7-0.1,0.9-0.2c1.1-0.2,2.2-0.6,3.4-0.3c1.1,0.4,2.2,0.8,3.3,1.3c0.6,0.3,1.1,0.8,1.4,1.4
		c0.6,1.1,1.1,2.4,1.9,3.4c0.6,0.8,0.9,1.9,1.4,2.8c0.4,0.7,0.8,1.5,1.4,2c0.6,0.5,1.3,1.1,1.7,1.7c0.7,1.2,1.4,2.4,1.5,3.8
		c0.1,1,0.2,2.1-0.7,2.9c-0.8,0.6-1.6,1.1-2.3,1.6c0,0,0.1,0.1,0.2,0.1c1.1,0,2.2,0.1,3.3,0c0.4,0,0.9-0.6,1-1
		c0.2-1.5,0.6-2.9,0.3-4.4c-0.5-2.4-1.8-4.3-3.1-6.3c-0.7-1.1-1.7-2.1-2.4-3.2c-1.2-1.9-2-3.9-3.4-5.7c-0.6-0.8-1.1-1.6-1.8-2.3
		c-1.2-1.2-2.9-0.9-4.4-1c-0.1,0-0.2,0-0.3,0.1C190.9,167.5,189.6,168.1,189,169.7z M207,197.3c0,1.3-0.9,1.7-1.7,2.1
		c-0.2,0.1-0.3,0.3-0.5,0.4c-1,0.8-1.9,1.7-2.9,2.6c-0.6,0.6-1.3,1-1.7,1.7c-0.5,0.8-1.1,1.5-1.8,2.2c-1.3,1.3-2.6,2.5-3.9,3.8
		c-2.3,2.5-5,4-8.6,3.4c-1-0.2-1.9-0.3-2.7-1c0,0-0.1,0-0.4,0.1c0.3,0.5,0.5,1.2,1,1.5c0.8,0.5,1.8,0.8,2.8,0.9
		c1.5,0.2,3.1,0.2,4.6-0.3c1.2-0.4,2.1-1,2.8-2.1c0.5-0.8,1-1.6,1.9-2.1c1.1-0.6,2.1-1.2,3.1-1.8c1.1-0.6,2.3-1.2,3.3-1.9
		c0.8-0.5,1.7-1.1,2.2-1.8c0.8-1,1.5-2,2-3.2c0.3-0.8,0.8-1.6,1.2-2.4C208.2,198.7,208,198,207,197.3z M21.6,215c-0.9,0-1.7,0-2.4,0
		c-2,0.1-4,0.3-6,0.5c-0.8,0.1-1.6,0.1-2.4,0.2c-3.1,0.3-3.1,0.4-4.2,3.2c-0.1,0.3-0.3,0.6-0.3,1c-0.1,0.3,0,0.6,0,1
		c2.2,0.5,4.2-0.1,6.3-0.3c1.1-0.1,2.2-0.4,3.4-0.1c0.2,0,0.4,0,0.6,0c1.8-0.5,2.3-0.8,3.4-2.4c0.5-0.7,1-1.5,1.5-2.3
		C21.5,215.5,21.5,215.3,21.6,215z M42.3,25.4c0-0.1,0.1-0.2,0.1-0.3c-0.3-0.2-0.7-0.4-1-0.6c-0.3-0.2-0.7-0.4-1-0.7
		c-0.4-0.4-0.8-1-1.3-1.4c-0.5-0.4-1.1-0.8-1.6-1.2c-0.5-0.5-1-1.1-1.5-1.7c-1-1.2-2-2.5-3-3.7c-0.8-0.9-0.8-0.9-1.8-0.3
		c-1.4,0.7-2.9,1.4-4.3,2.2c-0.2,0.1-0.4,0.3-0.7,0.5c0.6,0.8,1.1,1.7,1.8,2.2c1.5,1,2.8,2.2,4.7,2.7c2.1,0.5,4.2,1.3,6.3,1.9
		C40,25.1,41.2,25.2,42.3,25.4z M182.8,54.2c0.5-0.3,0.5-0.6,0.5-0.9c0-0.7,0-1.5,0-2.2c0.1-0.8,0.2-1.5-0.2-2.2
		c-0.1-0.2,0-0.4-0.1-0.7c-0.2-1.2-0.3-2.5-0.7-3.6c-0.4-1.3-0.6-2.6-0.4-4c0-0.3,0.1-0.5,0-0.8c-0.3-1.7-0.3-3.4-0.1-5.1
		c0.1-1.1,0.1-2.2,0.1-3.4c0-0.5-0.3-1-0.4-1.5c-0.1-0.5,0-1-0.4-1.4c-0.4,1.4-0.8,2.7-1.2,4c-0.2,0.6-0.5,1.3-0.6,1.9
		c-0.4,2.3-0.8,4.5-1.1,6.8c-0.2,1.6,0.3,3.1,1,4.4c0.6,1.2,1.3,2.4,2.1,3.5c0.6,0.9,0.8,1.8,1,2.8
		C182.4,52.6,182.6,53.4,182.8,54.2z M210.3,54.8c-1.5,0.9-2.7,1.7-4,2.3c-0.9,0.5-1.9,0.7-2.8,1c-0.1,0-0.2,0-0.3,0
		c-0.4-0.1-0.9-0.2-1.3-0.3c-0.4-0.1-0.9-0.3-1.2-0.1c-0.3,0.2-0.5,0.7-0.7,1.1c-0.1,0.1-0.1,0.2-0.2,0.3c-0.7,1.1-1.3,2.2-2,3.3
		c-0.1,0.1,0,0.3,0,0.4c3.3,0.8,6.5,0.8,10-1c0.6-0.3,0.9-0.7,1.2-1.2c0.8-1.4,1-3,1.4-4.5C210.5,55.7,210.4,55.3,210.3,54.8z
		 M204,48.3c-0.6,1.6-1.1,3.1-1.6,4.5c-0.3,0.9-0.7,1.8-1,2.8c-0.1,0.2,0,0.7,0.1,0.8c0.8,0.2,1.5,0.7,2.4,0.4
		c2.5-1,4.9-2.3,6.9-4.1c0-1.7,0-3.3,0-5c-1.2,0.4-2.5,0.6-3.7,1.1C206,49.2,205,49.2,204,48.3z M68.3,192.9
		c0.3,0.9,0.5,1.7,0.7,2.4c0.2,1,0.5,1.9,1.4,2.4c0,0.4-0.1,0.8,0,1.2c0.7,2,1.4,4.1,2.6,5.9c0.5,0.8,0.9,1.7,1.3,2.6
		c0.6,1.4,1,2.9,1.2,4.4c0.1,0.8,0.4,1.6,0.4,2.4c0.1,1.5,0.2,2.9,0.3,4.4c0,0.2,0.1,0.3,0.2,0.5c0.3-0.8,0.4-1.5,0.4-2.3
		c0.2-2.2-0.4-4.3-0.2-6.5c0.2-1.6-0.3-3.2-0.6-4.8c-0.5-2-1.4-3.8-2-5.7c-0.6-1.9-1.8-3.4-3-4.9C70.4,194,69.6,193.3,68.3,192.9z
		 M4.2,227.6c0.5,0,1,0,1.4,0c0.5,0,1-0.1,1.5-0.1c1.5-0.1,2.9-0.2,4.4-0.4c0.3,0,0.6-0.1,0.8-0.3c0.6-0.6,1.1-1.3,1.7-2
		c0.5-0.6,1-1.3,1.6-1.9c0.3-0.4,0.7-0.8,1.1-1.3c-2.7-0.1-5.1,0.1-7.5,0.4c-0.3,0-0.7,0-1,0c-0.8,0-1.6,0-2.5,0
		C5,223.8,4.5,225.6,4.2,227.6z M23.3,156.7c0.5,1.9,1,3.5,1.4,5.1c0.1,0.2,0.4,0.5,0.7,0.5c0.9,0,1.8-0.1,2.7,0
		c0.8,0,1.6,0.1,2.3,0.2c1.4,0.2,2.8,0.5,4.4,0.7c-0.3-1.5-0.6-2.9-1.2-4.2c-0.3-0.7-0.7-1-1.5-1c-1.6,0-3.1-0.7-4.7-0.5
		c-0.2,0-0.4-0.1-0.7-0.1C25.7,157,24.6,156.8,23.3,156.7z M30,203c-0.2,0-0.3-0.1-0.4-0.1c-2.3,0.7-4.6,0.8-6.9,0.9
		c-0.7,0-1.4,0.2-2.1,0.3c-0.4,0-0.7,0-1.1,0.1c-0.9,0.1-1.9,0-2.7,0.4c-1.2,0.6-2.1,1.7-2.8,3c0.2,0.1,0.3,0.2,0.4,0.2
		c1.4,0,2.9,0.1,4.3,0.1c2.1,0,4.3-0.2,6.4-0.2c1.1,0,1.8-0.1,2.4-1.2C28.1,205.1,29.1,204.1,30,203z M190.2,86.2
		c0.8-1.4,0.6-2.1-0.6-2.4c-0.1,0-0.3-0.1-0.4-0.1c-1.6,0-2.8-1.1-4.3-1.5c-0.3-0.1-0.7-0.7-0.7-1.2c-0.1-0.4,0.4-0.6,0.9-0.7
		c0.5-0.1,1-0.3,1.5-0.4c0.1-0.3,0.2-0.6,0.4-0.9c0.5-0.7,0.8-1.5,1-2.4c0.2-0.8,0.7-1.5,0.8-2.4c0.1-0.7-0.1-1.1-0.6-1.4
		c-1.2,0.8-1.3,2-1.5,3.2c-0.2,1.7-0.9,3.1-2.6,4c-1.2-1.3-2.3-2.7-3-4.4c-0.3-0.8-0.4-1.7-0.6-2.5c-0.6-2.4-1.2-4.8-1.3-7.3
		c0-0.2-0.1-0.3-0.2-0.6c-0.4,0.2-0.7,0.4-1.1,0.5c0.1,0.6,0.1,1.2,0.2,1.8c0.1,0.7,0.5,1.3,0.5,2c0,1.7,0.5,3.2,1.1,4.7
		c0.7,1.7,1,3.5,1.5,5.2c0.1,0.2,0,0.5-0.1,0.6c-0.8,1.2-1.5,2.5-2.7,3.3c-0.6,0.4-1.2,0.9-1.8,1.3c-0.1,0.1-0.1,0.3-0.2,0.5
		c0.2,0.1,0.4,0.1,0.6,0.1c0.1,0,0.2-0.2,0.4-0.3c0.6-0.4,1.2-0.8,1.8-1.2c0.6-0.4,1.2-0.7,1.8-1.1c1.2-0.8,2.3-1.2,3.7-0.2
		c0.9,0.6,2,0.9,3,1.2c1,0.3,1.9,0.6,2.1,1.8C189.8,85.7,190,85.9,190.2,86.2z M202.2,39.2c-0.4,0.2-0.6,0.2-0.7,0.3
		c-1.1,0.6-2.2,1.3-3.3,1.9c-1.2,0.7-1.3,0.8-0.8,2.2c0.6,1.5,1.4,3,1.5,4.7c0,0.4,0.1,0.7,0.2,1.1c0.3,1.3,0.7,2.5,1,3.8
		c0,0.1,0.2,0.2,0.4,0.3c0.2-0.3,0.3-0.5,0.4-0.7c0.7-1.9,1.4-3.8,2.1-5.7c0.1-0.3,0.1-0.7,0-1c-0.4-0.8-0.3-1.6-0.4-2.4
		C202.5,42.3,202.4,40.8,202.2,39.2z M206.7,63.7c-0.2,0-0.3,0-0.4,0c-0.2,0-0.4,0.1-0.7,0.1c-2.2,0.6-4.5,0.8-6.8,0.4
		c-0.7-0.1-1.5-0.1-2.3,0c-0.2,0-0.4,0.3-0.6,0.4c-0.7,0.8-1.3,1.6-2,2.5c-0.4,0.5-0.7,1-1.1,1.6c0.2,0.2,0.4,0.4,0.6,0.4
		c1.2,0.2,2.5,0.3,3.7,0.4c0.2,0,0.4-0.1,0.7-0.2c1.3-0.4,2.5-1.2,3.9-1.1c0.2,0,0.4-0.1,0.5-0.2c1.8-1.1,3.1-2.7,4.5-4.2
		C206.7,63.9,206.7,63.8,206.7,63.7z M28.4,169.3c0.2,1.6,2.5,4.6,4.4,5.8c0.4-0.2,0.8-0.5,1.2-0.6c1.6-0.1,3.2-0.4,4.8,0
		c0.5,0.1,1.1,0.2,1.9,0.2c-0.4-0.7-0.7-1.2-1-1.7c-0.4-0.6-0.8-1.3-1.3-1.8c-1.1-1-2.3-1.7-3.8-1.6c-0.3,0-0.5-0.1-0.8-0.2
		c-1.4-0.5-2.8-0.4-4.2-0.4C29.2,169.1,28.8,169.2,28.4,169.3z M22,150c0.3,1.9,0.2,3.8,1.1,5.4c1,0.1,2,0.1,2.9,0.3
		c0.8,0.1,1.6,0.3,2.4,0.4c0.7,0.1,1.3,0.2,2,0.4c0.7,0.2,1.4,0.2,2.1,0.1c0-0.3,0.1-0.5,0-0.7c-0.5-1.2-1-2.3-1.6-3.5
		c-0.1-0.3-0.5-0.5-0.8-0.6c-1-0.3-2.1-0.6-3.2-0.9c-1.4-0.3-2.8-0.6-4.3-0.9C22.6,150,22.3,150,22,150z M75,65
		c0.6,0.3,1,0.5,1.4,0.6c2,0.2,4,0.4,6,0.5c0.4,0,0.8-0.1,1.1-0.3c0.9-0.6,1.8-1.2,2.6-1.8c1.2-1,2.4-2.1,3.8-2.8
		c0.2-0.1,0.3-0.2,0.5-0.3c1.3-0.9,2.5-1.8,3.8-2.7c0.2-0.1,0.3-0.2,0.5-0.3C88.1,60.1,81.4,61.8,75,65z M25.5,163.7
		c0.3,0.9,0.6,1.7,0.9,2.4c0.5,1.6,1.3,2,2.9,1.8c1-0.1,2.1-0.2,3.1-0.1c1.1,0.1,2.2,0.5,3.3,0.8c0.3,0.1,0.7,0.1,1.1,0.1
		c0-0.6-1-3.7-1.3-4c-0.2-0.2-0.4-0.3-0.7-0.4c-2.6-0.5-5.2-1-7.8-0.9C26.5,163.4,26.1,163.6,25.5,163.7z M19.6,22
		c0.4,0.3,0.6,0.4,0.9,0.6c1.1,0.8,2.4,1.2,3.6,1.5c0.8,0.2,1.5,0.3,2.2,0.7c0.3,0.2,0.7,0.3,1,0.6c0.4,0.5,0.7-0.1,1,0
		c0.4,0.1,0.8,0.2,1.2,0.2c1.8,0,3.6-0.1,5.4-0.2c0.2,0,0.4-0.1,0.5-0.1c-4.4-1-8.1-3-10.8-6.6C22.9,19.8,21.3,20.9,19.6,22z
		 M213.1,39.4c-0.1-0.1-0.2-0.1-0.2-0.2c-0.3,0.2-0.6,0.5-1,0.6c-1.1,0.4-2.2,1.4-3.5,0.6c-0.8,0.8-3.6,5.8-3.9,6.8
		c0.6,0.6,1.4,0.5,2.2,0.4c1.2-0.2,2.4-0.7,3.5-1.2c0.7-0.2,1-0.5,1.1-1.2c0.1-1,0.3-1.9,0.8-2.8C212.5,41.5,212.7,40.5,213.1,39.4z
		 M18.5,203c0.3,0.1,0.4,0.2,0.5,0.2c2.1-0.7,4.3-0.4,6.5-0.8c1-0.2,2.1,0.2,3.1-0.3c0.7-0.3,1.5-0.3,2.2-0.5
		c0.4-0.1,0.9-0.4,1.1-0.7c0.5-0.9,1.2-1.4,2-2c0.2-0.2,0.4-0.4,0.6-0.6c-1,0.1-1.8,0.1-2.5,0.2c-1.9,0.2-3.8,0.5-5.7,0.7
		c-1.1,0.1-2.3,0.1-3.1,1c-0.1,0.1-0.1,0.1-0.2,0.1C21.4,201,20.1,201.9,18.5,203z M36.3,163.3c0.3-0.4,0.5-0.5,0.5-0.6
		c0.4-0.6,0.8-1.3,1.2-1.9c0.6-1,1.2-1.9,1.8-2.8c0.8-1.1,1.1-2.1,0.3-3.4c-0.7-1.2-1.3-2.6-2.1-4.1c-0.2,0.6-0.3,0.8-0.3,1.1
		c-0.4,1.6-1,3.1-2,4.5c-0.7,1-1.5,2.1-0.5,3.5c0.3,0.4,0.2,0.9,0.4,1.4C35.8,161.6,36,162.3,36.3,163.3z M36.8,164.3
		c0.5,1.5,1,2.8,1.5,4.2c0.1,0.3,0.3,0.5,0.6,0.5c1.4-1.8,2.7-3.5,4-5.3c0.3-0.4,0.5-0.9,0.3-1.4c-0.3-0.9-0.5-1.8-0.9-2.7
		c-0.2-0.6-0.4-1.3-1-1.9c-0.7,1-1.3,1.9-1.9,2.8c-0.5,0.8-1,1.5-1.3,2.4C37.8,163.5,37.5,164.1,36.8,164.3z M31.8,203.2
		c-1.5,1.4-2.5,2.8-3.4,4.3c-0.2,0.4-0.1,0.8,0.2,1.1c0.8,0.6,1.1,1.5,1.4,2.5c0.2,0.9,0.7,1.6,1,2.4c0.2,0,0.3,0,0.4-0.1
		c1-1.1,2-2.3,3-3.4c0.3-0.4,0.2-0.8,0-1.3c-0.4-1-0.8-2-1.3-3C32.7,205,32.3,204.2,31.8,203.2z M42.8,175.6c0.5-1,0.9-1.7,1.3-2.5
		c0.9-1.6,1.3-3.2,0.6-5c-0.2-0.4-0.1-0.8-0.3-1.2c-0.3-0.9-0.1-1.9-0.8-2.7c-0.3,0.3-0.5,0.6-0.7,0.8c-1,1.3-1.9,2.6-2.9,3.9
		c-0.2,0.3-0.4,0.6-0.5,0.9c-0.1,0.2,0,0.5,0.1,0.7c0.5,0.9,0.9,1.7,1.5,2.6C41.7,174,42.2,174.8,42.8,175.6z M175.7,58.5
		c-0.1-0.5-0.1-0.9-0.3-1.1c-0.7-1.2-1-2.6-1.2-4c-0.1-0.6-0.3-1-0.9-1.3c-1.3-0.6-2.6-1.4-3.9-2.1c-0.3-0.2-0.7-0.2-1.2-0.4
		c0,0.8,0,1.4,0.1,1.9c0.4,1.4,0.8,2.8,1.3,4.2c0.3,0.8,0.7,1.6,1.9,1.5c0.2,0,0.3,0.1,0.5,0.2C173.2,57.7,174.3,58.1,175.7,58.5z
		 M75,217c0.3-1.7-0.6-3.1-0.5-4.6c-1.6-0.6-3-1.6-4.7-1.8c-0.2,0-0.4-0.2-0.6-0.3c-0.6-0.4-1.2-0.5-1.9-0.4c0,1.6,0,3.1,0,4.8
		c1.2,0,2.3,0.1,3.4,0.6C72.1,216,73.5,216.4,75,217z M161.6,6.8c0.1-1.2-0.4-2.6-1.6-3.8c-0.1-0.1-0.2-0.2-0.2-0.3
		c-0.5-0.6-1.3-0.7-2-0.3c-1.2,0.7-1.9,1.9-2.5,3.1c-0.3,0.6-0.1,1,0.4,1.3c0.9,0.6,1.8,1.2,2.2,2.3c0.2,0.6,1,0.8,1.6,0.7
		C160.9,9.6,161.6,8.7,161.6,6.8z M25.4,30.5c0,0.1,0,0.2,0,0.3c1.3,0.4,2.6,0.9,4,1.3c0.3,0.1,0.6,0.1,0.9,0.1
		c0.3,0,0.6-0.1,0.8-0.3c1.3-1.8,3-3,5.1-3.8c0.5-0.2,0.9-0.5,1.1-1.1c-2.5,0-4.8,0-7.2,0c-0.6,0-1.2,0.3-1.5,1
		c-0.1,0.3-0.5,0.6-0.9,0.9C26.9,29.4,26.2,29.9,25.4,30.5z M25.9,218.9c1.2-1.1,2.2-2.1,3.3-3.1c0.2-0.2,0.5-0.5,0.6-0.8
		c0.1-0.3,0.2-0.7,0.1-1c-0.4-1.1-0.7-2.1-1.2-3.2c-0.3-0.6-0.6-1.2-1.3-1.5c-1.1,1.6-2.2,3.1-3.2,4.7c-0.1,0.2-0.1,0.6,0,0.8
		c0.3,1.1,0.7,2.1,1.1,3.2C25.5,218.3,25.7,218.5,25.9,218.9z M113.8,9.1c0.2,1.9,0.1,2.1,1.8,3.2c0.7,0.5,1.5,0.6,2.2,0.1
		c0.9-0.6,1.7-1.3,2.5-2.1c0.5-0.5,0.4-1.3,0.1-1.8c-0.2-0.3-0.4-0.7-0.5-1c-0.5-1-1.7-1.5-2.8-1.2c-1.2,0.3-2.2,1-2.9,2
		C114,8.5,113.9,8.9,113.8,9.1z M34.5,145.2c-0.1,0.2-0.2,0.2-0.2,0.3c-0.7,1.7-1.3,3.4-1.9,5.1c-0.2,0.4-0.2,1,0,1.4
		c0.5,1.5,1.2,2.9,1.8,4.4c1.8-2.4,2.6-5.1,3.2-7.9C36.4,147.5,35.5,146.4,34.5,145.2z M173.8,163.5c-0.9-1-1.5-2.1-1.6-3.3
		c-0.1-1.1-0.5-2-0.8-2.9c-0.2-0.5-0.3-1-0.5-1.5c-0.5-1-0.6-2.2-1.4-3c-0.2-0.3-0.4-0.7-0.6-1c-0.5-0.7-0.7-1.6-1.5-2.1
		c-1.2-0.8-2.4-1.7-3.7-2.4c-1.9-1.1-3.9-2.1-5.3-3.8c-0.1-0.2-0.4-0.2-0.6-0.4c0.5,1.2,1.2,2.2,2.1,3.1c0,0.1,0.1,0.1,0.2,0.1
		c1.4,0.2,2.4,1.2,3.4,2.1c0.8,0.6,1.4,1.5,2.4,1.8c0.3,0.1,0.4,0.4,0.6,0.6c1.3,1.6,2.6,3.3,3.1,5.4c0.2,1.1,0.8,2.3,0.5,3.4
		c-0.2,0.9,0.1,1.6,0.7,2.3c0.5,0.6,1.1,1.1,1.7,1.7C173,164.2,173,164.2,173.8,163.5z M30.2,150.4c0-0.2,0.1-0.3,0-0.4
		c-0.4-1-0.9-2-1.4-3c-0.2-0.3-0.5-0.6-0.8-0.7c-1.7-0.2-3.1-1.1-4.7-1.7c-0.5-0.2-1.1-0.6-1.7-0.1c0.1,1.3,0.1,2.7,0.2,4.1
		C24.8,149,27.4,150.2,30.2,150.4z M176.9,190.5c-0.1,0-0.1,0.1-0.2,0.1c0,0.4-0.1,0.9,0.1,1.3c0.3,0.6,0.6,1.4,1.1,1.8
		c0.9,0.6,1.6,1.4,2.2,2.3c0.4,0.5,0.7,0.7,1.3,0.7c0.9,0.1,2-0.1,2.6,1c0,0.1,0.3,0.1,0.4,0.1c1.5,0.2,2.3-0.4,2.5-1.8
		c0-0.1,0.1-0.2,0.1-0.3c0-1.3,0.8-2,1.7-2.6c1.1-0.7,1.9-1.7,2.3-2.9c0.1-0.4,0.1-0.7-0.3-1c-0.4-0.2-0.6-0.5-0.4-1
		c0.3-0.1,0.5-0.1,0.7-0.2c0.1-0.8-0.3-1.3-0.9-1.7c-0.2,1-0.3,2-0.5,2.9c-0.1,0.6-0.4,1.1-0.9,1.4c-1,0.6-1.6,1.4-2.1,2.4
		c-0.2,0.5-0.5,1-0.6,1.6c-0.2,0.6-0.6,0.9-1.1,1c-0.8,0.2-1.6,0.2-2.5,0.2c-1.2-0.1-2-0.9-2.8-1.8c-0.7-0.8-1.3-1.7-1.9-2.6
		C177.4,191.2,177.1,190.9,176.9,190.5z M177.3,58.1c0.1-0.1,0.1-0.3,0.2-0.4c0.9-1.5,2.2-2.5,3.3-3.8c0.5-0.6,0.6-1,0.4-1.7
		c-0.1-0.2-0.2-0.4-0.2-0.7c0.1-1-0.6-1.6-1.2-2.6c-1.6,1.3-2.8,2.9-4.4,3.8C175.3,54.8,176.3,56.3,177.3,58.1z M168.5,41.6
		c-0.8,1.2-0.8,2.6-1,3.9c-0.1,0.5,0,1.1,0.2,1.7c0.1,0.3,0.3,0.7,0.6,0.9c0.8,0.5,1.7,1,2.6,1.4c0.8,0.4,1.6,0.7,2.6,1.2
		c-0.2-1.6-0.3-2.9-0.5-4.1c0-0.2-0.3-0.4-0.5-0.6c-0.6-0.6-1.2-1.2-1.8-1.8C170,43.3,169.5,42.3,168.5,41.6z M2.8,233.6
		c0.5,0.1,0.8,0.2,1.2,0.1c0.6,0,1.3,0,1.9-0.2c0.6-0.1,1.3-0.2,1.8-0.6c1.1-0.9,2.1-1.9,2.7-3.2c0.2-0.4,0.4-0.8,0.6-1.2
		c-0.3-0.1-0.4-0.1-0.5-0.1c-1.6,0.2-3.2,0.6-4.7,0.4c-1.7-0.1-2.3,0.5-2.5,2C3.2,231.7,3,232.6,2.8,233.6z M18.9,221.5
		c-1.9,1.8-3.7,3.4-4.8,5.5c0.5,1.5,1,2.9,1.5,4.4c0.2-0.2,0.4-0.2,0.5-0.4c1.2-1.6,2.4-3.3,3.6-4.9c0.1-0.2,0.2-0.4,0.2-0.6
		C19.6,224.2,19.2,222.9,18.9,221.5z M44.5,180.5c-0.5-0.9-1-1.6-1.5-2.4c-0.7-1.2-1.8-1.9-3.1-2.3c-1.5-0.4-3.1-0.2-4.6-0.2
		c-0.5,0-1.1-0.2-1.6,0.3C35.6,178.3,41.6,180.8,44.5,180.5z M111.7,195.4c-0.1-0.8-0.1-1.3-0.1-1.9c0-0.5-0.3-0.8-0.9-0.8
		c-0.5,0-1-0.2-1.4-0.3c-0.9-0.3-1.2-0.3-1.7,0.5c-0.1,0.2-0.2,0.4-0.4,0.5c-0.9,0.9-1.1,2.1-1,3.3c0.1,1.3,1.1,2.3,2.1,2.1
		C110.2,198.4,111.6,197.3,111.7,195.4z M135.7,14.3c1.1,0,1.3,0,1.5-0.5c0.4-1,0.8-2.1,0.5-3.3c-0.2-0.7-0.3-1.4-0.6-2
		c-0.2-0.4-0.6-0.9-1-1.1c-1.3-0.5-3.5,1.2-3.5,2.5c0,1.1,0.4,2.1,1,3c0.2,0.3,0.9,0.8,1.2,0.7C135.4,13.3,135.6,13.6,135.7,14.3z
		 M159.4,38.9c-0.1-0.5-0.3-0.9-0.3-1.4c0-0.9-0.7-1.2-1.3-1.3c-0.6-0.2-1.3,0-1.8,0.6c-0.2,0.3-0.6,0.5-0.9,0.7
		c-0.9,0.7-1.5,1.5-1.5,2.8c0,1.1,0.7,1.6,1.6,2c1.3,0.6,3.4-0.2,3.8-1.5C159.1,40.1,159.2,39.5,159.4,38.9z M35.6,208.6
		c1-0.7,2-2.1,2.4-3.3c-0.5-1.1-0.9-2.1-1.3-3.1c-0.4-1-0.8-2-1.3-3.2c-1.1,1.1-2,2.1-2.9,2.9C33.5,204.2,34.6,206.4,35.6,208.6z
		 M11.8,83.8c0.5-0.1,1.2-0.1,1.8-0.7c0.6-0.6,0.6-0.6,0.2-1.4c-0.2-0.5-0.6-1-0.4-1.7c0.1-0.2-0.2-0.6-0.4-0.8
		c-0.5-0.4-1.1-0.7-1.6-1c-1.2-0.9-2.5-0.6-3.1,0.8c-0.6,1.4,0.1,2.6,0.9,3.6C9.8,83.3,10.6,83.9,11.8,83.8z M13.2,228.3
		c-0.1,0-0.2,0-0.3,0c-0.3,0.4-0.7,0.8-1,1.2c-0.4,0.7-0.7,1.6-1.3,2.1c-1.3,1.1-1.5,2.4-1.2,3.9c0.1,0.6,0,1.2-0.1,1.8
		c0.2,0,0.2,0.1,0.3,0.1c0.1,0,0.3-0.1,0.4-0.2c1.4-1,2.8-2.2,3.9-3.5c0.3-0.4,0.5-0.8,0.3-1.4c-0.2-0.7-0.2-1.5-0.4-2.2
		C13.8,229.5,13.5,228.9,13.2,228.3z M67.6,220.2c0.2,0,0.3,0,0.5,0c1.7-0.6,3.4-0.4,5.1,0.2c0.6,0.2,1.3,0.4,2,0.6c0-1,0-1.8,0-2.6
		c-0.8-0.4-1.6-0.7-2.4-1c-1-0.4-2.1-0.7-3.1-1.1c-0.8-0.3-1.6-0.3-2.4-0.1C67.2,217.6,67,218.9,67.6,220.2z M41,98.4
		c-1-0.8-1.1-2-1.4-3c-0.7-0.4-1.3-0.7-1.9-0.9c-0.4-0.2-0.9-0.4-1.2-0.1c-0.5,0.5-0.9,1.1-1.2,1.7c-0.4,0.8,0,1.6,0.4,2.3
		c0.6,1.2,1.4,2,2.8,2c0.8,0,1.3-0.3,1.7-0.9C40.5,99.3,40.7,98.9,41,98.4z M74.1,211c-0.3-1.7-0.6-3.1-1.5-4.3
		c-0.1-0.2-0.3-0.3-0.5-0.4c-1.5-0.8-2.9-1.5-4.4-2.3c-0.1,0-0.2-0.1-0.2-0.1c0,1.3,0,2.6,0,4c0,0.5,0.2,0.7,0.7,0.9
		c1.7,0.5,3.5,1,5.1,1.9C73.4,210.7,73.6,210.8,74.1,211z M75.1,222.3c-0.8-0.3-1.7-0.5-2.5-0.8c-1-0.5-2-0.6-3.1-0.6
		c-1.1-0.1-1.8,0.8-1.5,1.9c0.2,0.7,0.4,1.3,0.7,1.9c0.3,0.8,0.6,0.9,1.4,0.6c0.4-0.1,0.7-0.3,1.1-0.3c1.3,0,2.7,0,4.1,0
		C75.3,224,75.2,223.2,75.1,222.3z M141.6,220.6c-0.1-0.8-0.5-1.7-1.2-2.6c-0.1-0.2-0.4-0.3-0.7-0.4c-1.4-0.5-3.5,0.6-3.9,2.1
		c-0.1,0.5,0,1,0.1,1.5c0.1,0.4,0.5,0.4,0.9,0.5c0.2,0.1,0.4,0.3,0.6,0.4c0.4,0.3,0.8,0.8,1.3,0.9
		C140.2,223.5,141.5,222.5,141.6,220.6z M119,27.4c1.2,0,2.5-0.9,2.9-1.8c0.1-0.2,0.1-0.4,0-0.6c0-0.8-0.1-1.5-0.2-2.3
		c0-0.2-0.1-0.6-0.2-0.7c-0.6-0.4-1.2-0.7-2-0.4c-1,0.4-1.8,1.1-2.4,1.9c-0.7,0.8-0.7,2.1-0.1,2.9c0.2,0.2,0.4,0.4,0.6,0.5
		C118.1,27.2,118.7,27.3,119,27.4z M23.1,215.5c-0.8,1.1-1.4,2-2.1,3c-0.3,0.5-0.7,0.9-0.9,1.4c-0.1,0.3-0.2,0.7-0.2,0.9
		c0.3,1.1,0.7,2.3,1.1,3.4c1.1-0.7,3.8-3.8,4.1-4.6C24.4,218.3,23.8,217,23.1,215.5z M109.4,236c-0.6,0.5-1.3,0.9-1.9,1.4
		c-0.9,0.8-0.9,1.1-0.3,2.1c0.2,0.3,0.5,0.6,0.6,0.9c0.3,0.6,0.7,1,1.3,1.2c0.7,0.2,1,0.6,1.1,1.4c0.5-0.3,0.8-0.5,1.1-0.7
		c0.3-0.3,0.4-0.6,0.7-0.9c0.5-0.6,0.6-1.2,0.5-2c-0.1-0.8-0.8-0.8-1.2-1c-0.2-0.6-0.2-1.2-0.5-1.6C110.5,236.5,110,236.3,109.4,236
		z M27.6,145.1c0.1-0.1,0.1-0.1,0.2-0.2c-0.1-0.3-0.2-0.6-0.4-0.9c-0.8-1.2-1.5-2.5-2.4-3.7c-0.9-1.4-2.3-1.5-3.9-1.5
		c0.1,1.6,0.2,3,0.3,4.6c1.7-0.3,3,0.5,4.3,1.1C26.3,144.8,27,144.9,27.6,145.1z M40.4,195.6c-0.8-0.5-1.3-0.3-1.7,0.3
		c-0.3,0.3-0.7,0.6-1,0.9c-1.2,1-1.3,1.4-0.7,2.8c0.1,0.1,0.1,0.3,0.1,0.4c0.5,1.4,1.1,2.7,1.7,4.3C40.1,201.5,41,198.7,40.4,195.6z
		 M134.8,233.7c0.7-0.2,1.4-0.4,2-0.7c0.6-0.3,1.3-0.7,1.3-1.4c0-0.7-0.2-1.6-0.9-2.1c-0.8-0.5-1.6-1-2.4-1.3
		c-0.2-0.1-0.8,0.1-1,0.4c-0.4,0.5-0.8,1-1,1.6c-0.2,0.4-0.2,0.9-0.1,1.3c0.1,0.5,0.4,0.9,0.7,1.4
		C133.7,233.5,134.2,233.7,134.8,233.7z M207.3,35.6c-0.3,0.2-0.5,0.3-0.7,0.4c-0.7,0.5-1.4,1.2-2.2,1.6c-0.8,0.4-1.1,1-0.9,1.9
		c0,0.1,0,0.3,0,0.5c0,1.4,0.5,2.8,0.2,4.3c0,0.2,0.1,0.4,0.2,0.7c0.3-0.4,0.6-0.7,0.8-1c0.6-1.1,1.3-2.2,1.9-3.3
		c0.3-0.6,0.6-1.1,0.9-1.7C208,37.8,208.1,36.8,207.3,35.6z M148.8,1.4c-1-0.1-1.6,0.5-2.3,1c-0.5,0.3-0.7,0.8-0.7,1.3
		c-0.1,1,0.5,1.8,0.9,2.6c0.1,0.2,0.7,0.5,1,0.4c0.7-0.1,1.3-0.4,1.9-0.6c0.7-0.2,1.1-0.7,1.1-1.4c0-0.4,0.1-0.8,0.1-1.2
		C150.8,2.4,150,1.4,148.8,1.4z M25.5,26.2c0-0.1,0.1-0.2,0.1-0.3c-0.4-0.1-0.7-0.3-1.1-0.4c-0.6-0.2-1.2-0.2-1.7-0.4
		c-1.1-0.5-2.3-1-3.4-1.5c-0.7-0.3-1.4-0.5-2.1,0c-0.8,0.6-1.7,1.2-2.6,1.9c1.7,0.7,3.6,0.3,4.8,1.7C21.6,26.7,23.5,26.5,25.5,26.2z
		 M196.6,158.4c0.1-0.5,0.3-0.9,0.3-1.4c0-0.6,0-1.2,0.2-1.8c0.3-0.8-0.1-1.3-1-1.5c-0.3-0.1-0.7-0.2-1-0.3
		c-1.1-0.4-2.3-0.5-3.6-0.9c0.1,0.6,0.2,0.9,0.3,1.2c0.1,0.7,0.3,1.4,0.4,2.1c0,0.6,0.2,0.8,0.7,1
		C194.1,157.4,195.3,157.8,196.6,158.4z M61.7,209.6c1-1.4,1.8-2.6,2.7-3.7c1.4-1.8,1.7-3.8,0.9-6.1c-1,1.3-1.9,2.5-2.8,3.6
		c-1.1,1.3-1.1,2.8-0.9,4.4c0,0.3,0,0.5,0,0.8C61.6,208.8,61.7,209.1,61.7,209.6z M160.3,23.9c0.3,0.5,0.7,0.9,0.8,1.4
		c0.2,1.4,1.1,2.2,2.2,2.8c0.4,0.2,0.8,0.1,1.1-0.2c1.1-1.1,1.3-1.8,0.7-3.7c-0.3-1-1.1-1.5-2-1.5C161.9,22.7,160.9,23,160.3,23.9z
		 M177.5,44.5c-0.9,0.5-1.6,0.9-2.3,1.3c-0.7,0.4-1,0.8-0.9,1.6c0.2,1.1,0.4,2.1,0.6,3.2c0.1,0.7,0.5,0.8,1,0.3
		c1.1-1.1,2.1-2.1,3.3-3.3C178.8,46.7,178.2,45.7,177.5,44.5z M141.7,200.5c0.1-0.1,0.5-0.2,0.9-0.4c0.4-0.2,0.8-0.5,1.2-0.8
		c0.5-0.4,1.1-0.9,1.1-1.6c0-1.1-0.6-1.9-1.4-2.6c-0.4-0.3-0.9-0.3-1.3,0c-0.5,0.4-1.1,0.8-1.6,1.3c-0.3,0.3-0.4,0.8-0.4,1.2
		c-0.1,0.5,0,0.9,0,1.4C140.2,199.7,140.8,200.5,141.7,200.5z M189.9,74.6c3.2-0.8,6.3-2,8.9-4c-0.6,0-1.1,0.2-1.7,0.2
		c-1.7-0.1-3.4-0.2-5.1-0.3c-0.4,0-0.9-0.2-1.1,0.2c-0.3,0.7-0.6,1.5-0.6,2.2C190.3,73.5,190.5,74.1,189.9,74.6z M204,93
		c-0.4,1.1,0.3,1.7,0.4,2.5c0.2,1.2,1,1.6,2,1.7c1,0.1,1.9,0.5,2.8,0.8c0.6,0.3,1.3,0.4,2.1,0.7c-0.2-1-0.3-1.9-0.5-2.9
		c-0.4-0.1-0.9-0.3-1.3-0.4c-0.4,0.6,0,1.4-0.7,1.8c-0.6-0.1-0.7-0.5-0.7-0.9c0-0.4,0-0.8-0.1-1.1c-0.1-0.3-0.2-0.6-0.4-0.7
		C206.4,93.9,205.3,93.4,204,93z M31.4,149.5c0.3-0.4,0.5-0.6,0.6-0.8c0.4-0.9,0.6-1.8,1-2.6c0.6-1.4,0.5-2.5-0.9-3.3
		c-0.5-0.3-0.8-0.8-1.2-1.2c-0.5,1.2-1,2.2-1.5,3.2c-0.1,0.2-0.1,0.5,0,0.7C30,146.7,30.7,148,31.4,149.5z M191.9,151.3
		c1.3,0.4,2.5,0.8,3.7,1.1c0.4,0.1,1,0.3,1.3,0.1c1-0.4,1.9-1,2.9-1.6c-1.4-1.4-3-1.7-4.6-2.2c-0.2,0-0.4,0.2-0.6,0.3
		c-0.8,0.6-1.6,1.2-2.3,1.8C192.2,150.9,192,151.1,191.9,151.3z M62.7,214.6c2.9-1.7,4.1-7,3.2-8.8c-0.4,0.5-0.7,1.1-1.1,1.6
		c-0.8,1.2-1.7,2.4-2.5,3.6c-0.1,0.2-0.2,0.4-0.2,0.6C62.3,212.6,62.2,213.7,62.7,214.6z M168.9,40.4c1.4,0.8,2.1,1.9,2.8,3
		c0.3,0.5,0.6,0.9,1.2,1.1c0.7-1.4,0.3-2.9,0.5-4.3c0-0.1-0.1-0.2-0.1-0.3c-0.7-0.9-1.5-1.8-2.3-2.8
		C170.3,38.3,169.6,39.3,168.9,40.4z M75.9,229c-0.2-0.8-0.4-1.6-0.5-2.4c-0.1-0.5-0.4-0.7-0.9-0.7c-0.8,0-1.5,0-2.3,0
		c-0.7,0.1-1.5,0-2.2,0.7c0.6,1,1.1,2,1.7,2.9c0.1,0.2,0.5,0.4,0.7,0.3C73.7,229.5,74.9,229.6,75.9,229z M50.2,99.8
		c0.3-0.9-0.6-1.3-0.9-1.9c-0.3-0.5-0.9-0.7-1.4-0.5c-0.7,0.2-1.4,0.5-2,0.8c-0.5,0.3-0.6,0.9-0.4,1.4c0.2,0.8,0.6,1.5,1.4,2
		c0.8,0.5,1.6,0.3,2.3,0C49.9,101.3,50.4,100.7,50.2,99.8z M161.4,33.2c0.1,0.6,0.4,1.1,0.4,1.7c0,0.5-0.2,1.1-0.4,1.6
		c-0.1,0.5,0.2,0.7,0.6,0.8c1.8,0.8,3.2,0,3.3-1.9c0-0.3,0-0.7,0-1c-0.1-1.1-1.3-2.1-2.4-1.8C162.5,32.8,162,33,161.4,33.2z
		 M210.5,91.9c0-0.1,0.1-0.2,0.1-0.3c-0.7-1-1.6-1.7-2.6-2.4c-0.1-0.1-0.2-0.1-0.3-0.1c-1.3,0.4-2.7,0.8-4,1.3
		c-0.4,0.1-0.7,0.5-0.7,1.1c1.5,0.5,3,0.9,4.6,1.4c0.1-0.9,0.7-0.9,1.4-0.9C209.6,92,210.1,91.9,210.5,91.9z M13,71.8
		c0.1,1.2,0.8,1.7,1.6,2.2c0.7,0.4,1.2,0.1,1.8-0.2c0.2-0.1,0.3-0.3,0.4-0.4c0.6-0.4,1.4-0.9,1.3-1.7c-0.1-0.9-1-1.3-1.8-1.7
		c-0.3-0.1-0.6-0.2-0.9-0.2C14.3,69.7,13,70.9,13,71.8z M46.4,74.3c0.7-0.7,1-1.4,0.6-2.3c-0.2-0.6-0.5-1.1-0.8-1.7
		c-0.3-0.6-0.8-0.7-1.3-0.6c-1.3,0.2-2,0.6-2,1.9c0,0.3-0.1,0.7-0.1,1c0,1.3,1.5,2.2,2.6,1.6C45.8,73.8,46.1,74.1,46.4,74.3z
		 M119.8,195.3c-0.7,0-1.3,0-1.9,0.1c-0.4,0.1-0.9,0.2-1.2,0.5c-0.7,0.9-0.7,2.9,0,3.9c0.1,0.2,0.4,0.4,0.6,0.4
		c1,0.2,2.4-0.7,2.7-1.8c0.1-0.4,0.1-0.9,0.3-1.3C120.6,196.3,120.5,195.7,119.8,195.3z M154.9,17.1c-0.6,0-1.2,0.3-1.3,0.7
		c-0.3,1-0.1,2.8,0.5,3.8c0.1,0.2,0.4,0.4,0.6,0.4c0.8-0.2,1.6-0.3,2.3-0.7c0.4-0.2,0.7-0.9,0.7-1.3
		C157.6,18.2,156.7,17.2,154.9,17.1z M206.3,88.3c-1.3-0.6-2.3-1.1-3.3-1.6c-0.3-0.1-0.7-0.1-0.9,0c-1,0.5-2,1.1-2.9,1.7
		c-0.6,0.4-0.6,0.9,0,1.3c0.7,0.4,1.5,0.7,2.2,1c0.2,0.1,0.5-0.2,0.7-0.4c0.2-0.2,0.2-0.5,0.4-0.6c0.6-0.3,1.2-0.6,1.8-0.9
		C204.9,88.7,205.4,88.5,206.3,88.3z M189,71.6c0.6-0.8,1.2-1.6,1.8-2.4c0.6-0.7,0.5-0.8-0.2-1.4c-1.2-1-2.3-2-2.9-3.5
		c-0.2-0.5-0.6-1-0.8-1.4c-0.3,3.1,1,5.7,1.8,8.5C188.6,71.4,188.8,71.5,189,71.6z M39.1,90.3c1,0,1.7-0.6,2.3-1.1
		c0.6-0.6,0.5-1.3-0.1-1.9c-0.3-0.3-0.5-0.6-0.8-0.8c-1.1-1-3.3-0.4-3.8,1c-0.1,0.2-0.1,0.4,0,0.5c0.6,0.7,1.1,1.5,1.8,2.1
		C38.6,90.3,38.9,90.3,39.1,90.3z M36.5,70.8c0.5-0.2,0.9-0.3,1.4-0.5c0.5-0.3,1.2-0.5,1.5-0.9c0.6-1.1-0.8-2.9-2.1-2.8
		c-1.3,0.1-2.5,1.2-2.9,2.8C35.1,69.7,35.3,70.9,36.5,70.8z M209.1,39.3c0.4,0.1,0.7,0.2,0.9,0.1c1.4-0.5,2.8-1.1,3.8-2.3
		c0.2-0.2,0.3-0.5,0.4-0.8c0.3-0.7,0.6-1.4,0.8-2.1c0.1-0.2,0.1-0.4,0.2-0.7c-0.9,0.1-1.6,0.1-2.4,0.2c-0.2,0-0.4,0.4-0.6,0.6
		c-0.8,1.3-1.6,2.5-2.5,3.8C209.5,38.5,209.3,38.8,209.1,39.3z M197.8,90.7c0.3,3.2,3.2,6.2,5.5,5.3c-0.3-0.8-0.5-1.7-0.8-2.4
		c-0.3-0.7-0.8-1.3-1.6-1.6C199.8,91.7,198.9,91.2,197.8,90.7z M22.2,83.6c-0.3,1.3,0.5,3.4,1.4,4c0.7,0.4,1.7,0.4,2.1,0
		c0.9-0.9,0.9-2.8-0.1-3.7c-0.1-0.1-0.3-0.3-0.5-0.3C24.2,83.6,23.2,83.6,22.2,83.6z M191,156.3c0.2-1.3-0.2-2.3-0.6-3.4
		c0-0.1-0.3-0.3-0.4-0.3c-1.1-0.1-2.3-0.1-3.3,0.3c0,1.2,0,2.2,0,3.4C188.2,156.3,189.5,156.3,191,156.3z M133.2,203.4
		c0.4,0.9,0.7,1.6,1,2.4c0.1,0.2,0.3,0.4,0.5,0.5c1.2,0.5,3.2-0.3,3.7-1.4c0.1-0.1,0.1-0.3,0.1-0.4c-0.1-1.3-1.7-2.2-2.9-1.7
		c-0.5,0.2-1,0.3-1.5,0.4C133.9,203.2,133.7,203.3,133.2,203.4z M27.6,197.3c0,0.1,0,0.2,0.1,0.4c0.5-0.1,1.1-0.3,1.6-0.3
		c1.6-0.1,3.3-0.2,4.9-0.7c0.1,0,0.3-0.1,0.4,0c0.9,0.4,1.5,0,2-0.7c0.4-0.5,1.2-0.8,1.3-1.7C34.3,194.6,30.8,195.6,27.6,197.3z
		 M133.9,189.8c0.2,0.5,0.4,0.9,0.5,1.3c0.2,0.6,0.7,0.9,1.2,0.8c0.5-0.1,0.8,0.1,1.1,0.4c0.7,0.6,1.8,0.3,2.1-0.6
		c0.3-0.9-0.2-2.3-1-2.8C136.6,188.2,134.9,188.6,133.9,189.8z M118.3,237.6c1.4,0.2,2.3-0.5,3-1.6c0.5-0.8-0.1-1.3-0.4-1.8
		c-0.3-0.5-0.8-0.5-1.3-0.4c-0.5,0.1-0.9,0.3-1.4,0.5c-0.6,0.3-1.4,0.6-1.3,1.6c0,0.1-0.1,0.2-0.1,0.3c-0.3,0.8-0.1,1.2,0.7,1.4
		C117.7,237.7,118,237.6,118.3,237.6z M66.5,198.6c0.1,0.8,0.2,1.6,0.3,2.3c0.2,1.1,0.7,1.7,1.8,2c0.3,0.1,0.5,0.4,0.8,0.6
		c0.5,0.5,1,0.6,1.8,0.7c-0.1-0.3-0.2-0.5-0.3-0.7c-0.5-1.2-1-2.4-1.5-3.7c-0.5-1.3-0.4-1.3-1.8-1.3C67.3,198.6,67,198.6,66.5,198.6
		z M199.6,160.7c0.8-1.2,1.3-2.4,1.8-3.6c-0.6-1.3-1.6-2.1-2.9-2.7c-0.1,0.7-0.3,1.2-0.3,1.7c0,0.5,0,1.1,0,1.7c0,0,0,0.1,0,0.1
		c-0.8,1.2-0.1,1.9,0.9,2.4C199.2,160.4,199.3,160.5,199.6,160.7z M26.7,27.8c0-0.1-0.1-0.2-0.1-0.3c-1,0.1-2,0.3-3,0.4
		c-1,0.1-2.1,0.3-3.1,0.4c-0.9,0.1-0.9,0.1-1.2,1.3c0.6,0.2,1.1,0.4,1.7,0.5c1.2,0.2,2.4,0.6,3.5-0.5C25.1,28.9,25.9,28.4,26.7,27.8
		z M217.8,27.1c-1.1-0.1-1.9,0.3-2.4,1.1c-0.6,1-1.1,2.1-1.7,3.2c-0.2,0.4-0.4,0.8-0.7,1.4c0.9-0.2,1.6-0.4,2.3-0.6
		c0.3-0.1,0.7-0.4,0.8-0.7C216.7,30.1,217.2,28.7,217.8,27.1z M186.8,151.4c0.3,0.1,0.5,0.2,0.6,0.1c1.2-0.1,2.3-0.4,3.3-1.2
		c0.5-0.4,1-0.6,1.5-1c0.4-0.3,1-0.5,0.9-1.2c-0.6-0.1-1.2-0.1-1.8-0.2c-0.8-0.1-1.5,0.1-2,0.6C188.5,149.4,187.7,150.4,186.8,151.4
		z M174.5,45c0.2,0,0.3,0,0.4,0c0.7-0.5,1.4-0.9,2-1.4c0.1-0.1,0.2-0.4,0.2-0.6c-0.2-0.8-0.1-1.6,0.1-2.3c0.1-0.3,0-0.7,0-1.3
		c-0.7,0.3-1.2,0.5-1.7,0.7c-0.5,0.2-0.7,0.5-0.7,1C174.7,42.3,174.6,43.6,174.5,45z M109,188.2c0.5,0.1,1.1,0.2,1.6,0.3
		c0.1,0,0.2,0.1,0.3,0.1c0.8,0,1.2-0.3,1.3-1.1c0.1-0.4,0.2-0.8,0.3-1.3c0.2-0.5,0-0.8-0.4-1.1c-0.8-0.5-1.8-0.3-2.3,0.5
		c-0.2,0.3-0.3,0.6-0.6,0.8C108.7,186.9,108.7,187.4,109,188.2z M28.8,143.6c0.4-0.9,0.7-1.7,1-2.5c0.2-0.5,0-1-0.4-1.3
		c-0.4-0.4-0.7-0.8-1.1-1.1c-0.3-0.3-0.6-0.5-0.9-0.7c-0.4,0.5-0.7,0.8-0.9,1.2c-0.1,0.2-0.1,0.6,0,0.8
		C27.1,141.1,27.9,142.2,28.8,143.6z M77.2,233.1c0.4-0.9,0-1.5-0.3-2.1c-0.3-0.7-0.5-0.7-1.3-0.6c-0.4,0.1-0.9,0.2-1.3,0.3
		c-0.5,0.1-1.1,0.2-1.7,0.3c0.5,1.1,1.3,1.6,1.9,2.4C75.4,233.2,76.3,233.2,77.2,233.1z M173.8,38.5c0.3-1.1,0.6-2,0.9-2.9
		c0.3-1-0.2-2.1-1.2-2.8c-0.3,0.5-0.5,1.1-0.9,1.6c-0.6,0.9-0.8,1.7,0,2.5c0.2,0.2,0.2,0.5,0.4,0.7
		C173.2,37.9,173.5,38.1,173.8,38.5z M64.2,195.2c-0.9,1-1.5,2-1.7,3.2c-0.2,1.1-0.8,2.1-0.6,3.5c0.9-1.1,1.7-1.9,2.4-2.8
		c0.4-0.5,0.6-1.2,0.5-1.8C64.7,196.6,64.4,195.9,64.2,195.2z M178.8,64.7c0.7-1.1,1.2-2.1,1.9-3.1c0.7-1,1.1-2.1,1.2-3.3
		c-0.6,0.3-1.1,0.8-1.5,1.3c-0.4,0.6-0.8,1.1-1.5,1.3c-0.4,0.2-1,0.5-0.9,1.2C178.1,63,178.3,63.8,178.8,64.7z M182.5,156.2
		c0.9,0.4,1.8,0.4,2.6,0.2c0.2,0,0.4-0.3,0.5-0.5c0-0.6,0-1.3-0.1-1.9c0-0.4-0.2-0.7-0.7-0.6c-0.8,0.1-1.5,0.2-2.3,0.4
		C182.5,154.6,182.5,155.4,182.5,156.2z M183.9,149.4c0.2,0.6,0,1-0.3,1.5c-0.3,0.4-0.6,0.8-0.9,1.3c1.1,0.3,1.8,0.1,2.4-0.6
		c0.9-1.1,1.8-2.3,2.7-3.6C186.2,148.2,185,148.5,183.9,149.4z M182.1,180.8c0.5,0,0.8-0.1,1.2,0c0.3,0,0.6,0,0.9,0.1
		c0.7,0.3,1.5,0.6,2.2,0.9c0.4,0.2,0.7,0.4,1,0.7c0.5,0.6,1,1.3,1.5,1.9c0.1,0.1,0.3,0.1,0.4,0.2c-0.2-0.6-0.4-1-0.4-1.5
		c-0.1-0.8-0.4-1.5-1.1-1.9c-0.6-0.4-1.3-0.9-2-1.2C184.5,179.7,183.2,179.7,182.1,180.8z M106.8,233.1c0.2-0.7,0.3-1.3,0.4-1.9
		c0-0.2,0-0.4-0.1-0.5c-0.4-0.4-0.7-0.8-1.2-1.3c-0.4,0.4-0.9,0.7-1.3,1.1c-0.9,1.1-0.5,2.4,0.7,2.7
		C105.7,233.4,106.2,233.2,106.8,233.1z M175.5,33c0.1-0.1,0.3-0.2,0.4-0.4c0.4-0.9,0.9-1.7,1.3-2.6c0.1-0.1,0.1-0.3,0-0.4
		c-0.4-0.6-0.7-1.2-1.5-1.6c-0.3,0.7-0.6,1.3-1,2C174.1,31.3,174.2,31.9,175.5,33z M200.9,86c-1.6-0.9-3.7-0.7-5.3,0.3
		c0.6,0.7,1.1,1.3,1.7,2C198.4,87.6,199.6,86.8,200.9,86z M181.6,54.5c-0.7,0.8-1.2,1.6-1.8,2.3c-0.6,0.7-1.3,1.4-1.8,2.1
		c-0.3,0.4-0.6,0.8-0.2,1.3c1,0,1.4-0.8,2-1.4c0.7-0.8,1.2-1.7,2.3-2.1C182,56,182.3,55.3,181.6,54.5z M21,137.4
		c0.9,0.1,1.7,0.2,2.6,0.2c-0.6-1.5-1-3-1.6-4.4c-0.1-0.3-0.5-0.5-0.9-0.9C21,134.2,21,135.8,21,137.4z M125.3,225
		c-0.7-0.3-1.4-0.1-1.8,0.4c-0.4,0.6-0.2,1.4,0.3,2c0.1,0.1,0.2,0.3,0.4,0.4c0.8,0.8,1.6,0.8,2.5,0.1
		C126.1,227,125.7,226.1,125.3,225z M6,235c-1.3-0.2-2.4,0-3.5,0.2c-0.1,0-0.3,0.2-0.3,0.4c-0.2,0.7-0.3,1.4-0.4,2.1
		c0,0.3,0.1,0.5,0.2,1C3.6,237.6,4.6,236.2,6,235z M28.8,69.2c-0.1-0.8-0.7-1.2-1.3-1.5c-0.6-0.4-2.1,0.4-2.2,1.1
		c-0.1,0.4,0.4,1.4,0.7,1.6c0.9,0.4,1.5,0.3,2-0.2C28.2,69.8,28.5,69.5,28.8,69.2z M65.8,213.3c-0.7,0.8-1.4,1.6-2,2.3
		c-0.1,0.2-0.3,0.4-0.3,0.6c0.1,1,0.3,2.1,0.5,3.3c0.7-0.9,1.2-1.5,1.2-2.5c0-0.4,0-1,0.3-1.3C66.1,215,66,214.3,65.8,213.3z
		 M75.6,234.4c0.7,1.3,1.4,2.5,2.1,3.9c0.3,0.1,0.8,0.3,1.5,0.5c-0.3-1.1-0.6-2-0.9-2.9c-0.1-0.4-0.3-0.9-0.5-1.3
		c-0.1-0.2-0.3-0.4-0.5-0.4C76.8,234.3,76.2,234.3,75.6,234.4z M194.2,87.1c0,0.5,0,0.7,0,0.9c0.1,0.7,0.2,1.3,0.4,2
		c0.2,1.3,1.1,2.2,2.5,2.8c-0.3-1.1-0.8-2.1-0.9-3.2C196,88.3,195.1,87.9,194.2,87.1z M8.1,238c0-0.6,0-1.1,0-1.6
		c0-0.5,0.2-1-0.2-1.6c-1,1.5-2.7,2.2-3.4,3.8C5.3,238.9,6.8,238.6,8.1,238z M177.9,34.4c-0.9,0.1-1.5,0.4-1.8,1.3
		c-0.1,0.4-0.4,0.7-0.5,1.1c-0.2,0.6-0.5,1.2-0.3,2c0.8-0.1,1.6-0.2,1.9-0.9C177.7,36.9,178,35.7,177.9,34.4z M154.9,138.7
		c-2-2.4-4.8-3.4-7.2-5.4c0.6,1.1,1.3,1.9,2.2,2.5c0.6,0.4,1,0.9,1.6,1.3C152.3,137.9,153.2,138.9,154.9,138.7z M79.1,249.3
		c1.1-1.3,1.2-2.6,1.1-4.1c0-0.7-0.5-1-0.9-1.3c-0.2-0.2-0.5-0.2-1-0.4C78.6,245.6,78.9,247.5,79.1,249.3z M71.1,234.2
		c0.6-2.2-0.5-3.7-1.3-5.6c-0.5,0.9-1,1.7-0.8,2.5C69.4,232.3,70.1,233.2,71.1,234.2z M42.1,85.7c0.2,0.8,1.1,1.8,2.8,2.9
		c0.9,0.6,1.9,0.9,3,0.6C47.3,88.5,43,85.9,42.1,85.7z M202.1,164c0.8-1.3,0.7-3.5-0.1-5.2c-0.4,0.8-1,1.4-1.1,2.3
		c0,0.4-0.3,1-0.1,1.3C201.1,163,201.6,163.5,202.1,164z M210.7,31.7c-0.9,1.2-1.7,2.2-2.5,3.2c0.4,0.6,0.7,1,1.1,1.5
		C210.3,35,211.5,33.8,210.7,31.7z M65.8,219.1c-0.4,0.6-0.7,1-1.1,1.5c-0.3,0.3-0.3,0.6-0.1,0.9c0.4,0.9,0.8,1.9,1.2,2.8
		c0.1,0.1,0.2,0.2,0.3,0.3C66.7,222.6,66.7,221.6,65.8,219.1z M65.5,194.4c0.1,0.8,0.2,1.5,0.4,2.1c0.1,0.3,0.3,0.7,0.6,0.7
		c0.6,0.2,1.2,0.2,1.9,0.3c-0.4-1.2-0.7-2.2-1.1-3.3C66.6,194.3,66,194.3,65.5,194.4z M75.1,240.9c0.1,0,0.2,0,0.2,0
		c0.1-0.9,1.3-1.5,0.8-2.7c-0.4-0.9-0.7-1.8-1.6-2.6c0,0.4-0.1,0.7-0.1,1c0,0.4,0.2,0.8,0.3,1.2c0.1,0.6,0.2,1.2-0.4,1.7
		C74.5,240,74.8,240.4,75.1,240.9z M17.2,27.5c0-0.1,0-0.1,0-0.2C16.8,27.2,16.4,27,16,27c-1-0.1-1.9-0.1-2.9-0.2
		c-0.2,0-0.5,0-0.6,0.2c-0.4,0.4-0.8,0.8-1.3,1.4c1.4-0.1,2.5-0.2,3.6-0.3C15.6,27.9,16.4,27.7,17.2,27.5z M152.5,139.8
		c1.1,1.4,2.4,2.5,4.1,3.2c0.1,0,0.5-0.1,0.5-0.1c0-0.2,0-0.5-0.1-0.6C155.9,140.9,154.5,139.8,152.5,139.8z M198.8,153
		c0.8,0.5,1.5,0.9,2.2,1.4c0.5,0.3,1,0.5,1.6,0.1c-0.2-1.1-1.1-1.8-1.6-2.7C200.2,152.2,199.5,152.6,198.8,153z M215.9,100.8
		c-0.1-0.4-1.7-3-2.2-3.3c-0.4-0.3-0.9-0.5-1.4-0.8c0.2,1,0.7,1.7,0.1,2.4C213.5,99.7,214.7,100.2,215.9,100.8z M216.5,26
		c0.4-0.1,0.8-0.1,1.1-0.3c0.3-0.2,0.7-0.6,0.7-0.9c0.1-0.9,0.1-1.9,0.1-2.8c0-0.1-0.2-0.4-0.3-0.4c-0.1,0-0.3,0.1-0.5,0.2
		c-0.1,0.1-0.1,0.2-0.2,0.3c-0.3,1.2-0.7,2.4-1,3.5C216.4,25.8,216.4,25.9,216.5,26z M177.2,64.4c-0.1-0.7-0.3-1.4-0.4-2
		c-0.1-0.4-0.3-0.6-0.7-0.6c-0.8-0.1-1.5-0.4-2.3-0.5c-0.1,0-0.2,0.1-0.4,0.2C174.4,62.8,175.5,63.9,177.2,64.4z M213.7,96
		c0.1-0.1,0.1-0.1,0.2-0.2c-0.7-0.9-1.3-1.8-2-2.7c-0.2-0.2-0.5-0.4-0.8-0.3c-0.6,0.1-1.1,0.3-1.9,0.6
		C210.9,94.4,212.3,95.2,213.7,96z M179.2,27.5c1-0.7,1.1-1.2,0.7-2.3c-0.3-0.7-0.4-1.5-0.6-2.3c-0.1-0.6-0.3-1.1-1.1-1.4
		C178.6,23.6,178.9,25.6,179.2,27.5z M177.7,27.7c0.3-1.9-0.3-3.6-0.7-5.3c-0.3,1.1-0.5,2.2-0.8,3.3c-0.1,0.6,0.1,1.1,0.6,1.5
		C177,27.4,177.3,27.5,177.7,27.7z M178,151.6c-3-0.1-5.1,0.7-5.7,2.2c1.6-0.8,3.3-1.1,5-1.2C177.9,152.5,178.1,152.2,178,151.6z
		 M192.9,89.6c0.1-0.1,0.2-0.2,0.4-0.3c-0.1-1.2-0.3-2.5-0.4-3.8c-0.3-0.2-0.7-0.3-1.1-0.5c-0.2,0.8-0.4,1.4-0.4,2
		c0,0.4,0.5,0.7,0.8,1c0.2,0.3,0.4,0.6,0.6,1C192.8,89.3,192.8,89.4,192.9,89.6z M78.1,239.7c0,0.7,0,1.3,0,1.9
		c0,0.2,0.2,0.4,0.3,0.5c0.5,0.3,1,0.6,1.6,0.9c-0.1-1-0.2-2-0.3-3C79.3,239.9,78.7,239.8,78.1,239.7z M175.7,185.8
		c0.5-0.4,1-0.9,1.1-1.6c0.1-0.8,0.6-1.2,1.2-1.5c0.6-0.3,1.1-0.6,1.7-1c-1.3-0.3-2.2,0.3-3.2,1.1
		C175.5,183.6,175.6,184.7,175.7,185.8z M67.6,225.4c-0.1,0.8-0.9,1.3-0.4,2.2c0.4,0.7,0.5,1.5,1.2,2.1
		C68.9,228,68.6,226.6,67.6,225.4z M176.3,60.7c-0.6-1-3.3-2-4.6-1.7c0.3,0.5,0.6,1,0.9,1.6C173.9,59.5,175,60.7,176.3,60.7z
		 M177.1,33.2c1.1-0.1,1.5-0.4,1.7-0.9c0.3-0.9,0.6-1.8,0.8-2.7c0.1-0.2,0-0.4,0-0.6c-0.1,0-0.2-0.1-0.3-0.1
		C178.3,30.1,177.9,31.6,177.1,33.2z M73.4,237.9c0-0.9-0.1-1.7,0-2.5c0.1-1.2,0.1-1.3-1.1-2C72.1,235,72.2,236.5,73.4,237.9z
		 M117.3,187.4c0-0.1-0.1-0.2-0.1-0.3c-1,0.2-2,0.3-2.9,0.5c-0.7,0.2-1,0.7-1.2,1.6c1-0.4,2-0.7,3-1.1
		C116.5,188,116.9,187.7,117.3,187.4z M146.8,14.1c0.2-1,0.3-2,0.5-3c0.3-1.6,0.4-2.4,0.2-3C146.5,10,146.4,12.1,146.8,14.1z
		 M25.6,138.4c1-1,1-1.2,0.2-2c-0.5-0.4-1-0.8-1.7-1.3C24.4,136.5,25,137.4,25.6,138.4z M213.5,27.6c-0.6,0.9-1.1,1.6-1.7,2.3
		c-0.2,0.3-0.4,0.7,0,0.9c0.4,0.2,0.8,0.1,0.9-0.3c0.3-0.8,0.7-1.6,0.9-2.4C213.8,28,213.6,27.8,213.5,27.6z M134.3,192.6
		c-1.1,1-1.8,2.2-2.2,3.6c0.9-1,1.8-2,2.8-3.1C134.7,193,134.6,192.8,134.3,192.6z M77.3,244.8c-0.2-1.3-0.4-2.6-0.6-3.9
		C75.9,242.4,75.9,243.3,77.3,244.8z M44.3,93.5c0-0.1-0.1-0.1-0.1-0.2c-1,0.4-2,0.7-3,1.1c-0.1,0-0.2,0-0.2,0.1
		c-0.1,0.1-0.2,0.3-0.2,0.4c0.1,0.2,0.2,0.4,0.3,0.4c0.2,0,0.5,0,0.6-0.1C42.6,94.6,43.4,94.1,44.3,93.5z M179.1,151.6
		c0,0.1,0,0.2,0,0.3c0.6,0.3,1.2,0.6,1.9,0.3c0.4-0.2,0.8-0.6,0.7-1.3C180.7,151.2,179.9,151.4,179.1,151.6z M77.1,228.2
		c0.2-1.6-0.3-3-0.5-4.5C76.7,225.2,76.1,226.7,77.1,228.2z M132.2,17.9c0.1,0,0.2,0.1,0.3,0.1c0.4-0.9,0.9-1.9,1.3-2.8
		c0.1-0.3,0-0.6-0.5-0.7C132.7,15.5,132.6,16.8,132.2,17.9z M179.7,153.8c0.4,0.8,0.9,1.4,1.8,1.9c-0.1-0.7-0.1-1.3-0.2-1.9
		C180.7,153.8,180.3,153.8,179.7,153.8z M154,10.8c0,0,0.1,0.1,0.1,0.1c0.6-0.4,1.2-0.9,1.8-1.3c0.2-0.2,0.5-0.4,0.2-0.7
		c-0.3-0.4-0.6,0-0.8,0.2C154.9,9.6,154.5,10.2,154,10.8z M160.3,35.8c-0.7-1.2-1.8-1.4-2.8-1.6C158.3,34.7,159,35.7,160.3,35.8z
		 M122,13c-0.7-1.4-0.9-1.5-1.4-0.9C121,12.4,121.5,12.7,122,13z M217.7,20.3c0.9-0.3,0.9-0.3,0.4-1.5
		C218,19.4,217.8,19.8,217.7,20.3z M17.6,29.2c0-0.1,0-0.2,0-0.3c-0.5,0.1-1,0.1-1.5,0.2C16.5,29.4,17.1,29.6,17.6,29.2z
		 M195.5,84.7c-0.4-0.3-0.9-0.4-1.5-0.2C194.5,85.3,195,84.8,195.5,84.7z M155,33.6c0,0.7,0.3,1,0.8,1.4
		C155.9,34.2,155.6,33.9,155,33.6z M215.2,23.8c0.1,0,0.1,0.1,0.2,0.1c0.5-0.6,0.5-0.6,0.4-1.3C215.6,23.1,215.4,23.5,215.2,23.8z
		 M203.1,156.1c-0.1,0-0.2,0.1-0.3,0.1c-0.1,0.5,0.1,0.8,0.8,1.1C203.3,156.8,203.2,156.5,203.1,156.1z M124.3,23.2
		c0-0.1,0-0.2,0-0.2c-0.4,0.1-0.8,0.2-1.2,0.4c0,0.1,0.1,0.2,0.1,0.3C123.5,23.4,123.9,23.3,124.3,23.2z M176.7,21.1
		c0.3-0.3,0.4-0.7,0-1C176.6,20.5,176.6,20.8,176.7,21.1z M214.2,26.8c0.1,0,0.2,0,0.2,0.1c0-0.1,0.1-0.2,0.1-0.4
		c0-0.1-0.1-0.2-0.2-0.5C214.3,26.4,214.2,26.6,214.2,26.8z M217.2,101.6c0.1,0.1,0.2,0.1,0.3,0.2c0.3,0.1,0.5,0,0.4-0.2
		C217.7,101.3,217.4,101.3,217.2,101.6z M72.2,175.1c0,0,0.1,0.1,0.1,0.1c0.2-0.1,0.4-0.2,0.5-0.3c0,0-0.1-0.1-0.1-0.1
		C72.6,174.9,72.4,175,72.2,175.1z M42.8,88.8c-0.1,0.1-0.1,0.1-0.2,0.2c0.2,0.1,0.3,0.2,0.5,0.3c0,0,0.1-0.1,0.1-0.1
		C43.1,89.1,42.9,88.9,42.8,88.8z M151.8,19.9c0.1,0.1,0.1,0.2,0.2,0.2c0.1,0,0.2-0.1,0.3-0.1C152.1,20,152,20,151.8,19.9z
		 M128.6,94.1c0.1,0.1,0.1,0.1,0.1,0.2c0.1-0.1,0.2-0.1,0.2-0.2c0,0-0.1-0.1-0.2-0.2C128.7,94,128.7,94,128.6,94.1z"/>
	<path fill="#FFFFFF" d="M173.8,163.5c-0.8,0.6-0.8,0.6-1.3,0.1c-0.6-0.6-1.2-1.1-1.7-1.7c-0.6-0.6-0.8-1.3-0.7-2.3
		c0.2-1.2-0.3-2.3-0.5-3.4c-0.5-2.1-1.7-3.8-3.1-5.4c-0.2-0.2-0.4-0.6-0.6-0.6c-1-0.3-1.6-1.2-2.4-1.8c-1-0.9-2-1.9-3.4-2.1
		c-0.1,0-0.1-0.1-0.2-0.1c-0.9-0.9-1.6-1.8-2.1-3.1c0.2,0.1,0.4,0.2,0.6,0.4c1.4,1.8,3.4,2.7,5.3,3.8c1.3,0.8,2.4,1.6,3.7,2.4
		c0.8,0.5,1,1.4,1.5,2.1c0.2,0.3,0.3,0.7,0.6,1c0.8,0.9,1,2,1.4,3c0.2,0.5,0.4,1,0.5,1.5c0.4,0.9,0.8,1.8,0.8,2.9
		C172.3,161.5,172.9,162.6,173.8,163.5z"/>
	<path fill="#FFFFFF" d="M196.6,158.4c-1.4-0.5-2.5-1-3.7-1.5c-0.5-0.2-0.7-0.4-0.7-1c0-0.7-0.2-1.4-0.4-2.1
		c-0.1-0.3-0.1-0.6-0.3-1.2c1.3,0.4,2.5,0.5,3.6,0.9c0.3,0.1,0.6,0.2,1,0.3c0.8,0.2,1.2,0.7,1,1.5c-0.2,0.6-0.2,1.2-0.2,1.8
		C196.9,157.5,196.7,157.9,196.6,158.4z"/>
	<path fill="#FFFFFF" d="M191.9,151.3c0.1-0.2,0.3-0.4,0.5-0.6c0.8-0.6,1.5-1.2,2.3-1.8c0.2-0.1,0.4-0.3,0.6-0.3
		c1.6,0.4,3.2,0.8,4.6,2.2c-1,0.6-2,1.2-2.9,1.6c-0.3,0.2-0.9,0-1.3-0.1C194.4,152,193.2,151.7,191.9,151.3z"/>
	<path fill="#FFFFFF" d="M191,156.3c-1.4,0-2.8,0-4.3,0c0-1.1,0-2.2,0-3.4c1-0.5,2.1-0.4,3.3-0.3c0.2,0,0.4,0.2,0.4,0.3
		C190.7,154,191.2,155.1,191,156.3z"/>
	<path fill="#FFFFFF" d="M199.6,160.7c-0.3-0.2-0.4-0.4-0.5-0.4c-1-0.6-1.7-1.2-0.9-2.4c0,0,0-0.1,0-0.1c0-0.6-0.1-1.1,0-1.7
		c0-0.5,0.2-1,0.3-1.7c1.3,0.5,2.2,1.4,2.9,2.7C200.8,158.3,200.3,159.5,199.6,160.7z"/>
	<path fill="#FFFFFF" d="M186.8,151.4c0.9-1,1.7-2,2.5-2.9c0.5-0.5,1.2-0.8,2-0.6c0.6,0.1,1.2,0.1,1.8,0.2c0.1,0.7-0.5,0.9-0.9,1.2
		c-0.5,0.4-1,0.6-1.5,1c-1,0.7-2.1,1.1-3.3,1.2C187.3,151.5,187.1,151.5,186.8,151.4z"/>
	<path fill="#FFFFFF" d="M182.5,156.2c0-0.9,0-1.7,0-2.5c0.8-0.1,1.6-0.3,2.3-0.4c0.4-0.1,0.6,0.2,0.7,0.6c0.1,0.6,0.1,1.3,0.1,1.9
		c0,0.2-0.3,0.5-0.5,0.5C184.3,156.6,183.4,156.7,182.5,156.2z"/>
	<path fill="#FFFFFF" d="M183.9,149.4c1.2-0.8,2.4-1.2,3.9-1.4c-1,1.3-1.8,2.5-2.7,3.6c-0.6,0.7-1.3,0.9-2.4,0.6
		c0.3-0.5,0.6-0.9,0.9-1.3C183.9,150.4,184.1,150,183.9,149.4z"/>
	<path fill="#FFFFFF" d="M154.9,138.7c-1.6,0.2-2.5-0.8-3.5-1.6c-0.5-0.4-1-0.9-1.6-1.3c-0.9-0.6-1.5-1.4-2.2-2.5
		C150,135.3,152.8,136.3,154.9,138.7z"/>
	<path fill="#FFFFFF" d="M42.1,85.7c1,0.2,5.2,2.8,5.8,3.5c-1.1,0.3-2.1,0-3-0.6C43.1,87.5,42.2,86.5,42.1,85.7z"/>
	<path fill="#FFFFFF" d="M202.1,164c-0.5-0.6-1-1-1.3-1.5c-0.2-0.3,0.1-0.9,0.1-1.3c0.1-0.9,0.7-1.5,1.1-2.3
		C202.8,160.6,202.9,162.7,202.1,164z"/>
	<path fill="#FFFFFF" d="M74.4,236.6c0-0.3,0.1-0.6,0.1-1c1,0.7,1.3,1.6,1.6,2.6c0.5,1.2-0.7,1.8-0.8,2.7c-0.1,0-0.2,0-0.2,0
		c-0.3-0.4-0.5-0.9-0.8-1.3"/>
	<path fill="#FFFFFF" d="M152.5,139.8c2,0,3.3,1,4.5,2.4c0.1,0.1,0.1,0.4,0.1,0.6c0,0.1-0.3,0.2-0.5,0.1
		C154.9,142.4,153.7,141.2,152.5,139.8z"/>
	<path fill="#FFFFFF" d="M198.8,153c0.7-0.4,1.4-0.8,2.1-1.3c0.6,1,1.5,1.6,1.6,2.7c-0.6,0.4-1.1,0.3-1.6-0.1
		C200.3,154,199.6,153.5,198.8,153z"/>
	<path fill="#FFFFFF" d="M178,151.6c0.1,0.6-0.1,0.9-0.8,1c-1.7,0.1-3.4,0.4-5,1.2C172.9,152.2,175,151.5,178,151.6z"/>
	<path fill="#FFFFFF" d="M117.3,187.4c-0.4,0.3-0.7,0.6-1.2,0.8c-1,0.4-2,0.8-3,1.1c0.1-0.9,0.4-1.4,1.2-1.6c1-0.2,2-0.4,2.9-0.5
		C117.2,187.2,117.2,187.3,117.3,187.4z"/>
	<path fill="#FFFFFF" d="M146.8,14.1c-0.3-2-0.3-4.1,0.7-6c0.2,0.6,0.2,1.4-0.2,3C147.1,12.1,146.9,13.1,146.8,14.1z"/>
	<path fill="#FFFFFF" d="M24.1,135.1c0.7,0.5,1.2,0.9,1.7,1.3c0.8,0.8,0.8,1-0.2,2"/>
	<path fill="#FFFFFF" d="M134.3,192.6c0.2,0.2,0.4,0.3,0.6,0.5c-1,1.1-1.9,2.1-2.8,3.1C132.5,194.8,133.2,193.7,134.3,192.6z"/>
	<path fill="#FFFFFF" d="M21,79.1c-1.3,0.2-2.6,0.4-3.9,0.5c-0.7,0.1-1.4,0-2.1,0c-0.1,0-0.2-0.1-0.2-0.2
		C15.7,78.9,19.4,78.8,21,79.1C21,79.1,21,79.1,21,79.1z"/>
	<path fill="#FFFFFF" d="M77.3,244.8c-1.3-1.5-1.4-2.4-0.6-3.9"/>
	<path fill="#FFFFFF" d="M44.3,93.5c-0.9,0.5-1.7,1.1-2.6,1.6c-0.2,0.1-0.4,0.2-0.6,0.1c-0.1,0-0.3-0.2-0.3-0.4
		c0-0.1,0.1-0.2,0.2-0.4c0-0.1,0.1-0.1,0.2-0.1c1-0.4,2-0.7,3-1.1C44.2,93.4,44.2,93.5,44.3,93.5z"/>
	<path fill="#FFFFFF" d="M179.1,151.6c0.8-0.2,1.6-0.4,2.5-0.7c0.2,0.7-0.3,1-0.7,1.3c-0.7,0.3-1.3,0-1.9-0.3
		C179.1,151.8,179.1,151.7,179.1,151.6z"/>
	<path fill="#FFFFFF" d="M77.1,228.2c-1.1-1.4-0.4-3-0.5-4.5C76.8,225.2,77.4,226.6,77.1,228.2z"/>
	<path fill="#FFFFFF" d="M132.2,17.9c0.4-1.1,0.5-2.3,1.1-3.4c0.5,0.1,0.6,0.4,0.5,0.7c-0.4,0.9-0.9,1.9-1.3,2.8
		C132.4,17.9,132.3,17.9,132.2,17.9z"/>
	<path fill="#FFFFFF" d="M179.7,153.8c0.6,0,1.1,0,1.6,0c0.1,0.6,0.1,1.1,0.2,1.9C180.6,155.2,180.1,154.7,179.7,153.8z"/>
	<path fill="#FFFFFF" d="M154,10.8c0.4-0.6,0.9-1.2,1.3-1.7c0.2-0.2,0.5-0.6,0.8-0.2c0.3,0.3,0,0.6-0.2,0.7
		c-0.6,0.4-1.2,0.9-1.8,1.3C154.1,10.9,154.1,10.9,154,10.8z"/>
	<path fill="#FFFFFF" d="M160.3,35.8c-1.3-0.1-2-1-2.8-1.6C158.5,34.4,159.6,34.6,160.3,35.8z"/>
	<path fill="#FFFFFF" d="M122,13c-0.5-0.3-1-0.6-1.4-0.9C121,11.5,121.3,11.6,122,13z"/>
	<path fill="#FFFFFF" d="M217.7,20.3c0.1-0.5,0.3-0.9,0.4-1.5C218.6,20,218.6,20,217.7,20.3z"/>
	<path fill="#FFFFFF" d="M17.6,29.2c-0.5,0.4-1,0.2-1.6-0.1c0.5-0.1,1-0.1,1.5-0.2C17.5,29,17.6,29.1,17.6,29.2z"/>
	<path fill="#FFFFFF" d="M195.5,84.7c-0.5,0.1-1,0.6-1.5-0.2C194.6,84.3,195,84.4,195.5,84.7z"/>
	<path fill="#FFFFFF" d="M155,33.6c0.5,0.4,0.9,0.7,0.8,1.4C155.4,34.6,155.1,34.2,155,33.6z"/>
	<path fill="#FFFFFF" d="M215.2,23.8c0.2-0.4,0.3-0.7,0.6-1.3c0.1,0.7,0.1,0.7-0.4,1.3C215.4,23.9,215.3,23.9,215.2,23.8z"/>
	<path fill="#FFFFFF" d="M203.1,156.1c0.1,0.3,0.3,0.7,0.5,1.3c-0.8-0.3-0.9-0.7-0.8-1.1C202.9,156.2,203,156.2,203.1,156.1z"/>
	<path fill="#FFFFFF" d="M124.3,23.2c-0.4,0.1-0.8,0.3-1.2,0.4c0-0.1-0.1-0.2-0.1-0.3c0.4-0.1,0.8-0.2,1.2-0.4
		C124.2,23,124.2,23.1,124.3,23.2z"/>
	<path fill="#FFFFFF" d="M176.7,21.1c0-0.3,0-0.7,0-1C177.1,20.5,177,20.8,176.7,21.1z"/>
	<path fill="#FFFFFF" d="M214.2,26.8c0-0.2,0.1-0.4,0.2-0.8c0.1,0.3,0.2,0.4,0.2,0.5c0,0.1-0.1,0.2-0.1,0.4
		C214.3,26.8,214.2,26.8,214.2,26.8z"/>
	<path fill="#FFFFFF" d="M217.2,101.6c0.2-0.4,0.5-0.4,0.7-0.1c0.1,0.2-0.1,0.4-0.4,0.2C217.4,101.8,217.3,101.7,217.2,101.6z"/>
	<path fill="#FFFFFF" d="M72.2,175.1c0.2-0.1,0.4-0.2,0.5-0.3c0,0,0.1,0.1,0.1,0.1c-0.2,0.1-0.4,0.2-0.5,0.3
		C72.3,175.2,72.3,175.2,72.2,175.1z"/>
	<path fill="#FFFFFF" d="M42.8,88.8c0.2,0.1,0.3,0.3,0.5,0.4c0,0-0.1,0.1-0.1,0.1c-0.2-0.1-0.3-0.2-0.5-0.3
		C42.6,88.9,42.7,88.9,42.8,88.8z"/>
	<path fill="#FFFFFF" d="M151.8,19.9c0.2,0.1,0.3,0.1,0.4,0.1c-0.1,0-0.2,0.1-0.3,0.1C151.9,20.2,151.9,20,151.8,19.9z"/>
	<path fill="#FFFFFF" d="M128.6,94.1c0.1-0.1,0.1-0.1,0.2-0.2c0.1,0.1,0.2,0.1,0.2,0.2c0,0.1-0.1,0.1-0.2,0.2
		C128.7,94.2,128.7,94.2,128.6,94.1z"/>
	<path d="M120.9,128.1c-1.9-0.3-3.6-0.9-5.2-2c-0.9-0.6-1.8-1.1-2.6-1.8c-1.2-1-1.6-2.5-1.9-3.9c-0.3-1.6-0.5-3.3-0.9-4.9
		c-0.2-0.9-0.5-1.7-0.9-2.6c-0.4-0.9-0.8-1.8-1.1-2.7c-0.5-1.4,0.3-3.6,1.7-4.2c0.8-0.4,1.5-0.8,2-1.5c0.5-0.7,1.3-1.3,2.1-1.9
		c0.9-0.8,1.8-1.5,2.7-2.2c0.8-0.6,1.5-1.3,2.3-1.9c0.3-0.2,0.6-0.4,1-0.5c0.9-0.3,1.9-0.6,2.8-0.7c1.8-0.2,3.6-0.1,4.9,1.5
		c1.2,1.4,2.5,2.8,3.6,4.3c0.4,0.6,1.2,1,1.9,1.4c1.3,0.8,1.9,2,2.6,3.2c0.6,1.1,1.2,2.3,1.3,3.6c0.1,1.3-0.2,2.4-0.9,3.4
		c-0.4,0.6-0.8,1.1-1.3,1.6c-0.6,0.6-0.8,1.2-0.8,2c0,0,0,0.1,0,0.1c0.4,2.4-1.1,3.6-2.9,4.8c-1.1,0.7-2.3,1.1-3.5,1.2
		c-1.5,0.1-2.4,0.9-3.3,2C123.6,127.5,122.4,128.1,120.9,128.1z M135.9,111.8c0-0.2,0-0.5-0.1-0.7c-0.7-2.6-1.9-4.9-4.4-6.3
		c-0.4-0.2-0.8-0.6-1-1c-1-1.3-1.9-2.6-3.1-3.8c-1.3-1.3-2.8-2-4.7-1.4c-1,0.3-2.2,0.6-3,1.2c-1.9,1.4-3.7,3-5.5,4.5
		c-1.2,1-2.1,2.5-3.6,3c-0.8,0.3-1.1,0.9-1,1.6c0.1,0.8,0.2,1.6,0.5,2.4c0.2,0.7,0.8,1.4,1,2.1c0.4,1.6,0.8,3.3,1.1,5
		c0.3,1.8,0.5,3.6,1.8,5c0.2,0.2,0.5,0.5,0.8,0.6c1,0.4,2.1,0.5,2.7,1.6c0.1,0.2,0.4,0.3,0.6,0.3c0.7,0.3,1.4,0.6,2.1,0.8
		c1.4,0.5,3-0.2,3.8-1.4c0.7-1.1,1.7-1.9,3-2c1.5-0.1,2.9-0.5,4.1-1.5c0.1-0.1,0.2-0.1,0.3-0.2c1.8-0.9,2.1-1.9,1.8-3.5
		c-0.1-0.8-0.1-1.6,0.5-2.2c0.5-0.5,0.9-1.1,1.4-1.6C135.5,113.6,135.9,112.8,135.9,111.8z"/>
	<path d="M179.7,189.6c0.1-2,1.8-3.8,3.9-3c0.9,0.4,1.5,1.4,1.2,2.4c-0.1,0.3-0.2,0.5-0.2,0.8c-0.1,1-0.6,1.5-1.6,1.8
		c-1,0.3-2,0.2-2.7-0.5C180,190.7,179.9,189.9,179.7,189.6z"/>
	<path fill="#FFFFFF" d="M135.9,111.8c0,1-0.4,1.8-1,2.6c-0.5,0.5-0.9,1.1-1.4,1.6c-0.6,0.7-0.7,1.4-0.5,2.2c0.3,1.6,0,2.5-1.8,3.5
		c-0.1,0.1-0.2,0.1-0.3,0.2c-1.2,1-2.6,1.3-4.1,1.5c-1.4,0.1-2.3,0.9-3,2c-0.8,1.2-2.4,1.9-3.8,1.4c-0.7-0.2-1.4-0.5-2.1-0.8
		c-0.2-0.1-0.5-0.2-0.6-0.3c-0.6-1.1-1.7-1.2-2.7-1.6c-0.3-0.1-0.5-0.4-0.8-0.6c-1.4-1.4-1.5-3.2-1.8-5c-0.3-1.7-0.6-3.3-1.1-5
		c-0.2-0.7-0.7-1.4-1-2.1c-0.3-0.8-0.4-1.6-0.5-2.4c-0.1-0.7,0.3-1.3,1-1.6c1.6-0.5,2.4-2,3.6-3c1.8-1.5,3.6-3.1,5.5-4.5
		c0.8-0.6,2-0.8,3-1.2c1.9-0.6,3.4,0.1,4.7,1.4c1.1,1.2,2.1,2.5,3.1,3.8c0.3,0.4,0.6,0.8,1,1c2.5,1.4,3.7,3.7,4.4,6.3
		C135.9,111.3,135.9,111.6,135.9,111.8z M121,109.1c-1.3,0.1-2.9,0.7-3.7,2.6c-0.1,0.3-0.3,0.5-0.5,0.8c-0.5,1-0.5,2,0.4,3
		c0.8,0.9,1.8,1.4,3,1.8c0.7,0.2,1.4,0.2,2.1,0.3c0.2,0,0.4-0.1,0.6-0.2c0.8-0.5,1.3-1.2,1.1-2.2c-0.2-0.8-0.1-1.6,0.1-2.4
		c0.1-0.3,0-0.7,0-1C124.2,109.9,123.3,109,121,109.1z"/>
	<path d="M124,115.1c0.2,1-0.3,1.7-1.1,2.2c-0.2,0.1-0.4,0.3-0.6,0.2c-0.7-0.1-1.4-0.1-2.1-0.3c-1.1-0.4-2.1-0.9-3-1.8
		c-0.9-1-0.9-2-0.4-3c0.1-0.3,0.3-0.5,0.5-0.8c0.8-1.9,2.3-2.5,3.7-2.6c2.3,0,3.2,0.8,3.2,2.6"/>
</g>
</svg>
