<?xml version="1.0" standalone="no"?>
<!DOCTYPE svg PUBLIC "-//W3C//DTD SVG 20010904//EN"
 "http://www.w3.org/TR/2001/REC-SVG-20010904/DTD/svg10.dtd">
<svg version="1.0" xmlns="http://www.w3.org/2000/svg"
 width="800.000000pt" height="800.000000pt" viewBox="0 0 800.000000 800.000000"
 preserveAspectRatio="xMidYMid meet">
<metadata>
Created by potrace 1.11, written by Peter Selinger 2001-2013
</metadata>
<g transform="translate(0.000000,800.000000) scale(0.100000,-0.100000)"
fill="#000000" stroke="none">
<path d="M6317 7843 c-3 -2 -25 -6 -49 -8 -50 -5 -59 -7 -158 -35 -41 -12 -78
-27 -82 -33 -4 -7 -8 -9 -8 -5 0 4 -26 -6 -57 -22 -32 -17 -65 -30 -74 -30
-31 0 -138 -39 -196 -71 -74 -41 -212 -136 -236 -163 -22 -24 -82 -116 -82
-125 -1 -3 -6 -15 -12 -26 -16 -30 -45 -144 -38 -155 3 -5 1 -11 -3 -14 -10
-6 -8 -158 2 -193 3 -13 8 -32 11 -44 15 -69 66 -156 132 -225 54 -57 148
-108 233 -125 96 -20 247 -15 326 10 133 43 250 119 312 203 47 64 73 113 65
122 -4 3 -1 6 5 6 6 0 13 12 16 28 4 15 9 38 12 52 21 91 3 264 -35 338 -25
47 -144 171 -199 206 -23 14 -42 30 -42 34 0 13 65 50 110 63 68 18 85 20 215
21 239 2 414 -34 595 -121 72 -35 87 -44 175 -100 83 -53 205 -169 259 -246
84 -122 162 -311 181 -445 11 -74 12 -242 2 -285 -5 -22 -10 -47 -11 -55 -8
-59 -70 -188 -132 -276 -48 -67 -171 -182 -264 -247 -79 -55 -253 -168 -305
-197 -95 -54 -229 -120 -243 -120 -7 0 -20 -4 -30 -10 -9 -5 -91 -38 -182 -73
-226 -87 -259 -99 -262 -96 -2 1 -13 -3 -26 -10 -25 -14 -275 -101 -304 -106
-10 -2 -23 -7 -28 -10 -5 -3 -18 -8 -27 -10 -10 -2 -52 -15 -93 -30 -41 -14
-76 -25 -77 -25 -2 0 -4 0 -5 -1 -2 0 -10 -2 -18 -4 -8 -3 -62 -18 -120 -36
-58 -17 -118 -35 -135 -39 -97 -27 -152 -42 -165 -45 -8 -2 -51 -13 -95 -25
-141 -38 -150 -41 -175 -46 -26 -5 -221 -60 -345 -96 -175 -51 -574 -179 -600
-192 -11 -5 -24 -11 -30 -12 -19 -5 -160 -62 -230 -94 -38 -18 -72 -33 -75
-33 -3 0 -25 -12 -50 -27 -25 -14 -52 -29 -62 -32 -9 -4 -53 -29 -98 -57 -45
-28 -83 -51 -86 -51 -2 0 -12 -7 -21 -15 -10 -9 -52 -42 -93 -74 -62 -48 -175
-160 -226 -223 -100 -125 -210 -333 -245 -465 -5 -18 -14 -50 -19 -70 -6 -21
-12 -51 -14 -68 -2 -16 -7 -59 -11 -95 -16 -129 -8 -296 19 -420 3 -14 9 -41
12 -60 4 -19 10 -39 14 -45 4 -5 10 -23 14 -39 25 -104 151 -307 261 -421 72
-75 194 -175 214 -175 6 0 11 -3 11 -7 0 -5 10 -13 23 -19 12 -6 51 -27 87
-46 63 -33 185 -83 205 -83 6 0 15 -3 20 -6 6 -4 26 -9 45 -13 41 -7 71 -14
103 -22 39 -10 389 -12 457 -3 124 17 145 21 151 25 4 2 24 6 45 10 22 3 58
12 82 20 23 8 49 14 56 14 18 0 220 101 224 112 2 4 10 8 18 8 8 0 14 5 14 10
0 6 5 10 11 10 12 0 145 90 192 130 73 62 134 129 173 192 30 48 72 148 79
191 3 15 8 42 11 60 7 42 7 192 -1 237 -10 56 -51 168 -69 185 -9 9 -16 21
-16 26 0 11 -43 62 -84 98 -15 14 -37 34 -47 44 -10 9 -21 17 -24 17 -3 0 -22
10 -43 23 -71 44 -133 58 -267 60 -165 2 -305 -54 -417 -166 -38 -37 -68 -74
-68 -82 0 -8 -4 -15 -8 -15 -9 0 -43 -73 -63 -135 -27 -87 -16 -309 20 -398
19 -49 145 -152 206 -170 11 -3 44 -14 73 -25 29 -11 56 -21 60 -22 4 0 24 -5
45 -11 l37 -10 -15 -29 c-31 -60 -114 -103 -280 -144 -166 -41 -194 -45 -325
-47 -106 -1 -200 16 -335 62 -302 104 -478 264 -595 544 -16 37 -28 88 -35
145 -2 19 -4 35 -5 35 -4 0 -3 123 1 131 3 5 6 25 8 44 1 19 7 53 13 75 7 22
12 42 12 45 3 18 52 120 58 120 5 0 8 7 8 16 0 14 147 167 219 226 43 36 152
108 225 148 50 27 271 130 279 129 3 0 25 7 187 64 85 30 175 60 199 67 24 6
55 16 70 22 14 6 31 12 36 13 11 3 119 37 300 95 240 77 390 124 395 125 3 0
24 6 48 14 40 13 47 13 100 -9 164 -66 372 -188 457 -268 14 -13 25 -21 25
-18 0 7 152 -146 170 -171 182 -249 299 -517 336 -768 3 -22 8 -51 11 -65 10
-45 11 -333 2 -400 -15 -106 -19 -132 -24 -139 -2 -4 -6 -18 -9 -32 -10 -51
-15 -67 -46 -153 -17 -48 -47 -118 -67 -155 -20 -36 -42 -78 -50 -92 -7 -15
-20 -32 -28 -39 -8 -7 -15 -17 -15 -22 0 -5 -5 -14 -10 -21 -6 -7 -29 -37 -53
-67 -161 -209 -444 -453 -667 -576 -19 -10 -38 -23 -42 -29 -4 -5 -8 -6 -8 -2
0 5 -12 0 -27 -11 -31 -20 -159 -83 -232 -112 -25 -10 -64 -26 -86 -36 -22
-10 -44 -19 -50 -20 -5 -2 -63 -22 -128 -44 -149 -50 -327 -95 -417 -104 -14
-2 -38 -6 -55 -9 -51 -11 -136 -23 -230 -32 -16 -1 -70 -7 -120 -11 -172 -17
-679 -10 -885 11 -14 1 -56 6 -95 10 -38 4 -73 9 -77 11 -4 3 -27 7 -50 9 -24
2 -63 9 -88 15 -25 5 -56 12 -70 14 -99 18 -355 96 -445 136 -22 10 -80 35
-130 55 -49 21 -108 47 -130 58 -22 11 -40 18 -40 16 0 -2 -14 6 -32 19 -17
12 -34 22 -38 22 -10 0 -129 74 -133 83 -2 4 -8 7 -13 7 -9 0 -98 64 -189 135
-93 74 -410 421 -410 450 0 4 -13 25 -29 48 -16 23 -29 47 -30 52 -2 6 -8 17
-15 25 -39 45 -169 368 -190 470 -3 14 -10 43 -16 65 -5 22 -12 60 -15 84 -4
25 -8 48 -10 52 -5 6 -9 42 -21 151 -9 74 -9 370 0 443 8 72 15 122 21 155 3
14 8 41 11 60 7 43 40 159 62 220 9 25 17 47 17 50 1 3 6 14 12 25 6 11 12 23
12 27 7 40 97 199 169 297 72 98 275 301 301 301 5 0 11 4 13 8 8 19 173 125
273 175 11 6 27 14 35 19 8 4 26 13 40 19 14 6 38 16 55 24 46 21 162 65 182
70 10 2 37 11 61 20 65 23 84 24 123 4 20 -10 49 -20 65 -23 15 -3 64 -23 108
-44 107 -52 131 -60 196 -68 30 -3 73 -12 95 -19 111 -36 207 -50 330 -48 133
2 163 15 201 86 87 165 -5 290 -241 324 -52 7 -224 7 -310 -1 -74 -6 -155 -15
-195 -21 -19 -3 -57 -7 -85 -10 -27 -3 -62 -8 -77 -10 -16 -3 -41 -7 -57 -10
-36 -6 -66 17 -167 133 -87 100 -152 195 -214 317 -40 77 -102 234 -115 293
-30 129 -41 193 -51 297 -4 53 -4 282 0 320 3 17 7 55 10 85 6 56 8 65 19 110
4 14 9 36 11 50 30 158 142 356 280 496 70 70 193 164 215 164 6 0 11 3 11 8
0 8 156 78 195 87 6 2 39 11 75 20 129 34 169 38 365 39 211 1 305 -13 470
-69 139 -48 295 -164 307 -229 3 -17 -4 -20 -52 -23 -153 -10 -347 -114 -412
-222 -12 -20 -25 -38 -29 -41 -13 -10 -52 -106 -65 -160 -11 -50 -12 -202 -1
-240 2 -8 7 -28 12 -45 8 -32 44 -114 57 -130 46 -60 81 -99 105 -119 37 -31
111 -71 148 -81 17 -4 41 -10 55 -13 14 -4 81 -6 150 -7 132 0 181 11 282 61
119 60 278 197 278 241 0 7 4 13 10 13 15 0 52 140 54 205 2 66 -14 166 -40
247 -17 51 -109 238 -122 248 -4 3 -19 23 -34 45 -73 112 -259 266 -417 345
-75 38 -281 115 -281 105 0 -2 -18 2 -40 10 -22 8 -57 17 -78 19 -75 10 -118
17 -142 21 -52 10 -220 19 -350 18 -248 -1 -447 -24 -630 -73 -25 -7 -52 -13
-60 -15 -35 -7 -172 -61 -258 -101 -52 -24 -96 -44 -98 -44 -2 0 -34 -18 -70
-40 -36 -22 -70 -40 -75 -40 -5 0 -9 -4 -9 -10 0 -5 -5 -10 -11 -10 -18 0
-174 -126 -231 -186 -51 -54 -131 -158 -154 -199 -6 -11 -22 -40 -36 -65 -45
-82 -93 -220 -114 -325 -18 -89 -25 -292 -13 -335 5 -14 10 -43 13 -65 14
-104 40 -185 106 -320 48 -99 144 -257 161 -263 5 -2 9 -8 9 -14 0 -5 6 -15
12 -23 7 -7 40 -44 73 -82 51 -59 109 -113 195 -183 10 -8 27 -22 37 -30 10
-9 36 -26 58 -40 22 -13 45 -28 50 -32 24 -19 84 -56 135 -82 30 -15 63 -36
74 -45 10 -9 20 -15 22 -14 7 5 104 -40 104 -47 0 -4 -33 -17 -74 -28 -40 -12
-118 -40 -172 -62 -55 -23 -103 -42 -109 -44 -15 -4 -238 -115 -349 -175 -284
-152 -502 -320 -691 -535 -36 -41 -105 -127 -125 -156 -13 -19 -29 -40 -35
-47 -29 -35 -35 -43 -35 -47 0 -3 -20 -36 -44 -74 -77 -119 -198 -390 -220
-493 -39 -183 -55 -268 -62 -330 -11 -93 -11 -364 -1 -445 6 -51 39 -213 50
-249 2 -5 9 -30 16 -55 30 -103 109 -282 191 -430 49 -89 167 -279 180 -290 3
-3 26 -34 51 -70 24 -35 51 -72 59 -81 8 -9 31 -36 50 -60 95 -120 265 -285
390 -379 18 -14 38 -30 44 -36 36 -35 312 -210 396 -251 30 -14 56 -30 58 -35
2 -4 12 -8 23 -8 10 0 19 -3 19 -7 0 -8 9 -13 165 -84 164 -75 393 -161 500
-189 17 -4 73 -19 125 -33 52 -14 107 -28 123 -31 15 -3 35 -7 45 -10 27 -8
193 -38 232 -41 19 -2 35 -4 35 -6 0 -2 25 -5 110 -14 33 -3 74 -8 90 -10 139
-23 955 -27 955 -5 0 3 19 6 43 6 85 3 157 9 157 14 0 3 12 5 28 4 15 0 40 3
56 7 16 5 48 11 70 14 75 11 101 16 141 27 22 6 52 12 66 15 38 6 313 89 336
102 11 5 23 7 27 4 3 -3 6 -1 6 5 0 7 3 11 8 10 7 -1 21 4 67 22 42 16 280
133 285 139 3 3 30 19 60 36 92 49 340 209 379 245 10 8 46 37 82 65 155 120
324 295 454 472 36 49 69 93 74 99 5 6 17 26 26 45 10 19 21 36 24 39 7 6 11
12 79 142 29 53 52 104 52 113 0 8 5 15 10 15 6 0 10 7 10 15 0 9 11 38 25 65
14 28 25 51 24 52 -1 4 4 21 29 98 22 66 43 143 48 170 2 8 10 51 18 95 8 44
18 107 22 140 10 78 10 417 0 475 -4 25 -9 63 -11 85 -5 45 -6 49 -30 155 -9
41 -24 95 -32 120 -8 25 -16 52 -19 60 -24 100 -170 398 -236 485 -152 200
-259 304 -421 415 -101 69 -224 140 -242 140 -7 0 -15 3 -17 8 -1 4 -30 19
-63 34 -33 15 -61 31 -62 35 -2 5 45 23 104 42 60 19 122 40 138 46 17 7 68
24 115 39 47 15 92 30 100 33 8 3 21 8 28 10 6 1 18 5 25 6 6 2 19 7 27 10 8
3 44 15 80 27 36 12 72 24 80 27 8 3 20 7 25 8 14 4 137 45 155 52 8 3 20 7
25 9 13 3 213 73 240 83 11 5 37 16 58 25 21 9 42 16 47 16 5 0 21 5 37 12 15
6 30 12 33 13 3 1 18 7 33 13 16 7 30 12 32 12 2 0 32 13 67 30 35 16 75 34
89 39 13 6 31 15 39 20 8 5 40 21 70 37 199 101 393 266 565 480 48 59 163
264 149 264 -4 0 0 8 9 18 9 10 18 27 20 38 1 10 5 24 8 29 16 26 68 208 84
290 20 106 27 377 12 497 -28 228 -134 486 -260 635 -62 73 -233 232 -261 242
-6 2 -13 7 -16 11 -10 15 -180 121 -217 136 -21 8 -47 19 -58 24 -11 5 -65 23
-120 39 -90 27 -130 38 -175 45 -8 2 -40 8 -70 14 -30 6 -75 14 -100 17 -54 8
-387 15 -393 8z"/>
</g>
</svg>
