<?xml version="1.0" encoding="utf-8"?>
<!-- Generator: Adobe Illustrator 18.1.0, SVG Export Plug-In . SVG Version: 6.00 Build 0)  -->
<svg version="1.1" id="Layer_1" xmlns="http://www.w3.org/2000/svg" xmlns:xlink="http://www.w3.org/1999/xlink" x="0px" y="0px"
	 viewBox="0 0 296.8 130.5" enable-background="new 0 0 296.8 130.5" xml:space="preserve">
<g>
	<path fill="#231F20" d="M1,58.8c0-0.1,0.1-0.2,0.2-0.2h1.1c0.1,0,0.2,0.1,0.2,0.2V62h4v-3.2c0-0.1,0.1-0.2,0.2-0.2h1.1
		c0.1,0,0.2,0.1,0.2,0.2v8C8.2,66.9,8,67,7.9,67H6.8c-0.1,0-0.2-0.1-0.2-0.2v-3.3h-4v3.3c0,0.1-0.1,0.2-0.2,0.2H1.3
		C1.1,67,1,66.9,1,66.8V58.8z"/>
	<path fill="#231F20" d="M12.6,58.8c0-0.1,0.1-0.2,0.2-0.2H14c0.1,0,0.2,0.1,0.2,0.2v8c0,0.1-0.1,0.2-0.2,0.2h-1.1
		c-0.1,0-0.2-0.1-0.2-0.2V58.8z"/>
	<path fill="#231F20" d="M18.7,58.8c0-0.1,0.1-0.2,0.2-0.2h1.1c0.1,0,0.2,0.1,0.2,0.2v6.8h3.1c0.1,0,0.2,0.1,0.2,0.2v1
		c0,0.1-0.1,0.2-0.2,0.2h-4.4c-0.1,0-0.2-0.1-0.2-0.2V58.8z"/>
	<path fill="#231F20" d="M27.3,58.8c0-0.1,0.1-0.2,0.2-0.2h1.1c0.1,0,0.2,0.1,0.2,0.2v6.8h3.1c0.1,0,0.2,0.1,0.2,0.2v1
		c0,0.1-0.1,0.2-0.2,0.2h-4.4c-0.1,0-0.2-0.1-0.2-0.2V58.8z"/>
	<path fill="#231F20" d="M36.7,60h-1.9c-0.1,0-0.2-0.1-0.2-0.2v-1c0-0.1,0.1-0.2,0.2-0.2h5.3c0.1,0,0.2,0.1,0.2,0.2v1
		c0,0.1-0.1,0.2-0.2,0.2h-1.9v6.8c0,0.1-0.1,0.2-0.2,0.2H37c-0.1,0-0.2-0.1-0.2-0.2V60z"/>
	<path fill="#231F20" d="M47.8,58.4c2.4,0,4.4,2,4.4,4.4c0,2.4-1.9,4.4-4.4,4.4s-4.4-1.9-4.4-4.4C43.5,60.4,45.4,58.4,47.8,58.4z
		 M47.8,65.6c1.5,0,2.8-1.2,2.8-2.8c0-1.5-1.3-2.8-2.8-2.8S45,61.3,45,62.8C45,64.3,46.3,65.6,47.8,65.6z"/>
	<path fill="#231F20" d="M56.2,58.8c0-0.1,0.1-0.2,0.2-0.2h2.9c1.5,0,2.7,1.2,2.7,2.7c0,1.5-1.2,2.7-2.7,2.7h-1.5v2.9
		c0,0.1-0.1,0.2-0.2,0.2h-1.1c-0.1,0-0.2-0.1-0.2-0.2V58.8z M59.2,62.5c0.7,0,1.2-0.5,1.2-1.3c0-0.7-0.5-1.2-1.2-1.2h-1.5v2.4H59.2z
		"/>
	<path fill="#231F20" d="M71.1,58.8c0-0.1,0.1-0.2,0.2-0.2h1.1c0.1,0,0.2,0.1,0.2,0.2V62h4v-3.2c0-0.1,0.1-0.2,0.2-0.2H78
		c0.1,0,0.2,0.1,0.2,0.2v8c0,0.1-0.1,0.2-0.2,0.2h-1.1c-0.1,0-0.2-0.1-0.2-0.2v-3.3h-4v3.3c0,0.1-0.1,0.2-0.2,0.2h-1.1
		c-0.1,0-0.2-0.1-0.2-0.2V58.8z"/>
	<path fill="#231F20" d="M86.5,58.4c2.4,0,4.4,2,4.4,4.4c0,2.4-1.9,4.4-4.4,4.4s-4.4-1.9-4.4-4.4C82.2,60.4,84.1,58.4,86.5,58.4z
		 M86.5,65.6c1.5,0,2.8-1.2,2.8-2.8c0-1.5-1.3-2.8-2.8-2.8s-2.8,1.3-2.8,2.8C83.8,64.3,85,65.6,86.5,65.6z"/>
	<path fill="#231F20" d="M94.8,58.8c0-0.1,0.1-0.2,0.2-0.2h1.2c0.1,0,0.2,0.1,0.2,0.2v5.1c0,1,0.7,1.7,1.8,1.7
		c1.1,0,1.8-0.7,1.8-1.7v-5.1c0-0.1,0.1-0.2,0.2-0.2h1.2c0.1,0,0.2,0.1,0.2,0.2v5.1c0,1.8-1.5,3.2-3.4,3.2c-1.9,0-3.4-1.4-3.4-3.2
		V58.8z"/>
	<path fill="#231F20" d="M105.6,66.2c-0.1-0.1-0.2-0.2-0.1-0.4l0.4-0.8c0.1-0.2,0.3-0.2,0.4-0.1c0.5,0.4,1,0.8,1.8,0.8
		c0.6,0,1.1-0.4,1.1-0.9c0-0.6-0.5-1-1.5-1.5c-1.1-0.5-2.3-1.2-2.3-2.6c0-1.1,0.8-2.3,2.7-2.3c1.2,0,2.2,0.6,2.4,0.8
		c0.1,0.1,0.2,0.3,0.1,0.4l-0.5,0.7c-0.1,0.1-0.3,0.2-0.4,0.1c-0.5-0.3-1-0.7-1.7-0.7c-0.7,0-1.1,0.4-1.1,0.8c0,0.6,0.4,1,1.4,1.4
		c1.2,0.5,2.5,1.2,2.5,2.7c0,1.2-1.1,2.4-2.8,2.4C106.8,67.2,106,66.5,105.6,66.2z"/>
	<path fill="#231F20" d="M115,58.8c0-0.1,0.1-0.2,0.2-0.2h4.9c0.1,0,0.2,0.1,0.2,0.2v1c0,0.1-0.1,0.2-0.2,0.2h-3.6v2h3
		c0.1,0,0.2,0.1,0.2,0.2v1c0,0.1-0.1,0.2-0.2,0.2h-3v2.1h3.6c0.1,0,0.2,0.1,0.2,0.2v1c0,0.1-0.1,0.2-0.2,0.2h-4.9
		c-0.1,0-0.2-0.1-0.2-0.2V58.8z"/>
	<path fill="#231F20" d="M129.5,64c0-0.9,0.7-1.6,1.6-1.6c0.9,0,1.6,0.7,1.6,1.6c0,0.8-0.7,1.6-1.6,1.6
		C130.2,65.5,129.5,64.8,129.5,64z"/>
	<path fill="#231F20" d="M142.3,58.8c0-0.1,0.1-0.2,0.2-0.2h2.9c2.3,0,4.3,1.9,4.3,4.2c0,2.4-1.9,4.3-4.3,4.3h-2.9
		c-0.1,0-0.2-0.1-0.2-0.2V58.8z M145.2,65.6c1.6,0,2.7-1.1,2.7-2.8c0-1.6-1.2-2.8-2.7-2.8h-1.4v5.5H145.2z"/>
	<path fill="#231F20" d="M153.6,58.8c0-0.1,0.1-0.2,0.2-0.2h4.9c0.1,0,0.2,0.1,0.2,0.2v1c0,0.1-0.1,0.2-0.2,0.2h-3.6v2h3
		c0.1,0,0.2,0.1,0.2,0.2v1c0,0.1-0.1,0.2-0.2,0.2h-3v2.1h3.6c0.1,0,0.2,0.1,0.2,0.2v1c0,0.1-0.1,0.2-0.2,0.2h-4.9
		c-0.1,0-0.2-0.1-0.2-0.2V58.8z"/>
	<path fill="#231F20" d="M162.2,58.9c-0.1-0.2,0-0.3,0.2-0.3h1.2c0.1,0,0.2,0.1,0.2,0.1l2.3,5.2h0.1l2.3-5.2c0-0.1,0.1-0.1,0.2-0.1
		h1.2c0.2,0,0.3,0.2,0.2,0.3l-3.8,8.2c0,0.1-0.1,0.1-0.2,0.1h-0.1c-0.1,0-0.2-0.1-0.2-0.1L162.2,58.9z"/>
	<path fill="#231F20" d="M177.2,58.4c2.4,0,4.4,2,4.4,4.4c0,2.4-1.9,4.4-4.4,4.4c-2.4,0-4.4-1.9-4.4-4.4
		C172.8,60.4,174.8,58.4,177.2,58.4z M177.2,65.6c1.5,0,2.8-1.2,2.8-2.8c0-1.5-1.3-2.8-2.8-2.8s-2.8,1.3-2.8,2.8
		C174.4,64.3,175.7,65.6,177.2,65.6z"/>
	<path fill="#231F20" d="M185.6,58.6c0-0.1,0.1-0.2,0.2-0.2h0.2c0.1,0,0.1,0,0.2,0.1l4.9,5.3h0v-5c0-0.1,0.1-0.2,0.2-0.2h1.1
		c0.1,0,0.2,0.1,0.2,0.2v8.2c0,0.1-0.1,0.2-0.2,0.2h-0.2c-0.1,0-0.1,0-0.2-0.1l-5-5.5h0v5.2c0,0.1-0.1,0.2-0.2,0.2h-1.1
		c-0.1,0-0.2-0.1-0.2-0.2V58.6z"/>
	<path fill="#231F20" d="M197.7,65c0.7,0,1.2,0.6,1.2,1.6c0,1.2-0.5,2-1,2.7c-0.1,0.1-0.2,0.1-0.3,0l-0.4-0.3
		c-0.1-0.1-0.1-0.2,0-0.3c0.4-0.5,0.7-1.1,0.7-1.6c0-0.1,0-0.2,0-0.3c-0.1,0.1-0.3,0.1-0.4,0.1c-0.5,0-0.8-0.4-0.8-0.9
		C196.7,65.4,197.1,65,197.7,65z"/>
	<path fill="#231F20" d="M208.2,58.8c0-0.1,0.1-0.2,0.2-0.2h2.9c1.5,0,2.7,1.2,2.7,2.7c0,1.5-1.2,2.7-2.7,2.7h-1.5v2.9
		c0,0.1-0.1,0.2-0.2,0.2h-1.1c-0.1,0-0.2-0.1-0.2-0.2V58.8z M211.3,62.5c0.7,0,1.2-0.5,1.2-1.3c0-0.7-0.5-1.2-1.2-1.2h-1.5v2.4
		H211.3z"/>
	<path fill="#231F20" d="M216.1,66.7l3.8-8.2c0-0.1,0.1-0.1,0.2-0.1h0.1c0.1,0,0.2,0.1,0.2,0.1l3.7,8.2c0.1,0.2,0,0.3-0.2,0.3h-1.1
		c-0.2,0-0.3-0.1-0.4-0.2l-0.6-1.3h-3.6l-0.6,1.3c0,0.1-0.2,0.2-0.4,0.2h-1.1C216.1,67,216,66.9,216.1,66.7z M221.4,64.1l-1.2-2.7h0
		l-1.2,2.7H221.4z"/>
	<path fill="#231F20" d="M232.7,64c0-0.9,0.7-1.6,1.6-1.6c0.9,0,1.6,0.7,1.6,1.6c0,0.8-0.7,1.6-1.6,1.6
		C233.5,65.5,232.7,64.8,232.7,64z"/>
	<path fill="#231F20" d="M246.7,62.7L246.7,62.7c-0.6-0.3-1.3-1-1.3-2c0-1.4,1.2-2.3,2.7-2.3c1.6,0,2.8,0.9,2.8,2.3
		c0,0.9-0.7,1.6-1.3,1.9v0.1c0.8,0.3,1.5,1,1.5,2.1c0,1.4-1.2,2.4-3,2.4c-1.8,0-2.9-1-2.9-2.4C245.2,63.7,246,63,246.7,62.7z
		 M248.1,65.9c0.8,0,1.3-0.5,1.3-1.2c0-0.6-0.5-1.1-1.3-1.3c-0.8,0.2-1.3,0.8-1.3,1.3C246.8,65.4,247.3,65.9,248.1,65.9z
		 M249.3,60.8c0-0.6-0.5-1.1-1.2-1.1c-0.7,0-1.1,0.5-1.1,1.1c0,0.6,0.4,1,1.1,1.2C248.9,61.8,249.3,61.3,249.3,60.8z"/>
	<path fill="#231F20" d="M255.9,64.9c0.6,0,1.2,0.5,1.2,1.2c0,0.6-0.5,1.2-1.2,1.2s-1.2-0.5-1.2-1.2
		C254.7,65.4,255.2,64.9,255.9,64.9z"/>
	<path fill="#231F20" d="M261.5,60.8l-1.1,0.2c-0.1,0-0.2,0-0.3-0.2l-0.1-0.6c0-0.1,0-0.2,0.1-0.3l1.6-1.3c0.1-0.1,0.3-0.2,0.4-0.2
		h0.6c0.1,0,0.2,0.1,0.2,0.2v8c0,0.1-0.1,0.2-0.2,0.2h-1.1c-0.1,0-0.2-0.1-0.2-0.2V60.8z"/>
	<path fill="#231F20" d="M269.6,65.7h2.7c0.1,0,0.2,0.1,0.2,0.2v0.9c0,0.1-0.1,0.2-0.2,0.2h-4.9c-0.1,0-0.2-0.1-0.2-0.2v-0.1
		c0-0.1,0.1-0.2,0.1-0.3c0.8-1,2.3-3,3.1-4c0.4-0.5,0.6-1,0.6-1.4c0-0.6-0.4-1.1-1.3-1.1c-0.6,0-1.1,0.4-1.4,0.7
		c-0.1,0.1-0.2,0.1-0.3,0l-0.6-0.6c-0.1-0.1-0.1-0.2,0-0.3c0,0,1-1.2,2.5-1.2c1.8,0,2.8,1.1,2.8,2.5c0,0.8-0.4,1.3-0.8,2
		C271.2,63.7,270.3,64.8,269.6,65.7L269.6,65.7z"/>
	<path fill="#231F20" d="M277.4,64.9c0.6,0,1.2,0.5,1.2,1.2c0,0.6-0.5,1.2-1.2,1.2s-1.2-0.5-1.2-1.2
		C276.2,65.4,276.8,64.9,277.4,64.9z"/>
	<path fill="#231F20" d="M283,60.8l-1.1,0.2c-0.1,0-0.2,0-0.3-0.2l-0.1-0.6c0-0.1,0-0.2,0.1-0.3l1.6-1.3c0.1-0.1,0.3-0.2,0.4-0.2
		h0.6c0.1,0,0.2,0.1,0.2,0.2v8c0,0.1-0.1,0.2-0.2,0.2h-1.1c-0.1,0-0.2-0.1-0.2-0.2V60.8z"/>
	<path fill="#231F20" d="M292.2,59.9h-3.3c-0.1,0-0.2-0.1-0.2-0.2v-0.9c0-0.1,0.1-0.2,0.2-0.2h5.2c0.1,0,0.2,0.1,0.2,0.2
		c0,0,0,0.1,0,0.2l-3.7,7.7c-0.1,0.2-0.2,0.3-0.4,0.3h-0.9c-0.1,0-0.3,0-0.3-0.2c0-0.1,0-0.2,0.1-0.3L292.2,59.9L292.2,59.9z"/>
</g>
<g>
	<path fill="#231F20" d="M52.2,98.7c1.2,0,2.1,0.4,2.9,1.1c0.1,0.1,0.1,0.2,0,0.2l-0.2,0.2c-0.1,0.1-0.1,0.1-0.2,0
		c-0.7-0.6-1.5-1-2.5-1c-2.1,0-3.7,1.7-3.7,3.8c0,2.1,1.6,3.8,3.7,3.8c1,0,1.8-0.4,2.5-1c0.1-0.1,0.1-0.1,0.2,0l0.2,0.2
		c0.1,0,0.1,0.1,0,0.2c-0.8,0.8-1.9,1.2-2.9,1.2c-2.4,0-4.3-1.9-4.3-4.3C47.9,100.6,49.8,98.7,52.2,98.7z"/>
	<path fill="#231F20" d="M59.2,101.6c1.5,0,2.5,1.1,2.5,2.5c0,0.2,0,0.5-0.2,0.5h-4.4c0,1.2,1,2.2,2.1,2.2c0.8,0,1.4-0.3,1.7-0.6
		c0.1-0.1,0.2-0.1,0.2,0l0.1,0.2c0,0,0,0.1-0.1,0.2c-0.3,0.3-1.1,0.6-2,0.6c-1.6,0-2.7-1.3-2.7-2.9
		C56.6,102.9,57.6,101.6,59.2,101.6z M61.2,104.1c0-1.1-0.7-2.1-2-2.1c-1.2,0-2.1,0.9-2.1,2.1H61.2z"/>
	<path fill="#231F20" d="M63.5,101.9c0-0.1,0.1-0.2,0.2-0.2h0.1c0.1,0,0.1,0,0.2,0.2l0.1,0.6c0.1-0.2,0.7-0.8,1.8-0.8
		c0.4,0,0.8,0.1,0.9,0.2c0.1,0,0.2,0.1,0.1,0.3l-0.1,0.2c0,0.1-0.1,0.1-0.2,0.1c-0.1,0-0.4-0.2-0.7-0.2c-1.1,0-1.6,0.9-1.7,0.9v4
		c0,0.1-0.1,0.2-0.2,0.2h-0.2c-0.1,0-0.2-0.1-0.2-0.2V101.9z"/>
	<path fill="#231F20" d="M70.3,101.6c1.5,0,2.5,1.1,2.5,2.5c0,0.2,0,0.5-0.2,0.5h-4.4c0,1.2,1,2.2,2.1,2.2c0.8,0,1.4-0.3,1.7-0.6
		c0.1-0.1,0.2-0.1,0.2,0l0.1,0.2c0,0,0,0.1-0.1,0.2c-0.3,0.3-1.1,0.6-2,0.6c-1.6,0-2.7-1.3-2.7-2.9
		C67.6,102.9,68.7,101.6,70.3,101.6z M72.3,104.1c0-1.1-0.7-2.1-2-2.1c-1.2,0-2.1,0.9-2.1,2.1H72.3z"/>
	<path fill="#231F20" d="M74.6,101.9c0-0.1,0.1-0.2,0.2-0.2h0.1c0.1,0,0.1,0,0.1,0.1l0.1,0.6c0.2-0.2,0.7-0.9,1.8-0.9
		c0.9,0,1.3,0.4,1.7,1c0.2-0.2,0.8-1,1.9-1c1.5,0,2,1,2,2.4v3c0,0.1-0.1,0.2-0.2,0.2h-0.2c-0.1,0-0.1-0.1-0.1-0.2v-3
		c0-1.3-0.5-1.9-1.5-1.9c-1,0-1.5,0.8-1.7,1c0.1,0.3,0.1,0.6,0.1,1v3c0,0.1-0.1,0.2-0.2,0.2h-0.2c-0.1,0-0.2-0.1-0.2-0.2v-3
		c0-1.3-0.5-1.9-1.5-1.9c-1.1,0-1.7,0.8-1.7,0.9v4c0,0.1-0.1,0.2-0.2,0.2h-0.2c-0.1,0-0.2-0.1-0.2-0.2V101.9z"/>
	<path fill="#231F20" d="M87.2,101.6c1.5,0,2.8,1.3,2.8,2.9c0,1.6-1.2,2.9-2.8,2.9c-1.6,0-2.8-1.3-2.8-2.9
		C84.4,102.9,85.6,101.6,87.2,101.6z M87.2,106.8c1.2,0,2.2-1.1,2.2-2.4c0-1.3-1-2.4-2.2-2.4c-1.3,0-2.3,1.1-2.3,2.4
		C84.9,105.8,85.9,106.8,87.2,106.8z"/>
	<path fill="#231F20" d="M91.8,101.9c0-0.1,0.1-0.2,0.2-0.2h0.1c0.1,0,0.2,0,0.2,0.1l0.1,0.6c0.2-0.2,0.9-0.9,2-0.9
		c1.6,0,2.1,1,2.1,2.4v3.1c0,0.1-0.1,0.2-0.2,0.2H96c-0.1,0-0.2-0.1-0.2-0.2v-3c0-1.3-0.5-1.9-1.6-1.9c-1.1,0-1.8,0.9-1.9,0.9v4
		c0,0.1-0.1,0.2-0.2,0.2H92c-0.1,0-0.2-0.1-0.2-0.2V101.9z"/>
	<path fill="#231F20" d="M97.7,101.9c0-0.1,0-0.2,0.1-0.2h0.3c0.1,0,0.2,0,0.2,0.1l2,4.8h0l2-4.8c0-0.1,0.1-0.1,0.2-0.1h0.3
		c0.1,0,0.1,0.1,0.1,0.2l-3.5,8.1c0,0.1-0.1,0.1-0.2,0.1h-0.3c-0.1,0-0.2-0.1-0.1-0.2l1.2-2.7L97.7,101.9z"/>
	<path fill="#231F20" d="M106.7,101.9c0-0.1,0-0.2,0.1-0.2h0.3c0.1,0,0.2,0,0.2,0.1l1.3,4.5h0l1.7-4.6c0-0.1,0.1-0.1,0.2-0.1h0
		c0.1,0,0.1,0,0.2,0.1l1.7,4.6h0l1.3-4.5c0-0.1,0.1-0.1,0.2-0.1h0.3c0.1,0,0.1,0.1,0.1,0.2l-1.7,5.3c0,0.1-0.1,0.1-0.2,0.1h0
		c-0.1,0-0.1,0-0.2-0.1l-1.7-4.7h0l-1.7,4.7c0,0.1-0.1,0.1-0.2,0.1h0c-0.1,0-0.1,0-0.2-0.1L106.7,101.9z"/>
	<path fill="#231F20" d="M115.6,99.7c0-0.3,0.2-0.5,0.5-0.5s0.5,0.2,0.5,0.5c0,0.3-0.2,0.5-0.5,0.5S115.6,100,115.6,99.7z
		 M115.8,101.9c0-0.1,0.1-0.2,0.2-0.2h0.2c0.1,0,0.2,0.1,0.2,0.2v5.2c0,0.1-0.1,0.2-0.2,0.2H116c-0.1,0-0.2-0.1-0.2-0.2V101.9z"/>
	<path fill="#231F20" d="M118.7,99c0-0.1,0.1-0.2,0.2-0.2h0.2c0.1,0,0.2,0.1,0.2,0.2v8c0,0.1-0.1,0.2-0.2,0.2h-0.2
		c-0.1,0-0.2-0.1-0.2-0.2V99z"/>
	<path fill="#231F20" d="M121.6,99c0-0.1,0.1-0.2,0.2-0.2h0.2c0.1,0,0.2,0.1,0.2,0.2v8c0,0.1-0.1,0.2-0.2,0.2h-0.2
		c-0.1,0-0.2-0.1-0.2-0.2V99z"/>
	<path fill="#231F20" d="M130,107.4c-1.1,0-1.8-0.6-1.9-0.8l0,0.5c0,0.1-0.1,0.2-0.2,0.2h-0.1c-0.1,0-0.2-0.1-0.2-0.2v-8
		c0-0.1,0.1-0.2,0.2-0.2h0.2c0.1,0,0.2,0.1,0.2,0.2v3.1c0,0,0.7-0.5,1.8-0.5c1.6,0,2.7,1.3,2.7,2.9
		C132.6,106.1,131.5,107.4,130,107.4z M129.8,102.1c-1,0-1.7,0.6-1.7,0.6v3.2c0,0.1,0.7,0.9,1.9,0.9c1.2,0,2-1.1,2-2.4
		C132,103.2,131.1,102.1,129.8,102.1z"/>
	<path fill="#231F20" d="M136.7,101.6c1.5,0,2.5,1.1,2.5,2.5c0,0.2,0,0.5-0.2,0.5h-4.4c0,1.2,1,2.2,2.1,2.2c0.8,0,1.4-0.3,1.7-0.6
		c0.1-0.1,0.2-0.1,0.2,0l0.1,0.2c0,0,0,0.1-0.1,0.2c-0.3,0.3-1.1,0.6-2,0.6c-1.6,0-2.7-1.3-2.7-2.9
		C134.1,102.9,135.1,101.6,136.7,101.6z M138.7,104.1c0-1.1-0.7-2.1-2-2.1c-1.2,0-2.1,0.9-2.1,2.1H138.7z"/>
	<path fill="#231F20" d="M145.1,106.8c-0.2,0.1-0.8,0.6-1.7,0.6c-1.6,0-2.8-1.3-2.8-2.9c0-1.6,1.1-2.9,2.6-2.9c1,0,1.7,0.5,1.9,0.6
		l0-0.4c0-0.1,0.1-0.1,0.2-0.1h0.1c0.1,0,0.2,0.1,0.2,0.2v5.5c0,1.6-1.1,2.5-2.5,2.5c-0.9,0-1.6-0.5-1.9-0.7c-0.1-0.1-0.1-0.1,0-0.2
		l0.1-0.2c0.1-0.1,0.1-0.1,0.2,0c0.2,0.2,0.8,0.6,1.5,0.6c1.1,0,1.9-0.7,1.9-2V106.8z M145.1,102.8c-0.1-0.1-0.7-0.7-1.8-0.7
		c-1.3,0-2.1,1.1-2.1,2.4c0,1.4,0.9,2.4,2.2,2.4c0.9,0,1.6-0.6,1.7-0.7V102.8z"/>
	<path fill="#231F20" d="M147.7,99.7c0-0.3,0.2-0.5,0.5-0.5s0.5,0.2,0.5,0.5c0,0.3-0.2,0.5-0.5,0.5S147.7,100,147.7,99.7z
		 M147.9,101.9c0-0.1,0.1-0.2,0.2-0.2h0.2c0.1,0,0.2,0.1,0.2,0.2v5.2c0,0.1-0.1,0.2-0.2,0.2H148c-0.1,0-0.2-0.1-0.2-0.2V101.9z"/>
	<path fill="#231F20" d="M150.7,101.9c0-0.1,0.1-0.2,0.2-0.2h0.1c0.1,0,0.2,0,0.2,0.1l0.1,0.6c0.2-0.2,0.9-0.9,2-0.9
		c1.6,0,2.1,1,2.1,2.4v3.1c0,0.1-0.1,0.2-0.2,0.2h-0.2c-0.1,0-0.2-0.1-0.2-0.2v-3c0-1.3-0.5-1.9-1.6-1.9c-1.1,0-1.8,0.9-1.9,0.9v4
		c0,0.1-0.1,0.2-0.2,0.2h-0.2c-0.1,0-0.2-0.1-0.2-0.2V101.9z"/>
	<path fill="#231F20" d="M161,109.9c0,0.1-0.1,0.2-0.2,0.2h-0.2c-0.1,0-0.2-0.1-0.2-0.2v-8c0-0.1,0.1-0.2,0.2-0.2h0.1
		c0.1,0,0.1,0,0.2,0.1l0,0.4c0.2-0.1,0.9-0.6,1.9-0.6c1.5,0,2.6,1.3,2.6,2.9c0,1.6-1.2,2.9-2.8,2.9c-0.9,0-1.5-0.4-1.7-0.6V109.9z
		 M162.7,106.8c1.3,0,2.2-1.1,2.2-2.4c0-1.3-0.9-2.4-2.1-2.4c-1.1,0-1.7,0.6-1.8,0.7v3.4C161.1,106.2,161.8,106.8,162.7,106.8z"/>
	<path fill="#231F20" d="M167.4,101.9c0-0.1,0.1-0.2,0.2-0.2h0.1c0.1,0,0.1,0,0.2,0.2l0.1,0.6c0.1-0.2,0.7-0.8,1.8-0.8
		c0.4,0,0.8,0.1,0.9,0.2c0.1,0,0.2,0.1,0.1,0.3l-0.1,0.2c0,0.1-0.1,0.1-0.2,0.1c-0.1,0-0.4-0.2-0.7-0.2c-1.1,0-1.6,0.9-1.7,0.9v4
		c0,0.1-0.1,0.2-0.2,0.2h-0.2c-0.1,0-0.2-0.1-0.2-0.2V101.9z"/>
	<path fill="#231F20" d="M174.3,101.6c1.5,0,2.8,1.3,2.8,2.9c0,1.6-1.2,2.9-2.8,2.9c-1.6,0-2.8-1.3-2.8-2.9
		C171.5,102.9,172.7,101.6,174.3,101.6z M174.3,106.8c1.2,0,2.2-1.1,2.2-2.4c0-1.3-1-2.4-2.2-2.4c-1.3,0-2.3,1.1-2.3,2.4
		C172,105.8,173,106.8,174.3,106.8z"/>
	<path fill="#231F20" d="M178.9,101.9c0-0.1,0.1-0.2,0.2-0.2h0.1c0.1,0,0.1,0,0.1,0.1l0.1,0.6c0.2-0.2,0.7-0.9,1.8-0.9
		c0.9,0,1.3,0.4,1.7,1c0.2-0.2,0.8-1,1.9-1c1.5,0,2,1,2,2.4v3c0,0.1-0.1,0.2-0.2,0.2h-0.2c-0.1,0-0.1-0.1-0.1-0.2v-3
		c0-1.3-0.5-1.9-1.5-1.9c-1,0-1.5,0.8-1.7,1c0.1,0.3,0.1,0.6,0.1,1v3c0,0.1-0.1,0.2-0.2,0.2h-0.2c-0.1,0-0.2-0.1-0.2-0.2v-3
		c0-1.3-0.5-1.9-1.5-1.9c-1.1,0-1.7,0.8-1.7,0.9v4c0,0.1-0.1,0.2-0.2,0.2h-0.2c-0.1,0-0.2-0.1-0.2-0.2V101.9z"/>
	<path fill="#231F20" d="M189.6,109.9c0,0.1-0.1,0.2-0.2,0.2h-0.2c-0.1,0-0.2-0.1-0.2-0.2v-8c0-0.1,0.1-0.2,0.2-0.2h0.1
		c0.1,0,0.1,0,0.2,0.1l0,0.4c0.2-0.1,0.9-0.6,1.9-0.6c1.5,0,2.6,1.3,2.6,2.9c0,1.6-1.2,2.9-2.8,2.9c-0.9,0-1.5-0.4-1.7-0.6V109.9z
		 M191.3,106.8c1.3,0,2.2-1.1,2.2-2.4c0-1.3-0.9-2.4-2.1-2.4c-1.1,0-1.7,0.6-1.8,0.7v3.4C189.7,106.2,190.3,106.8,191.3,106.8z"/>
	<path fill="#231F20" d="M196.1,102.2h-0.7c-0.1,0-0.2-0.1-0.2-0.2v-0.2c0-0.1,0.1-0.1,0.2-0.1h0.7v-1.5c0-0.1,0.1-0.2,0.2-0.2
		l0.2,0c0.1,0,0.2,0.1,0.2,0.2v1.5h2c0.1,0,0.2,0.1,0.2,0.2v0.2c0,0.1-0.1,0.2-0.2,0.2h-2v3.6c0,0.7,0.1,1,0.8,1
		c0.6,0,1.1-0.3,1.3-0.4c0.1-0.1,0.2,0,0.2,0l0.1,0.2c0,0.1,0,0.2,0,0.2c-0.2,0.2-0.9,0.5-1.6,0.5c-1,0-1.2-0.7-1.2-1.5V102.2z"/>
	<path fill="#231F20" d="M200.5,99c0-0.1,0.1-0.2,0.2-0.2h0.2c0.1,0,0.2,0.1,0.2,0.2v8c0,0.1-0.1,0.2-0.2,0.2h-0.2
		c-0.1,0-0.2-0.1-0.2-0.2V99z"/>
	<path fill="#231F20" d="M202.7,101.9c0-0.1,0-0.2,0.1-0.2h0.3c0.1,0,0.2,0,0.2,0.1l2,4.8h0l2-4.8c0-0.1,0.1-0.1,0.2-0.1h0.3
		c0.1,0,0.1,0.1,0.1,0.2l-3.5,8.1c0,0.1-0.1,0.1-0.2,0.1h-0.3c-0.1,0-0.2-0.1-0.1-0.2l1.2-2.7L202.7,101.9z"/>
	<path fill="#231F20" d="M214,103.7c0.6,0,1.3,0.2,1.4,0.3c0-1.2-0.2-1.8-1.2-1.8c-0.9,0-1.5,0.3-1.7,0.4c-0.1,0-0.2,0-0.2-0.1
		l-0.1-0.2c-0.1-0.1,0-0.2,0.1-0.2c0,0,0.7-0.4,1.9-0.4c1.7,0,1.7,1,1.7,2.4v3.1c0,0.1-0.1,0.2-0.2,0.2h-0.1c-0.1,0-0.2,0-0.2-0.2
		l-0.1-0.5c-0.3,0.3-1.1,0.8-1.9,0.8c-1,0-1.8-0.7-1.8-1.8C211.7,104.5,212.6,103.7,214,103.7z M213.6,106.8c0.8,0,1.6-0.5,1.9-0.8
		v-1.6c-0.2-0.1-0.8-0.3-1.4-0.3c-1.1,0-1.8,0.6-1.8,1.4C212.2,106.3,212.8,106.8,213.6,106.8z"/>
	<path fill="#231F20" d="M218.5,102.2h-0.7c-0.1,0-0.2-0.1-0.2-0.2v-0.2c0-0.1,0.1-0.1,0.2-0.1h0.7v-1.5c0-0.1,0.1-0.2,0.2-0.2
		l0.2,0c0.1,0,0.2,0.1,0.2,0.2v1.5h2c0.1,0,0.2,0.1,0.2,0.2v0.2c0,0.1-0.1,0.2-0.2,0.2h-2v3.6c0,0.7,0.1,1,0.8,1
		c0.6,0,1.1-0.3,1.3-0.4c0.1-0.1,0.2,0,0.2,0l0.1,0.2c0,0.1,0,0.2,0,0.2c-0.2,0.2-0.9,0.5-1.6,0.5c-1,0-1.2-0.7-1.2-1.5V102.2z"/>
	<path fill="#231F20" d="M225.8,106l0.2-0.2c0.1-0.1,0.1-0.1,0.2,0c0.2,0.3,0.8,0.9,2,0.9c1.4,0,2.3-1.1,2.3-2.3
		c0-1.2-0.8-2.1-2.3-2.1h-2.1c-0.1,0-0.2-0.1-0.2-0.3V99c0-0.1,0.1-0.2,0.2-0.2h3.9c0.1,0,0.2,0.1,0.2,0.2v0.2
		c0,0.1-0.1,0.2-0.2,0.2h-3.5v2.6h1.8c1.9,0,2.9,0.9,2.9,2.6c0,1.6-1.2,2.8-2.9,2.8c-1.4,0-2.1-0.7-2.4-1
		C225.7,106.2,225.7,106.1,225.8,106z"/>
	<path fill="#231F20" d="M233.5,109.9c0,0.1-0.1,0.2-0.2,0.2h-0.2c-0.1,0-0.2-0.1-0.2-0.2v-8c0-0.1,0.1-0.2,0.2-0.2h0.1
		c0.1,0,0.1,0,0.2,0.1l0,0.4c0.2-0.1,0.9-0.6,1.9-0.6c1.5,0,2.6,1.3,2.6,2.9c0,1.6-1.2,2.9-2.8,2.9c-0.9,0-1.5-0.4-1.7-0.6V109.9z
		 M235.2,106.8c1.3,0,2.2-1.1,2.2-2.4c0-1.3-0.9-2.4-2.1-2.4c-1.1,0-1.7,0.6-1.8,0.7v3.4C233.6,106.2,234.3,106.8,235.2,106.8z"/>
	<path fill="#231F20" d="M239.9,101.9c0-0.1,0.1-0.2,0.2-0.2h0.1c0.1,0,0.1,0,0.1,0.1l0.1,0.6c0.2-0.2,0.7-0.9,1.8-0.9
		c0.9,0,1.3,0.4,1.7,1c0.2-0.2,0.8-1,1.9-1c1.5,0,2,1,2,2.4v3c0,0.1-0.1,0.2-0.2,0.2h-0.2c-0.1,0-0.1-0.1-0.1-0.2v-3
		c0-1.3-0.5-1.9-1.5-1.9c-1,0-1.5,0.8-1.7,1c0.1,0.3,0.1,0.6,0.1,1v3c0,0.1-0.1,0.2-0.2,0.2h-0.2c-0.1,0-0.2-0.1-0.2-0.2v-3
		c0-1.3-0.5-1.9-1.5-1.9c-1.1,0-1.7,0.8-1.7,0.9v4c0,0.1-0.1,0.2-0.2,0.2H240c-0.1,0-0.2-0.1-0.2-0.2V101.9z"/>
	<path fill="#231F20" d="M20.2,118.7c1.2,0,2.1,0.4,2.9,1.1c0.1,0.1,0.1,0.2,0,0.2l-0.2,0.2c-0.1,0.1-0.1,0.1-0.2,0
		c-0.7-0.6-1.5-1-2.5-1c-2.1,0-3.7,1.7-3.7,3.8c0,2.1,1.6,3.8,3.7,3.8c1,0,1.8-0.4,2.5-1c0.1-0.1,0.1-0.1,0.2,0l0.2,0.2
		c0.1,0,0.1,0.1,0,0.2c-0.8,0.8-1.9,1.2-2.9,1.2c-2.4,0-4.3-1.9-4.3-4.3C15.8,120.6,17.8,118.7,20.2,118.7z"/>
	<path fill="#231F20" d="M27.3,121.6c1.5,0,2.8,1.3,2.8,2.9c0,1.6-1.2,2.9-2.8,2.9c-1.6,0-2.8-1.3-2.8-2.9
		C24.5,122.9,25.7,121.6,27.3,121.6z M27.3,126.8c1.2,0,2.2-1.1,2.2-2.4c0-1.3-1-2.4-2.2-2.4c-1.3,0-2.3,1.1-2.3,2.4
		C25,125.8,26,126.8,27.3,126.8z"/>
	<path fill="#231F20" d="M34.4,121.6c1.1,0,1.8,0.5,2,0.9c0.1,0.1,0.1,0.2,0,0.3l-0.1,0.1c-0.1,0.1-0.2,0.1-0.3,0
		c-0.1-0.1-0.8-0.7-1.6-0.7c-1.3,0-2.3,1-2.3,2.4c0,1.3,1,2.4,2.4,2.4c1,0,1.6-0.7,1.8-0.9c0.1-0.1,0.2-0.1,0.3,0l0.1,0.1
		c0.1,0.1,0.1,0.1,0,0.2c-0.2,0.3-1,1.1-2.2,1.1c-1.6,0-2.9-1.2-2.9-2.9C31.6,122.8,32.9,121.6,34.4,121.6z"/>
	<path fill="#231F20" d="M38.4,119c0-0.1,0.1-0.2,0.2-0.2h0.2c0.1,0,0.2,0.1,0.2,0.2v4.9l2.9-2.2c0.1-0.1,0.2-0.1,0.2-0.1h0.4
		c0.1,0,0.1,0.2,0,0.3l-2.9,2.2l3.1,2.8c0.1,0.1,0,0.2-0.1,0.2h-0.3c-0.1,0-0.1,0-0.3-0.1l-3-2.8v2.7c0,0.1-0.1,0.2-0.2,0.2h-0.2
		c-0.1,0-0.2-0.1-0.2-0.2V119z"/>
	<path fill="#231F20" d="M44.4,122.2h-0.7c-0.1,0-0.2-0.1-0.2-0.2v-0.2c0-0.1,0.1-0.1,0.2-0.1h0.7v-1.5c0-0.1,0.1-0.2,0.2-0.2l0.2,0
		c0.1,0,0.2,0.1,0.2,0.2v1.5h2c0.1,0,0.2,0.1,0.2,0.2v0.2c0,0.1-0.1,0.2-0.2,0.2h-2v3.6c0,0.7,0.1,1,0.8,1c0.6,0,1.1-0.3,1.3-0.4
		c0.1-0.1,0.2,0,0.2,0l0.1,0.2c0,0.1,0,0.2,0,0.2c-0.2,0.2-0.9,0.5-1.6,0.5c-1,0-1.2-0.7-1.2-1.5V122.2z"/>
	<path fill="#231F20" d="M50.6,123.7c0.6,0,1.3,0.2,1.4,0.3c0-1.2-0.2-1.8-1.2-1.8c-0.9,0-1.5,0.3-1.7,0.4c-0.1,0-0.2,0-0.2-0.1
		l-0.1-0.2c-0.1-0.1,0-0.2,0.1-0.2c0,0,0.7-0.4,1.9-0.4c1.7,0,1.7,1,1.7,2.4v3.1c0,0.1-0.1,0.2-0.2,0.2h-0.1c-0.1,0-0.2,0-0.2-0.2
		l-0.1-0.5c-0.3,0.3-1.1,0.8-1.9,0.8c-1,0-1.8-0.7-1.8-1.8C48.3,124.5,49.1,123.7,50.6,123.7z M50.2,126.8c0.8,0,1.6-0.5,1.9-0.8
		v-1.6c-0.2-0.1-0.8-0.3-1.4-0.3c-1.1,0-1.8,0.6-1.8,1.4C48.8,126.3,49.4,126.8,50.2,126.8z"/>
	<path fill="#231F20" d="M54.5,119.7c0-0.3,0.2-0.5,0.5-0.5s0.5,0.2,0.5,0.5c0,0.3-0.2,0.5-0.5,0.5S54.5,120,54.5,119.7z
		 M54.8,121.9c0-0.1,0.1-0.2,0.2-0.2h0.2c0.1,0,0.2,0.1,0.2,0.2v5.2c0,0.1-0.1,0.2-0.2,0.2h-0.2c-0.1,0-0.2-0.1-0.2-0.2V121.9z"/>
	<path fill="#231F20" d="M57.6,119c0-0.1,0.1-0.2,0.2-0.2H58c0.1,0,0.2,0.1,0.2,0.2v8c0,0.1-0.1,0.2-0.2,0.2h-0.2
		c-0.1,0-0.2-0.1-0.2-0.2V119z"/>
	<path fill="#231F20" d="M60.1,126.5l0.1-0.2c0-0.1,0.2-0.1,0.3,0c0.1,0.1,0.7,0.5,1.5,0.5c0.8,0,1.4-0.4,1.4-1
		c0-0.6-0.7-0.9-1.6-1.3c-1-0.3-1.7-0.7-1.7-1.6c0-0.6,0.5-1.4,1.8-1.4c0.7,0,1.3,0.3,1.6,0.4c0.1,0.1,0.1,0.2,0.1,0.3l-0.1,0.1
		c0,0.1-0.1,0.1-0.2,0c-0.1-0.1-0.7-0.4-1.3-0.4c-0.9,0-1.2,0.5-1.2,0.9c0,0.6,0.6,0.9,1.4,1.2c1,0.4,1.9,0.7,1.9,1.8
		c0,0.8-0.8,1.5-1.9,1.5c-0.9,0-1.5-0.4-1.8-0.6C60.1,126.7,60.1,126.6,60.1,126.5z"/>
	<path fill="#231F20" d="M66,126.4c0.5,0,0.8,0.6,0.8,1.2c0,0.8-0.3,1.3-0.7,1.7c-0.1,0.1-0.1,0.1-0.2,0l-0.1-0.1
		c-0.1-0.1,0-0.1,0-0.2c0.3-0.3,0.6-0.7,0.6-1.2c0-0.2,0-0.4-0.1-0.5c-0.1,0.1-0.2,0.1-0.3,0.1c-0.3,0-0.4-0.2-0.4-0.5
		C65.5,126.6,65.7,126.4,66,126.4z"/>
	<path fill="#231F20" d="M74,121.6c1.1,0,1.8,0.5,1.8,0.5V119c0-0.1,0.1-0.2,0.2-0.2h0.2c0.1,0,0.2,0.1,0.2,0.2v8
		c0,0.1-0.1,0.2-0.2,0.2h-0.1c-0.1,0-0.2,0-0.2-0.2l0-0.5c-0.2,0.2-0.9,0.8-1.9,0.8c-1.4,0-2.5-1.3-2.5-2.9
		C71.4,122.9,72.5,121.6,74,121.6z M73.9,126.8c1.2,0,1.8-0.9,1.9-0.9v-3.2c0,0-0.7-0.6-1.7-0.6c-1.3,0-2.2,1.1-2.2,2.4
		C71.9,125.7,72.8,126.8,73.9,126.8z"/>
	<path fill="#231F20" d="M78.4,119.7c0-0.3,0.2-0.5,0.5-0.5s0.5,0.2,0.5,0.5c0,0.3-0.2,0.5-0.5,0.5S78.4,120,78.4,119.7z
		 M78.6,121.9c0-0.1,0.1-0.2,0.2-0.2h0.2c0.1,0,0.2,0.1,0.2,0.2v5.2c0,0.1-0.1,0.2-0.2,0.2h-0.2c-0.1,0-0.2-0.1-0.2-0.2V121.9z"/>
	<path fill="#231F20" d="M81.4,121.9c0-0.1,0.1-0.2,0.2-0.2h0.1c0.1,0,0.2,0,0.2,0.1l0.1,0.6c0.2-0.2,0.9-0.9,2-0.9
		c1.6,0,2.1,1,2.1,2.4v3.1c0,0.1-0.1,0.2-0.2,0.2h-0.2c-0.1,0-0.2-0.1-0.2-0.2v-3c0-1.3-0.5-1.9-1.6-1.9c-1.1,0-1.8,0.9-1.9,0.9v4
		c0,0.1-0.1,0.2-0.2,0.2h-0.2c-0.1,0-0.2-0.1-0.2-0.2V121.9z"/>
	<path fill="#231F20" d="M88.1,121.9c0-0.1,0.1-0.2,0.2-0.2h0.1c0.1,0,0.2,0,0.2,0.1l0.1,0.6c0.2-0.2,0.9-0.9,2-0.9
		c1.6,0,2.1,1,2.1,2.4v3.1c0,0.1-0.1,0.2-0.2,0.2h-0.2c-0.1,0-0.2-0.1-0.2-0.2v-3c0-1.3-0.5-1.9-1.6-1.9c-1.1,0-1.8,0.9-1.9,0.9v4
		c0,0.1-0.1,0.2-0.2,0.2h-0.2c-0.1,0-0.2-0.1-0.2-0.2V121.9z"/>
	<path fill="#231F20" d="M97.1,121.6c1.5,0,2.5,1.1,2.5,2.5c0,0.2,0,0.5-0.2,0.5H95c0,1.2,1,2.2,2.1,2.2c0.8,0,1.4-0.3,1.7-0.6
		c0.1-0.1,0.2-0.1,0.2,0l0.1,0.2c0,0,0,0.1-0.1,0.2c-0.3,0.3-1.1,0.6-2,0.6c-1.6,0-2.7-1.3-2.7-2.9
		C94.4,122.9,95.5,121.6,97.1,121.6z M99.1,124.1c0-1.1-0.7-2.1-2-2.1c-1.2,0-2.1,0.9-2.1,2.1H99.1z"/>
	<path fill="#231F20" d="M101.4,121.9c0-0.1,0.1-0.2,0.2-0.2h0.1c0.1,0,0.1,0,0.2,0.2l0.1,0.6c0.1-0.2,0.7-0.8,1.8-0.8
		c0.4,0,0.8,0.1,0.9,0.2c0.1,0,0.2,0.1,0.1,0.3l-0.1,0.2c0,0.1-0.1,0.1-0.2,0.1c-0.1,0-0.4-0.2-0.7-0.2c-1.1,0-1.6,0.9-1.7,0.9v4
		c0,0.1-0.1,0.2-0.2,0.2h-0.2c-0.1,0-0.2-0.1-0.2-0.2V121.9z"/>
	<path fill="#231F20" d="M110.5,122.7l-0.2-0.2c-0.5-0.6-1-1.2-1-2c0-0.8,0.6-1.9,2.1-1.9c1.3,0,1.9,0.9,1.9,1.8c0,1-1,1.8-2,2.3
		l2.4,2.4c0.5-0.7,0.7-1.6,0.7-2.4c0-0.1,0-0.2,0-0.2s0-0.1,0.1-0.1h0.3c0.1,0,0.1,0,0.1,0.1c0,0.1,0,0.2,0,0.2c0,0.9-0.3,2-0.9,2.8
		l1.2,1.2c0.1,0.1,0.1,0.2,0,0.3l-0.2,0.2c-0.1,0.1-0.2,0-0.2,0l-1.2-1.2c-0.7,0.8-1.6,1.3-2.8,1.3c-1.4,0-2.3-1-2.3-2.2
		C108.8,123.9,109.7,123.2,110.5,122.7z M111.1,126.9c1,0,1.8-0.5,2.4-1.2l-2.6-2.6c-0.8,0.4-1.6,1.1-1.6,2.1
		C109.3,126.1,110,126.9,111.1,126.9z M112.8,120.5c0-0.7-0.5-1.4-1.5-1.4c-1,0-1.5,0.7-1.5,1.4c0,0.6,0.4,1.1,0.8,1.5
		c0.1,0.1,0.2,0.2,0.3,0.3C111.9,122,112.8,121.4,112.8,120.5z"/>
	<path fill="#231F20" d="M122.6,121.6c1.1,0,1.8,0.5,1.8,0.5V119c0-0.1,0.1-0.2,0.2-0.2h0.2c0.1,0,0.2,0.1,0.2,0.2v8
		c0,0.1-0.1,0.2-0.2,0.2h-0.1c-0.1,0-0.2,0-0.2-0.2l0-0.5c-0.2,0.2-0.9,0.8-1.9,0.8c-1.4,0-2.5-1.3-2.5-2.9
		C119.9,122.9,121,121.6,122.6,121.6z M122.5,126.8c1.2,0,1.8-0.9,1.9-0.9v-3.2c0,0-0.7-0.6-1.7-0.6c-1.3,0-2.2,1.1-2.2,2.4
		C120.5,125.7,121.3,126.8,122.5,126.8z"/>
	<path fill="#231F20" d="M129,123.7c0.6,0,1.3,0.2,1.4,0.3c0-1.2-0.2-1.8-1.2-1.8c-0.9,0-1.5,0.3-1.7,0.4c-0.1,0-0.2,0-0.2-0.1
		l-0.1-0.2c-0.1-0.1,0-0.2,0.1-0.2c0,0,0.7-0.4,1.9-0.4c1.7,0,1.7,1,1.7,2.4v3.1c0,0.1-0.1,0.2-0.2,0.2h-0.1c-0.1,0-0.2,0-0.2-0.2
		l-0.1-0.5c-0.3,0.3-1.1,0.8-1.9,0.8c-1,0-1.8-0.7-1.8-1.8C126.7,124.5,127.5,123.7,129,123.7z M128.5,126.8c0.8,0,1.6-0.5,1.9-0.8
		v-1.6c-0.2-0.1-0.8-0.3-1.4-0.3c-1.1,0-1.8,0.6-1.8,1.4C127.2,126.3,127.8,126.8,128.5,126.8z"/>
	<path fill="#231F20" d="M133.1,121.9c0-0.1,0.1-0.2,0.2-0.2h0.1c0.1,0,0.2,0,0.2,0.1l0.1,0.6c0.2-0.2,0.9-0.9,2-0.9
		c1.6,0,2.1,1,2.1,2.4v3.1c0,0.1-0.1,0.2-0.2,0.2h-0.2c-0.1,0-0.2-0.1-0.2-0.2v-3c0-1.3-0.5-1.9-1.6-1.9c-1.1,0-1.8,0.9-1.9,0.9v4
		c0,0.1-0.1,0.2-0.2,0.2h-0.2c-0.1,0-0.2-0.1-0.2-0.2V121.9z"/>
	<path fill="#231F20" d="M142.3,121.6c1.1,0,1.8,0.5,2,0.9c0.1,0.1,0.1,0.2,0,0.3l-0.1,0.1c-0.1,0.1-0.2,0.1-0.3,0
		c-0.1-0.1-0.8-0.7-1.6-0.7c-1.3,0-2.3,1-2.3,2.4c0,1.3,1,2.4,2.4,2.4c1,0,1.6-0.7,1.8-0.9c0.1-0.1,0.2-0.1,0.3,0l0.1,0.1
		c0.1,0.1,0.1,0.1,0,0.2c-0.2,0.3-1,1.1-2.2,1.1c-1.6,0-2.9-1.2-2.9-2.9C139.5,122.8,140.8,121.6,142.3,121.6z"/>
	<path fill="#231F20" d="M146.1,119.7c0-0.3,0.2-0.5,0.5-0.5s0.5,0.2,0.5,0.5c0,0.3-0.2,0.5-0.5,0.5S146.1,120,146.1,119.7z
		 M146.3,121.9c0-0.1,0.1-0.2,0.2-0.2h0.2c0.1,0,0.2,0.1,0.2,0.2v5.2c0,0.1-0.1,0.2-0.2,0.2h-0.2c-0.1,0-0.2-0.1-0.2-0.2V121.9z"/>
	<path fill="#231F20" d="M149.1,121.9c0-0.1,0.1-0.2,0.2-0.2h0.1c0.1,0,0.2,0,0.2,0.1l0.1,0.6c0.2-0.2,0.9-0.9,2-0.9
		c1.6,0,2.1,1,2.1,2.4v3.1c0,0.1-0.1,0.2-0.2,0.2h-0.2c-0.1,0-0.2-0.1-0.2-0.2v-3c0-1.3-0.5-1.9-1.6-1.9c-1.1,0-1.8,0.9-1.9,0.9v4
		c0,0.1-0.1,0.2-0.2,0.2h-0.2c-0.1,0-0.2-0.1-0.2-0.2V121.9z"/>
	<path fill="#231F20" d="M159.9,126.8c-0.2,0.1-0.8,0.6-1.7,0.6c-1.6,0-2.8-1.3-2.8-2.9c0-1.6,1.1-2.9,2.6-2.9c1,0,1.7,0.5,1.9,0.6
		l0-0.4c0-0.1,0.1-0.1,0.2-0.1h0.1c0.1,0,0.2,0.1,0.2,0.2v5.5c0,1.6-1.1,2.5-2.5,2.5c-0.9,0-1.6-0.5-1.9-0.7c-0.1-0.1-0.1-0.1,0-0.2
		l0.1-0.2c0.1-0.1,0.1-0.1,0.2,0c0.2,0.2,0.8,0.6,1.5,0.6c1.1,0,1.9-0.7,1.9-2V126.8z M159.9,122.8c-0.1-0.1-0.7-0.7-1.8-0.7
		c-1.3,0-2.1,1.1-2.1,2.4c0,1.4,0.9,2.4,2.2,2.4c0.9,0,1.6-0.6,1.7-0.7V122.8z"/>
	<path fill="#231F20" d="M166,122.2h-0.7c-0.1,0-0.2-0.1-0.2-0.2v-0.2c0-0.1,0.1-0.1,0.2-0.1h0.7v-1.5c0-0.1,0.1-0.2,0.2-0.2l0.2,0
		c0.1,0,0.2,0.1,0.2,0.2v1.5h2c0.1,0,0.2,0.1,0.2,0.2v0.2c0,0.1-0.1,0.2-0.2,0.2h-2v3.6c0,0.7,0.1,1,0.8,1c0.6,0,1.1-0.3,1.3-0.4
		c0.1-0.1,0.2,0,0.2,0l0.1,0.2c0,0.1,0,0.2,0,0.2c-0.2,0.2-0.9,0.5-1.6,0.5c-1,0-1.2-0.7-1.2-1.5V122.2z"/>
	<path fill="#231F20" d="M172.8,121.6c1.5,0,2.8,1.3,2.8,2.9c0,1.6-1.2,2.9-2.8,2.9c-1.6,0-2.8-1.3-2.8-2.9
		C170,122.9,171.2,121.6,172.8,121.6z M172.8,126.8c1.2,0,2.2-1.1,2.2-2.4c0-1.3-1-2.4-2.2-2.4c-1.3,0-2.3,1.1-2.3,2.4
		C170.5,125.8,171.5,126.8,172.8,126.8z"/>
	<path fill="#231F20" d="M180.3,119.7c0-0.3,0.2-0.5,0.5-0.5s0.5,0.2,0.5,0.5c0,0.3-0.2,0.5-0.5,0.5S180.3,120,180.3,119.7z
		 M180.5,121.9c0-0.1,0.1-0.2,0.2-0.2h0.2c0.1,0,0.2,0.1,0.2,0.2v5.2c0,0.1-0.1,0.2-0.2,0.2h-0.2c-0.1,0-0.2-0.1-0.2-0.2V121.9z"/>
	<path fill="#231F20" d="M183.3,121.9c0-0.1,0.1-0.2,0.2-0.2h0.1c0.1,0,0.1,0,0.1,0.1l0.1,0.6c0.2-0.2,0.7-0.9,1.8-0.9
		c0.9,0,1.3,0.4,1.7,1c0.2-0.2,0.8-1,1.9-1c1.5,0,2,1,2,2.4v3c0,0.1-0.1,0.2-0.2,0.2h-0.2c-0.1,0-0.1-0.1-0.1-0.2v-3
		c0-1.3-0.5-1.9-1.5-1.9c-1,0-1.5,0.8-1.7,1c0.1,0.3,0.1,0.6,0.1,1v3c0,0.1-0.1,0.2-0.2,0.2h-0.2c-0.1,0-0.2-0.1-0.2-0.2v-3
		c0-1.3-0.5-1.9-1.5-1.9c-1.1,0-1.7,0.8-1.7,0.9v4c0,0.1-0.1,0.2-0.2,0.2h-0.2c-0.1,0-0.2-0.1-0.2-0.2V121.9z"/>
	<path fill="#231F20" d="M193.5,121.9c0-0.1,0.1-0.2,0.2-0.2h0.1c0.1,0,0.1,0,0.1,0.1l0.1,0.6c0.2-0.2,0.7-0.9,1.8-0.9
		c0.9,0,1.3,0.4,1.7,1c0.2-0.2,0.8-1,1.9-1c1.5,0,2,1,2,2.4v3c0,0.1-0.1,0.2-0.2,0.2h-0.2c-0.1,0-0.1-0.1-0.1-0.2v-3
		c0-1.3-0.5-1.9-1.5-1.9c-1,0-1.5,0.8-1.7,1c0.1,0.3,0.1,0.6,0.1,1v3c0,0.1-0.1,0.2-0.2,0.2h-0.2c-0.1,0-0.2-0.1-0.2-0.2v-3
		c0-1.3-0.5-1.9-1.5-1.9c-1.1,0-1.7,0.8-1.7,0.9v4c0,0.1-0.1,0.2-0.2,0.2h-0.2c-0.1,0-0.2-0.1-0.2-0.2V121.9z"/>
	<path fill="#231F20" d="M206,121.6c1.5,0,2.5,1.1,2.5,2.5c0,0.2,0,0.5-0.2,0.5h-4.4c0,1.2,1,2.2,2.1,2.2c0.8,0,1.4-0.3,1.7-0.6
		c0.1-0.1,0.2-0.1,0.2,0l0.1,0.2c0,0,0,0.1-0.1,0.2c-0.3,0.3-1.1,0.6-2,0.6c-1.6,0-2.7-1.3-2.7-2.9
		C203.3,122.9,204.4,121.6,206,121.6z M207.9,124.1c0-1.1-0.7-2.1-2-2.1c-1.2,0-2.1,0.9-2.1,2.1H207.9z"/>
	<path fill="#231F20" d="M212.6,121.6c1.1,0,1.8,0.5,1.8,0.5V119c0-0.1,0.1-0.2,0.2-0.2h0.2c0.1,0,0.2,0.1,0.2,0.2v8
		c0,0.1-0.1,0.2-0.2,0.2h-0.1c-0.1,0-0.2,0-0.2-0.2l0-0.5c-0.2,0.2-0.9,0.8-1.9,0.8c-1.4,0-2.5-1.3-2.5-2.9
		C209.9,122.9,211,121.6,212.6,121.6z M212.5,126.8c1.2,0,1.8-0.9,1.9-0.9v-3.2c0,0-0.7-0.6-1.7-0.6c-1.3,0-2.2,1.1-2.2,2.4
		C210.4,125.7,211.3,126.8,212.5,126.8z"/>
	<path fill="#231F20" d="M216.9,119.7c0-0.3,0.2-0.5,0.5-0.5s0.5,0.2,0.5,0.5c0,0.3-0.2,0.5-0.5,0.5S216.9,120,216.9,119.7z
		 M217.1,121.9c0-0.1,0.1-0.2,0.2-0.2h0.2c0.1,0,0.2,0.1,0.2,0.2v5.2c0,0.1-0.1,0.2-0.2,0.2h-0.2c-0.1,0-0.2-0.1-0.2-0.2V121.9z"/>
	<path fill="#231F20" d="M221.7,123.7c0.6,0,1.3,0.2,1.4,0.3c0-1.2-0.2-1.8-1.2-1.8c-0.9,0-1.5,0.3-1.7,0.4c-0.1,0-0.2,0-0.2-0.1
		l-0.1-0.2c-0.1-0.1,0-0.2,0.1-0.2c0,0,0.7-0.4,1.9-0.4c1.7,0,1.7,1,1.7,2.4v3.1c0,0.1-0.1,0.2-0.2,0.2h-0.1c-0.1,0-0.2,0-0.2-0.2
		l-0.1-0.5c-0.3,0.3-1.1,0.8-1.9,0.8c-1,0-1.8-0.7-1.8-1.8C219.4,124.5,220.3,123.7,221.7,123.7z M221.3,126.8
		c0.8,0,1.6-0.5,1.9-0.8v-1.6c-0.2-0.1-0.8-0.3-1.4-0.3c-1.1,0-1.8,0.6-1.8,1.4C219.9,126.3,220.5,126.8,221.3,126.8z"/>
	<path fill="#231F20" d="M226.1,122.2h-0.7c-0.1,0-0.2-0.1-0.2-0.2v-0.2c0-0.1,0.1-0.1,0.2-0.1h0.7v-1.5c0-0.1,0.1-0.2,0.2-0.2
		l0.2,0c0.1,0,0.2,0.1,0.2,0.2v1.5h2c0.1,0,0.2,0.1,0.2,0.2v0.2c0,0.1-0.1,0.2-0.2,0.2h-2v3.6c0,0.7,0.1,1,0.8,1
		c0.6,0,1.1-0.3,1.3-0.4c0.1-0.1,0.2,0,0.2,0l0.1,0.2c0,0.1,0,0.2,0,0.2c-0.2,0.2-0.9,0.5-1.6,0.5c-1,0-1.2-0.7-1.2-1.5V122.2z"/>
	<path fill="#231F20" d="M232.8,121.6c1.5,0,2.5,1.1,2.5,2.5c0,0.2,0,0.5-0.2,0.5h-4.4c0,1.2,1,2.2,2.1,2.2c0.8,0,1.4-0.3,1.7-0.6
		c0.1-0.1,0.2-0.1,0.2,0l0.1,0.2c0,0,0,0.1-0.1,0.2c-0.3,0.3-1.1,0.6-2,0.6c-1.6,0-2.7-1.3-2.7-2.9
		C230.1,122.9,231.1,121.6,232.8,121.6z M234.7,124.1c0-1.1-0.7-2.1-2-2.1c-1.2,0-2.1,0.9-2.1,2.1H234.7z"/>
	<path fill="#231F20" d="M237.1,119c0-0.1,0.1-0.2,0.2-0.2h0.2c0.1,0,0.2,0.1,0.2,0.2v8c0,0.1-0.1,0.2-0.2,0.2h-0.2
		c-0.1,0-0.2-0.1-0.2-0.2V119z"/>
	<path fill="#231F20" d="M239.3,121.9c0-0.1,0-0.2,0.1-0.2h0.3c0.1,0,0.2,0,0.2,0.1l2,4.8h0l2-4.8c0-0.1,0.1-0.1,0.2-0.1h0.3
		c0.1,0,0.1,0.1,0.1,0.2l-3.5,8.1c0,0.1-0.1,0.1-0.2,0.1h-0.3c-0.1,0-0.2-0.1-0.1-0.2l1.2-2.7L239.3,121.9z"/>
	<path fill="#231F20" d="M249,122.2h-0.9c-0.1,0-0.2-0.1-0.2-0.2v-0.2c0-0.1,0.1-0.2,0.2-0.2h0.9v-0.9c0-1.3,0.6-2.1,1.8-2.1
		c0.7,0,1.3,0.3,1.5,0.6c0.1,0.1,0.1,0.2,0,0.2l-0.1,0.1c-0.1,0.1-0.1,0.1-0.2,0c-0.3-0.3-0.7-0.5-1.2-0.5c-0.9,0-1.3,0.6-1.3,1.6
		v0.9h2.1c0.1,0,0.2,0.1,0.2,0.2v0.2c0,0.1-0.1,0.2-0.2,0.2h-2.1v4.8c0,0.1-0.1,0.2-0.2,0.2h-0.2c-0.1,0-0.2-0.1-0.2-0.2V122.2z"/>
	<path fill="#231F20" d="M255.5,121.6c1.5,0,2.8,1.3,2.8,2.9c0,1.6-1.2,2.9-2.8,2.9c-1.6,0-2.8-1.3-2.8-2.9
		C252.7,122.9,253.9,121.6,255.5,121.6z M255.5,126.8c1.2,0,2.2-1.1,2.2-2.4c0-1.3-1-2.4-2.2-2.4c-1.3,0-2.3,1.1-2.3,2.4
		C253.2,125.8,254.2,126.8,255.5,126.8z"/>
	<path fill="#231F20" d="M260.2,119c0-0.1,0.1-0.2,0.2-0.2h0.2c0.1,0,0.2,0.1,0.2,0.2v8c0,0.1-0.1,0.2-0.2,0.2h-0.2
		c-0.1,0-0.2-0.1-0.2-0.2V119z"/>
	<path fill="#231F20" d="M263.1,119c0-0.1,0.1-0.2,0.2-0.2h0.2c0.1,0,0.2,0.1,0.2,0.2v8c0,0.1-0.1,0.2-0.2,0.2h-0.2
		c-0.1,0-0.2-0.1-0.2-0.2V119z"/>
	<path fill="#231F20" d="M268.4,121.6c1.5,0,2.8,1.3,2.8,2.9c0,1.6-1.2,2.9-2.8,2.9c-1.6,0-2.8-1.3-2.8-2.9
		C265.6,122.9,266.8,121.6,268.4,121.6z M268.4,126.8c1.2,0,2.2-1.1,2.2-2.4c0-1.3-1-2.4-2.2-2.4c-1.3,0-2.3,1.1-2.3,2.4
		C266.1,125.8,267.1,126.8,268.4,126.8z"/>
	<path fill="#231F20" d="M272.4,121.9c0-0.1,0-0.2,0.1-0.2h0.3c0.1,0,0.2,0,0.2,0.1l1.3,4.5h0l1.7-4.6c0-0.1,0.1-0.1,0.2-0.1h0
		c0.1,0,0.1,0,0.2,0.1l1.7,4.6h0l1.3-4.5c0-0.1,0.1-0.1,0.2-0.1h0.3c0.1,0,0.1,0.1,0.1,0.2l-1.7,5.3c0,0.1-0.1,0.1-0.2,0.1h0
		c-0.1,0-0.1,0-0.2-0.1l-1.7-4.7h0l-1.7,4.7c0,0.1-0.1,0.1-0.2,0.1h0c-0.1,0-0.1,0-0.2-0.1L272.4,121.9z"/>
</g>
<g>
	<g>
		<path fill="#231F20" d="M63.5,9.4C63.5,9.2,63.7,9,64,9h1.7c0.2,0,0.5,0.2,0.5,0.5v5.1l4.8-5.4C70.9,9.1,71,9,71.2,9h1.9
			c0.4,0,0.5,0.4,0.3,0.7l-4.9,5.5l5.3,6.3c0.2,0.2,0,0.7-0.3,0.7h-2.1c-0.2,0-0.3-0.1-0.3-0.1L66.1,16v5.8c0,0.2-0.2,0.5-0.5,0.5
			H64c-0.3,0-0.5-0.2-0.5-0.5V9.4z"/>
		<path fill="#231F20" d="M77.8,21.7L83.7,9c0.1-0.1,0.2-0.2,0.3-0.2h0.2c0.2,0,0.3,0.1,0.3,0.2l5.8,12.7c0.1,0.2,0,0.5-0.3,0.5
			h-1.6c-0.3,0-0.4-0.1-0.5-0.4l-0.9-2h-5.6l-0.9,2c-0.1,0.2-0.2,0.4-0.5,0.4h-1.6C77.9,22.2,77.7,21.9,77.8,21.7z M86,17.7
			l-1.9-4.2H84l-1.8,4.2H86z"/>
		<path fill="#231F20" d="M97.1,11.2h-2.9c-0.2,0-0.4-0.2-0.4-0.4V9.3C93.8,9.1,94,9,94.2,9h8.2c0.2,0,0.4,0.2,0.4,0.4v1.5
			c0,0.2-0.2,0.4-0.4,0.4h-2.9v10.6c0,0.2-0.2,0.4-0.4,0.4h-1.8c-0.2,0-0.4-0.2-0.4-0.4V11.2z"/>
		<path fill="#231F20" d="M108.6,9.3c0-0.2,0.2-0.4,0.4-0.4h7.7c0.2,0,0.4,0.2,0.4,0.4v1.5c0,0.2-0.2,0.4-0.4,0.4h-5.6v3.1h4.7
			c0.2,0,0.4,0.2,0.4,0.4v1.6c0,0.2-0.2,0.4-0.4,0.4h-4.7v3.3h5.6c0.2,0,0.4,0.2,0.4,0.4v1.5c0,0.2-0.2,0.4-0.4,0.4H109
			c-0.2,0-0.4-0.2-0.4-0.4V9.3z"/>
	</g>
	<g>
		<path fill="#231F20" d="M176,21.7L181.9,9c0.1-0.1,0.2-0.2,0.3-0.2h0.2c0.2,0,0.3,0.1,0.3,0.2l5.8,12.7c0.1,0.2,0,0.5-0.3,0.5
			h-1.6c-0.3,0-0.4-0.1-0.5-0.4l-0.9-2h-5.6l-0.9,2c-0.1,0.2-0.2,0.4-0.5,0.4h-1.6C176.1,22.2,175.9,21.9,176,21.7z M184.2,17.7
			l-1.9-4.2h-0.1l-1.8,4.2H184.2z"/>
		<path fill="#231F20" d="M194,9.3c0-0.2,0.2-0.4,0.4-0.4h1.7c0.2,0,0.4,0.2,0.4,0.4v10.6h4.8c0.2,0,0.4,0.2,0.4,0.4v1.5
			c0,0.2-0.2,0.4-0.4,0.4h-6.9c-0.2,0-0.4-0.2-0.4-0.4V9.3z"/>
		<path fill="#231F20" d="M207.3,9.3c0-0.2,0.2-0.4,0.4-0.4h7.7c0.2,0,0.4,0.2,0.4,0.4v1.5c0,0.2-0.2,0.4-0.4,0.4h-5.6v3.1h4.7
			c0.2,0,0.4,0.2,0.4,0.4v1.6c0,0.2-0.2,0.4-0.4,0.4h-4.7v3.3h5.6c0.2,0,0.4,0.2,0.4,0.4v1.5c0,0.2-0.2,0.4-0.4,0.4h-7.7
			c-0.2,0-0.4-0.2-0.4-0.4V9.3z"/>
		<path fill="#231F20" d="M224.7,15.4l-3.8-5.9c-0.2-0.2,0-0.5,0.3-0.5h2.2c0.2,0,0.2,0.1,0.3,0.2l2.4,4h0.1l2.4-4
			c0-0.1,0.2-0.2,0.3-0.2h2.2c0.3,0,0.5,0.3,0.3,0.5l-3.8,5.9l3.9,6.2c0.2,0.3,0,0.5-0.3,0.5h-2c-0.2,0-0.3-0.1-0.3-0.2l-2.7-4.3
			h-0.1l-2.6,4.3c-0.1,0.1-0.2,0.2-0.3,0.2h-2c-0.3,0-0.5-0.3-0.3-0.5L224.7,15.4z"/>
	</g>
	<g>
		<path fill="#231F20" d="M158.3,4.8c0.7,0.4,1.3,0.9,1.7,1.5c0.4,0.7,0.6,1.4,0.6,2.3c0,1-0.3,1.9-0.8,2.7
			c-0.6,0.8-1.3,1.4-2.2,1.8c-0.8,0.4-2.4,0.9-4.8,1.7c1.2,0.5,2.1,1.2,2.7,2.2c0.6,1,0.9,2.1,0.9,3.3c0,1.3-0.4,2.6-1.2,3.8
			c-0.8,1.2-1.9,2.1-3.4,2.9s-3.2,1.1-5.2,1.1c-1.9,0-3.6-0.3-5.2-1c-1.6-0.7-2.9-1.6-3.8-2.8S136,21.6,136,20
			c0-1.4,0.4-2.6,1.1-3.6c0.7-1,1.5-1.7,2.4-2.2s1.7-0.9,2.5-1.1c-1.1-0.5-1.9-1.1-2.4-1.8c-0.6-0.7-0.8-1.5-0.8-2.4
			c0-0.7,0.2-1.4,0.6-2c0.4-0.6,1-1.1,1.9-1.5c0.8-0.4,1.8-0.6,3-0.6c1.4,0,2.6,0.3,3.4,1c0.4,0.3,0.7,0.7,0.9,1.1
			c0.2,0.4,0.3,0.8,0.3,1.1c0,0.5-0.2,0.9-0.6,1.2c-0.4,0.3-0.8,0.5-1.3,0.5c-0.5,0-0.9-0.1-1.2-0.4c-0.3-0.3-0.5-0.7-0.5-1.2
			c0-0.5,0.2-0.9,0.5-1.2c0.3-0.3,0.7-0.5,1.2-0.6c-0.1-0.3-0.4-0.5-0.8-0.7c-0.5-0.2-1-0.3-1.6-0.3c-1.1,0-2,0.3-2.7,1
			s-1,1.6-1,2.8c0,1.4,0.5,2.7,1.6,3.7c0.7-0.1,1.4-0.2,2-0.2c0.4,0,0.7,0.1,0.9,0.2s0.3,0.3,0.3,0.6c0,0.2-0.1,0.3-0.2,0.5
			c-0.2,0.1-0.4,0.2-0.7,0.2c-0.3,0-0.7-0.1-1-0.2c-0.4-0.1-0.7-0.2-0.9-0.3c-0.2-0.1-0.4-0.2-0.5-0.2c-2.8,0.8-4.2,2.6-4.2,5.3
			c0,1.4,0.4,2.7,1.1,3.7c0.8,1.1,1.8,1.9,3.1,2.4c1.3,0.6,2.8,0.8,4.4,0.8c1.5,0,3-0.2,4.2-0.7c1.3-0.5,2.3-1.2,3.1-2.1
			s1.2-1.9,1.2-3.1c0-0.8-0.2-1.7-0.7-2.6c-0.5-0.9-1.3-1.6-2.6-2.1c-1.9,0.6-3.2,1-3.7,1.2c-0.9,0.3-1.6,0.7-2.1,1.2
			c-0.5,0.4-0.7,1-0.7,1.6c0,0.5,0.2,1,0.5,1.4c0.3,0.4,0.7,0.7,1.2,0.9c0.5,0.2,0.9,0.3,1.3,0.3c0.4,0,0.8-0.1,1.2-0.2
			s0.7-0.3,0.7-0.5c-0.4-0.1-0.8-0.2-1.1-0.5c-0.3-0.3-0.5-0.6-0.5-1.1c0-0.5,0.2-0.9,0.5-1.2c0.3-0.3,0.8-0.5,1.3-0.5
			c0.5,0,0.9,0.2,1.2,0.5c0.3,0.3,0.5,0.7,0.5,1.3c0,0.6-0.2,1.1-0.6,1.5c-0.4,0.4-0.9,0.7-1.5,1c-0.6,0.2-1.2,0.3-1.8,0.3
			c-0.7,0-1.3-0.1-1.9-0.4c-0.6-0.3-1.1-0.7-1.5-1.3c-0.4-0.6-0.6-1.3-0.6-2.1c0-1.1,0.4-2,1.1-2.8c0.7-0.8,1.9-1.4,3.4-1.9
			c0.4-0.1,1.2-0.4,2.4-0.7c1.2-0.3,2.2-0.6,3.1-0.9c0.9-0.3,1.6-0.6,2.4-0.9c1-0.5,1.7-1,2.2-1.5c0.4-0.5,0.6-1,0.6-1.6
			c0-0.6-0.2-1.2-0.5-1.7c-0.3-0.5-0.8-0.9-1.4-1.2c-0.6-0.3-1.2-0.4-1.9-0.4c-0.5,0-0.9,0.1-1,0.3c0.3,0.1,0.5,0.4,0.7,0.6
			c0.2,0.3,0.2,0.6,0.2,0.9c0,0.4-0.2,0.8-0.5,1.1c-0.4,0.3-0.8,0.5-1.3,0.5c-0.5,0-0.9-0.1-1.2-0.4c-0.3-0.3-0.5-0.7-0.5-1.2
			c0-0.5,0.2-1,0.5-1.3c0.4-0.3,0.8-0.6,1.4-0.7c0.5-0.1,1.1-0.2,1.7-0.2C156.8,4.3,157.6,4.4,158.3,4.8z"/>
	</g>
</g>
</svg>
